<svg xmlns="http://www.w3.org/2000/svg" xmlns:xlink="http://www.w3.org/1999/xlink" viewBox="0 0 400 400" width="400" height="400" preserveAspectRatio="xMidYMid meet" style="width: 100%; height: 100%; transform: translate3d(0px, 0px, 0px); content-visibility: visible;"><defs><clipPath id="__lottie_element_2"><rect width="400" height="400" x="0" y="0"></rect></clipPath></defs><g clip-path="url(#__lottie_element_2)"><g transform="matrix(1,0,0,1,200,307.5)" opacity="1" style="display: block;"><g opacity="1" transform="matrix(1,0,0,1,0,0)"><path fill="#F1F333" fill-opacity="1" d=" M30,-58 C30,-58 30,58 30,58 C30,58 -30,58 -30,58 C-30,58 -30,-58 -30,-58 C-30,-58 30,-58 30,-58z"></path><path stroke-linecap="butt" stroke-linejoin="miter" fill-opacity="0" stroke-miterlimit="4" stroke="#000000" stroke-opacity="1" stroke-width="4px" d=" M30,-58 C30,-58 30,58 30,58 C30,58 -30,58 -30,58 C-30,58 -30,-58 -30,-58 C-30,-58 30,-58 30,-58z"></path></g><g opacity="1" transform="matrix(1,0,0,1,0,0)"><path fill="#F1F333" fill-opacity="1" d=" M28,-55 C28,-55 28,61 28,61 C28,61 -28,61 -28,61 C-28,61 -28,-55 -28,-55 C-28,-55 28,-55 28,-55z"></path></g></g><g transform="matrix(1,0,0,1,0,0)" opacity="1" style="display: block;"><g opacity="1" transform="matrix(1,0,0,1,79.98140716552734,327.4380187988281)"><g opacity="1" transform="matrix(-0.416948527097702,-0.5712108016014099,-1.5724118947982788,0.24420587718486786,-33.20487594604492,-45.489990234375)"></g><g opacity="1" transform="matrix(1,0,0,1,0,0)"><g class="10" opacity="1" transform="matrix(1,0,0,1,0,0)"></g></g><g opacity="1" transform="matrix(1,0,0,1,0,0)"><g opacity="1" transform="matrix(1,0,0,1,-200,-200)"></g></g><g opacity="1" transform="matrix(1,0,0,1,-135,0)"><g opacity="1" transform="matrix(1,0,0,1,0,0)"></g></g></g><g opacity="1" transform="matrix(1,0,0,1,0,0)"><g opacity="1" transform="matrix(1,0,0,1,79.98140716552734,327.4380187988281)"><path stroke-linecap="round" stroke-linejoin="miter" fill-opacity="0" stroke-miterlimit="4" stroke="#000000" stroke-opacity="1" stroke-width="21px" d=" M0,0 C0,0 2.51,-0.87 6.9,-2.72"></path><path stroke-linecap="round" stroke-linejoin="round" fill-opacity="0" stroke="#FF90E8" stroke-opacity="1" stroke-width="15px" d=" M0,0 C0,0 2.51,-0.87 6.9,-2.72"></path><g opacity="1" transform="matrix(-0.416948527097702,-0.5712108016014099,-1.5724118947982788,0.24420587718486786,-33.20487594604492,-45.489990234375)"></g></g><g opacity="1" transform="matrix(1,0,0,1,79.98140716552734,327.4380187988281)"><path stroke-linecap="square" stroke-linejoin="round" fill-opacity="0" stroke="#000000" stroke-opacity="1" stroke-width="21px" d=" M13.39,-5.59 C23.89,-10.43 39.57,-18.59 56.74,-30.7 C86.67,-51.83 91.75,-64.24 92.01,-64.91"></path><path stroke-linecap="square" stroke-linejoin="round" fill-opacity="0" stroke="#F1F333" stroke-opacity="1" stroke-width="15px" d=" M13.39,-5.59 C23.89,-10.43 39.57,-18.59 56.74,-30.7 C86.67,-51.83 91.75,-64.24 92.01,-64.91"></path><g opacity="1" transform="matrix(-0.416948527097702,-0.5712108016014099,-1.5724118947982788,0.24420587718486786,-33.20487594604492,-45.489990234375)"></g></g></g></g><g transform="matrix(1,0,0,1,0,0)" opacity="1" style="display: block;"><g opacity="1" transform="matrix(1,0,0,1,143,347)"><g opacity="1" transform="matrix(0.00294777425006032,-0.9999956488609314,-0.9999956488609314,-0.00294777425006032,0.24982494115829468,-84.75)"></g><g opacity="1" transform="matrix(1,0,0,1,0,0)"><g class="10" opacity="1" transform="matrix(1,0,0,1,0,0)"></g></g><g opacity="1" transform="matrix(1,0,0,1,0,0)"><g opacity="1" transform="matrix(1,0,0,1,-200,-200)"></g></g><g opacity="1" transform="matrix(1,0,0,1,-135,0)"><g opacity="1" transform="matrix(1,0,0,1,0,0)"></g></g></g><g opacity="1" transform="matrix(1,0,0,1,0,0)"><g opacity="1" transform="matrix(1,0,0,1,143,347)"><path stroke-linecap="round" stroke-linejoin="miter" fill-opacity="0" stroke-miterlimit="4" stroke="#000000" stroke-opacity="1" stroke-width="21px" d=" M0,0 C0,0 5.11,-0.59 12.69,-2.58"></path><path stroke-linecap="round" stroke-linejoin="round" fill-opacity="0" stroke="#FF90E8" stroke-opacity="1" stroke-width="15px" d=" M0,0 C0,0 5.11,-0.59 12.69,-2.58"></path><g opacity="1" transform="matrix(0.00294777425006032,-0.9999956488609314,-0.9999956488609314,-0.00294777425006032,0.24982494115829468,-84.75)"></g></g><g opacity="1" transform="matrix(1,0,0,1,143,347)"><path stroke-linecap="square" stroke-linejoin="round" fill-opacity="0" stroke="#000000" stroke-opacity="1" stroke-width="21px" d=" M12.69,-2.58 C25,-5.8 43.84,-12.7 57.94,-26.72 C80.23,-48.88 84.8,-82.96 84.99,-84.45"></path><path stroke-linecap="square" stroke-linejoin="round" fill-opacity="0" stroke="#F1F333" stroke-opacity="1" stroke-width="15px" d=" M12.69,-2.58 C25,-5.8 43.84,-12.7 57.94,-26.72 C80.23,-48.88 84.8,-82.96 84.99,-84.45"></path><g opacity="1" transform="matrix(0.00294777425006032,-0.9999956488609314,-0.9999956488609314,-0.00294777425006032,0.24982494115829468,-84.75)"></g></g></g></g><g transform="matrix(1,0,0,1,200,241)" opacity="1" style="display: block;"><g opacity="1" transform="matrix(1,0,0,1,0,0)"><path fill="#F1F333" fill-opacity="1" d=" M0,-41.5 C16.55699920654297,-41.5 30,-20.21525001525879 30,6 C30,32.215248107910156 16.55699920654297,53.5 0,53.5 C-16.55699920654297,53.5 -30,32.215248107910156 -30,6 C-30,-20.21525001525879 -16.55699920654297,-41.5 0,-41.5z"></path></g></g><g transform="matrix(1,0,0,1,204,263)" opacity="1" style="display: block;"><g opacity="1" transform="matrix(1,0,0,1,0,0)"><path fill="#FF90E8" fill-opacity="1" d=" M15.322999954223633,0 C15.322999954223633,7.452000141143799 8.463000297546387,13.493000030517578 0,13.493000030517578 C-8.463000297546387,13.493000030517578 -15.322999954223633,7.452000141143799 -15.322999954223633,0 C-15.322999954223633,-7.452000141143799 -8.463000297546387,-13.493000030517578 0,-13.493000030517578 C8.463000297546387,-13.493000030517578 15.322999954223633,-7.452000141143799 15.322999954223633,0z"></path><path stroke-linecap="butt" stroke-linejoin="miter" fill-opacity="0" stroke-miterlimit="10" stroke="#000000" stroke-opacity="1" stroke-width="3px" d=" M15.322999954223633,0 C15.322999954223633,7.452000141143799 8.463000297546387,13.493000030517578 0,13.493000030517578 C-8.463000297546387,13.493000030517578 -15.322999954223633,7.452000141143799 -15.322999954223633,0 C-15.322999954223633,-7.452000141143799 -8.463000297546387,-13.493000030517578 0,-13.493000030517578 C8.463000297546387,-13.493000030517578 15.322999954223633,-7.452000141143799 15.322999954223633,0z"></path></g></g><g transform="matrix(0.9999584555625916,0.00911830272525549,-0.00911830272525549,0.9999584555625916,72.36772918701172,9.959381103515625)" opacity="1" style="display: block;"><g opacity="1" transform="matrix(1,0,0,1,130,148.05499267578125)"><path fill="#FF90E8" fill-opacity="1" d=" M55.84000015258789,17.017000198364258 C45.2760009765625,8.685999870300293 45.2760009765625,-8.699000358581543 55.84000015258789,-17.017000198364258 C68.46499633789062,-26.98200035095215 76.18599700927734,-40.323001861572266 76.18599700927734,-54.98500061035156 C76.18599700927734,-85.81300354003906 42.064998626708984,-110.8010025024414 0,-110.8010025024414 C-42.064998626708984,-110.8010025024414 -76.18599700927734,-85.81300354003906 -76.18599700927734,-54.98500061035156 C-76.18599700927734,-40.323001861572266 -68.46499633789062,-26.98200035095215 -55.84000015258789,-17.017000198364258 C-45.2760009765625,-8.685999870300293 -45.2760009765625,8.699000358581543 -55.84000015258789,17.017000198364258 C-68.46499633789062,26.98200035095215 -76.18599700927734,40.323001861572266 -76.18599700927734,54.98500061035156 C-76.18599700927734,85.81300354003906 -42.064998626708984,110.8010025024414 0,110.8010025024414 C42.064998626708984,110.8010025024414 76.18599700927734,85.81300354003906 76.18599700927734,54.98500061035156 C76.18599700927734,40.323001861572266 68.46499633789062,26.98200035095215 55.84000015258789,17.017000198364258z"></path><path stroke-linecap="butt" stroke-linejoin="miter" fill-opacity="0" stroke-miterlimit="10" stroke="#000000" stroke-opacity="1" stroke-width="3px" d=" M55.84000015258789,17.017000198364258 C45.2760009765625,8.685999870300293 45.2760009765625,-8.699000358581543 55.84000015258789,-17.017000198364258 C68.46499633789062,-26.98200035095215 76.18599700927734,-40.323001861572266 76.18599700927734,-54.98500061035156 C76.18599700927734,-85.81300354003906 42.064998626708984,-110.8010025024414 0,-110.8010025024414 C-42.064998626708984,-110.8010025024414 -76.18599700927734,-85.81300354003906 -76.18599700927734,-54.98500061035156 C-76.18599700927734,-40.323001861572266 -68.46499633789062,-26.98200035095215 -55.84000015258789,-17.017000198364258 C-45.2760009765625,-8.685999870300293 -45.2760009765625,8.699000358581543 -55.84000015258789,17.017000198364258 C-68.46499633789062,26.98200035095215 -76.18599700927734,40.323001861572266 -76.18599700927734,54.98500061035156 C-76.18599700927734,85.81300354003906 -42.064998626708984,110.8010025024414 0,110.8010025024414 C42.064998626708984,110.8010025024414 76.18599700927734,85.81300354003906 76.18599700927734,54.98500061035156 C76.18599700927734,40.323001861572266 68.46499633789062,26.98200035095215 55.84000015258789,17.017000198364258z"></path></g></g><g transform="matrix(0.9999584555625916,0.00911830272525549,-0.00911830272525549,0.9999584555625916,42.502685546875,-2.525421142578125)" opacity="1" style="display: block;"><g opacity="1" transform="matrix(1,0,0,1,130,229.57699584960938)"><path stroke-linecap="round" stroke-linejoin="round" fill-opacity="0" stroke="#000000" stroke-opacity="1" stroke-width="3px" d=" M-15.748000144958496,-4.0960001945495605 C-11.899999618530273,0.925000011920929 -6.2729997634887695,4.0960001945495605 0,4.0960001945495605 C6.2729997634887695,4.0960001945495605 11.899999618530273,0.925000011920929 15.748000144958496,-4.0960001945495605"></path></g></g><g transform="matrix(0.9999584555625916,0.00911830272525549,-0.00911830272525549,0.9999584555625916,42.5029296875,-2.5252685546875)" opacity="1" style="display: block;"><g opacity="1" transform="matrix(1,0,0,1,0,0)"><g opacity="1" transform="matrix(1,0,0,1,100.62699890136719,212.38099670410156)"><path fill="rgb(0,0,0)" fill-opacity="1" d=" M2.575000047683716,0 C2.575000047683716,1.4220000505447388 1.4220000505447388,2.575000047683716 0,2.575000047683716 C-1.4220000505447388,2.575000047683716 -2.575000047683716,1.4220000505447388 -2.575000047683716,0 C-2.575000047683716,-1.4220000505447388 -1.4220000505447388,-2.575000047683716 0,-2.575000047683716 C1.4220000505447388,-2.575000047683716 2.575000047683716,-1.4220000505447388 2.575000047683716,0z"></path></g><g opacity="1" transform="matrix(1,0,0,1,159.3730010986328,212.38099670410156)"><path fill="rgb(0,0,0)" fill-opacity="1" d=" M2.575000047683716,0 C2.575000047683716,1.4220000505447388 1.4220000505447388,2.575000047683716 0,2.575000047683716 C-1.4220000505447388,2.575000047683716 -2.575000047683716,1.4220000505447388 -2.575000047683716,0 C-2.575000047683716,-1.4220000505447388 -1.4220000505447388,-2.575000047683716 0,-2.575000047683716 C1.4220000505447388,-2.575000047683716 2.575000047683716,-1.4220000505447388 2.575000047683716,0z"></path></g></g></g><g transform="matrix(1,0,0,1,0,0)" opacity="1" style="display: none;"><g opacity="1" transform="matrix(1,0,0,1,191.38674926757812,348.6214294433594)"><g opacity="1" transform="matrix(-0.3740878403186798,-0.9273932576179504,-0.9273932576179504,0.3740878403186798,-24.754087448120117,-61.36733627319336)"></g><g opacity="1" transform="matrix(1,0,0,1,0,0)"><g class="10" opacity="1" transform="matrix(1,0,0,1,0,0)"></g></g><g opacity="1" transform="matrix(1,0,0,1,0,0)"><g opacity="1" transform="matrix(1,0,0,1,-200,-200)"></g></g><g opacity="1" transform="matrix(1,0,0,1,-135,0)"><g opacity="1" transform="matrix(1,0,0,1,0,0)"></g></g></g><g opacity="1" transform="matrix(1,0,0,1,0,0)"><g opacity="1" transform="matrix(1,0,0,1,191.38674926757812,348.6214294433594)"><path stroke-linecap="round" stroke-linejoin="miter" fill-opacity="0" stroke-miterlimit="4" stroke="#000000" stroke-opacity="1" stroke-width="21px" d=" M0,0 C0,0 3.14,-2.28 7.55,-6.32"></path><path stroke-linecap="round" stroke-linejoin="round" fill-opacity="0" stroke="#FF90E8" stroke-opacity="1" stroke-width="15px" d=" M0,0 C0,0 3.14,-2.28 7.55,-6.32"></path><g opacity="1" transform="matrix(-0.3740878403186798,-0.9273932576179504,-0.9273932576179504,0.3740878403186798,-24.754087448120117,-61.36733627319336)"></g></g><g opacity="1" transform="matrix(1,0,0,1,191.38674926757812,348.6214294433594)"><path stroke-linecap="square" stroke-linejoin="round" fill-opacity="0" stroke="#000000" stroke-opacity="1" stroke-width="20px" d=" M7.55,-6.32 C10.04,-8.6 12.92,-11.43 15.87,-14.72"></path><path stroke-linecap="square" stroke-linejoin="round" fill-opacity="0" stroke="#F1F333" stroke-opacity="1" stroke-width="15px" d=" M7.55,-6.32 C10.04,-8.6 12.92,-11.43 15.87,-14.72"></path><g opacity="1" transform="matrix(-0.3740878403186798,-0.9273932576179504,-0.9273932576179504,0.3740878403186798,-24.754087448120117,-61.36733627319336)"></g></g><g opacity="1" transform="matrix(1,0,0,1,191.38674926757812,348.6214294433594)"><path stroke-linecap="round" stroke-linejoin="round" fill-opacity="0" stroke="#F1F333" stroke-opacity="1" stroke-width="15px" d=" M14.54,-13.26 C20.5,-19.69 26.94,-28.09 31.01,-37.66 C32.96,-42.25 34.34,-47.05 35.3,-51.76"></path><g opacity="1" transform="matrix(-0.3740878403186798,-0.9273932576179504,-0.9273932576179504,0.3740878403186798,-24.754087448120117,-61.36733627319336)"></g></g></g></g></g></svg>