<svg xmlns:xlink="http://www.w3.org/1999/xlink" xmlns="http://www.w3.org/2000/svg" width="163" height="145" viewBox="0 0 163 145" fill="none">
<path d="M150.932 115.803C151.163 94.5296 133.44 65.7011 104.134 43.134C74.827 20.5669 42.4353 10.7794 21.9261 16.4237L17.1135 12.7251L6.86242 26.0328C-8.56959 46.0732 9.9426 86.2281 48.2219 115.709C86.5013 145.189 130.053 152.855 145.46 132.828L155.711 119.52L150.932 115.803Z" fill="#F1F333" stroke="black" stroke-width="2" stroke-miterlimit="10"/>
<path d="M58.4669 102.395C96.7467 131.881 140.294 139.537 155.733 119.494C171.172 99.4509 152.656 59.2994 114.376 29.813C76.0961 0.326637 32.5486 -7.32865 17.1098 12.7143C1.67097 32.7572 20.1872 72.9086 58.4669 102.395Z" fill="#F1F333" stroke="black" stroke-width="2" stroke-miterlimit="10"/>
<path d="M67.5186 90.656C97.7001 113.904 131.072 121.19 142.057 106.93C153.042 92.6687 137.48 62.2614 107.299 39.013C77.1171 15.7647 43.7451 8.4789 32.7602 22.7397C21.7753 37.0005 37.3372 67.4077 67.5186 90.656Z" fill="#F1F333" stroke="black" stroke-width="2" stroke-miterlimit="10"/>
</svg>