<svg xmlns:xlink="http://www.w3.org/1999/xlink" xmlns="http://www.w3.org/2000/svg" width="161" height="137" viewBox="0 0 161 137" fill="none">
<path d="M141.132 17.5204C121.572 10.9013 89.6349 18.575 59.9877 38.8222C30.3404 59.0694 11.5564 86.0112 10.5894 106.635L5.72754 109.962L14.9204 123.428C28.7657 143.701 71.3916 138.71 110.12 112.265C148.848 85.8201 169.034 47.9419 155.194 27.6957L146.001 14.2297L141.132 17.5204Z" fill="#F1F333" stroke="black" stroke-width="2" stroke-miterlimit="10"/>
<path d="M100.919 98.8033C139.653 72.3597 159.828 34.4823 145.983 14.2018C132.137 -6.07879 89.513 -1.08278 50.7794 25.3608C12.0459 51.8045 -8.12969 89.682 5.71595 109.963C19.5616 130.243 62.1854 125.247 100.919 98.8033Z" fill="#F1F333" stroke="black" stroke-width="2" stroke-miterlimit="10"/>
<path d="M92.8126 86.9167C123.352 66.0674 140.123 37.468 130.271 23.0381C120.42 8.60824 87.6769 13.8121 57.1376 34.6615C26.5983 55.5108 9.82754 84.1103 19.6789 98.5402C29.5303 112.97 62.2733 107.766 92.8126 86.9167Z" fill="#F1F333" stroke="black" stroke-width="2" stroke-miterlimit="10"/>
</svg>