<svg xmlns:xlink="http://www.w3.org/1999/xlink" xmlns="http://www.w3.org/2000/svg" width="165" height="247" viewBox="0 0 165 247" fill="none">
<path d="M40.7837 16.6689C22.6273 40.1893 18.1304 87.237 31.8139 137.05C45.4974 186.863 73.3718 225.026 100.983 235.989L103.236 244.161L125.86 237.95C159.923 228.593 173.07 168.256 155.201 103.187C137.331 38.1176 95.2308 -7.06829 61.2071 2.29456L38.5833 8.50484L40.7837 16.6689Z" fill="#F1F333" stroke="black" stroke-width="2" stroke-miterlimit="10"/>
<path d="M132.58 109.408C114.715 44.3326 72.6105 -0.838829 38.5374 8.51513C4.46439 17.8691 -8.67507 78.2063 9.18994 143.282C27.055 208.358 69.1593 253.529 103.232 244.175C137.305 234.821 150.445 174.484 132.58 109.408Z" fill="#F1F333" stroke="black" stroke-width="2" stroke-miterlimit="10"/>
<path d="M112.612 114.88C98.5268 63.5711 67.4551 27.3725 43.2116 34.028C18.9682 40.6835 10.7334 87.6727 24.819 138.981C38.9046 190.29 69.9766 226.488 94.22 219.833C118.464 213.177 126.698 166.188 112.612 114.88Z" fill="#F1F333" stroke="black" stroke-width="2" stroke-miterlimit="10"/>
</svg>