<svg xmlns:xlink="http://www.w3.org/1999/xlink" xmlns="http://www.w3.org/2000/svg" width="277" height="185" viewBox="0 0 277 185" fill="none">
<path d="M258.185 45.6572C231.675 25.4452 178.862 20.7156 123.068 36.4014C67.274 52.0871 24.6462 83.6157 12.5321 114.667L3.37891 117.249L10.4982 142.589C21.2241 180.742 89.0057 195.087 161.887 174.603C234.769 154.119 285.181 106.583 274.449 68.474L267.329 43.1338L258.185 45.6572Z" fill="#F1F333" stroke="black" stroke-width="2" stroke-miterlimit="10"/>
<path d="M154.755 149.265C227.644 128.786 278.04 81.2461 267.317 43.082C256.594 4.91784 188.813 -9.41873 115.924 11.0607C43.0349 31.5401 -7.36084 79.0803 3.36198 117.244C14.0848 155.409 81.8657 169.745 154.755 149.265Z" fill="#F1F333" stroke="black" stroke-width="2" stroke-miterlimit="10"/>
<path d="M148.483 126.902C205.952 110.755 246.355 75.6526 238.726 48.4982C231.096 21.3439 178.323 12.4205 120.854 28.5673C63.3851 44.7142 22.9821 79.8169 30.6116 106.971C38.241 134.126 91.0137 143.049 148.483 126.902Z" fill="#F1F333" stroke="black" stroke-width="2" stroke-miterlimit="10"/>
</svg>