<svg xmlns="http://www.w3.org/2000/svg" xmlns:xlink="http://www.w3.org/1999/xlink" viewBox="0 0 32 32" width="32" height="32" preserveAspectRatio="xMidYMid meet" style="width: 100%; height: 100%; transform: translate3d(0px, 0px, 0px); content-visibility: visible;"><defs><clipPath id="__lottie_element_5"><rect width="32" height="32" x="0" y="0"></rect></clipPath></defs><g clip-path="url(#__lottie_element_5)"><g transform="matrix(1,0,0,1,16.125,14.875)" opacity="1" style="display: block;"><g opacity="1" transform="matrix(1,0,0,1,0,0)"><path fill="#FF0000" fill-opacity="1" d=" M-11,1.125 C-11,1.125 10.75,1.125 10.75,1.125"></path><path stroke-linecap="butt" stroke-linejoin="miter" fill-opacity="0" stroke-miterlimit="4" stroke="#000000" stroke-opacity="1" stroke-width="2px" d=" M-11,1.125 C-11,1.125 10.75,1.125 10.75,1.125"></path></g></g><g transform="matrix(0,1,-1,0,17.125,16.125)" opacity="1" style="display: block;"><g opacity="1" transform="matrix(1,0,0,1,0,0)"><path fill="#FF0000" fill-opacity="1" d=" M-11,1.125 C-11,1.125 10.75,1.125 10.75,1.125"></path><path stroke-linecap="butt" stroke-linejoin="miter" fill-opacity="0" stroke-miterlimit="4" stroke="#000000" stroke-opacity="1" stroke-width="2px" d=" M-11,1.125 C-11,1.125 10.75,1.125 10.75,1.125"></path></g></g></g></svg>