<svg xmlns="http://www.w3.org/2000/svg" width="1519" height="532" fill="none">
  <rect width="100%" height="100%"/>
  <g class="currentLayer">
    <path d="M.01 59.19h810.18s31.19 21.64 53.89 25.28c22.7 3.64 47.09 8.86 60 16.81 12.91 7.95 38.22 19.91 50.3 22.12 12.08 2.21 147.58 31.6 178.73 31 31.15-.6 45-2.12 59.81 3.19 14.81 5.31 33.39 14.21 47.17 19.85 13.78 5.64 56.32 9.34 70.84 11.4 14.52 2.06 21.41 0 38.63 11.76 17.22 11.76 36.61 20.69 54.83 19.57 18.22-1.12 36.81-6.64 55.27-5.2 18.46 1.44 38.37 4.53 38.37 4.53v312.46H.01V59.19Z" fill="#090" filter="url(#a)"/>
    <path d="M1518 345.27H0v116.99h1518V345.27Z" fill="#FFC900" filter="url(#b)"/>
    <path d="M1 345h1516m0 117H1" stroke="#000" stroke-width="2" stroke-linecap="square" stroke-linejoin="round"/>
    <path d="M810.189 59.19 1518.01 59v160.49s-7.75-.23-36.64-3.73c-23.11-2.8-63.18 10.18-86.71 0-14.15-6.11-30.34-20.06-39.13-22.37-24.21-6.39-72.56-3.18-91.72-12-19.16-8.82-29.54-20.63-70.13-23.82-40.59-3.19-91.61 2.31-131.79-5.71-40.18-8.02-103.381-22.76-132.221-39.66-28.84-16.9-11.66-18.9-33.41-21.32-50.61-5.65-86.07-31.69-86.07-31.69Z" fill="#90A8ED" filter="url(#a)"/>
    <path d="M1518.905 59h-707s35.419 26.116 85.97 31.782c21.725 2.427 4.565 4.433 33.372 21.382 28.806 16.949 91.928 31.732 132.068 39.776 40.13 8.043 91.09 2.527 131.64 5.726 40.54 3.199 50.91 15.044 70.04 23.889 19.14 8.846 67.44 5.627 91.62 12.035 8.78 2.317 24.95 16.308 39.08 22.435 23.51 10.21 63.53-2.808 86.61 0 28.86 3.511 36.6 3.741 36.6 3.741" stroke="#000" stroke-width="2" stroke-linecap="square" stroke-linejoin="round" filter="url(#a)"/>
    <path d="m1160.51 245.87 208.83-2 5.36 37.62 30 3.21v10.87s-241.44 9-240.4 0c1.04-9-3.79-49.7-3.79-49.7Z" fill="#98282A" stroke="#000" stroke-width="2" stroke-linecap="round" stroke-linejoin="round"/>
    <path d="M810 59H0" stroke="#000" stroke-width="2" stroke-miterlimit="10"/>
    <path d="M161.379 97.3c-.92-2.67-3.74-12.1-7.82-15.94a15.406 15.406 0 0 0-13.11-3.88c-4.08.57-10.79 1.73-15.7 4.18a13.732 13.732 0 0 0-7.74 13.32c.17 4.79 1.07 17.59 6.55 29.37 3.46 7.43 6.36 9.7 10.68 10.65 2.126.357 4.294.391 6.43.1h.36a56.51 56.51 0 0 0 7.3-1.37c1.15-.3 2.49-.61 3.9-1 .66-.19 1.35-.39 2-.62.65-.23 1.62-.6 2.41-1l.1-.05c1.306-.6 2.51-1.4 3.57-2.37a14.448 14.448 0 0 0 4.7-11.27c0-5.04-2.7-17.41-3.63-20.12Z" fill="#e84141" stroke="#000" stroke-width="2" stroke-linecap="round" stroke-linejoin="round" filter="url(#a)"/>
    <path d="M132.029 126.88a.57.57 0 1 0 0-1.14.57.57 0 0 0 0 1.14Zm5.26-1.14a.57.57 0 1 0 0-1.14.57.57 0 0 0 0 1.14Z" fill="#E2442F" stroke="#000" stroke-width="2" stroke-linecap="round" stroke-linejoin="round"/>
    <path d="M137.859 128.04c-1.45 2.24-4.39 1.46-4.39 1.46" stroke="#000" stroke-width="2" stroke-linecap="round" stroke-linejoin="round"/>
    <path d="M156.619 143.1s1.1 2.91 2.56 6.8" stroke="#5000FF" stroke-width="2" stroke-linecap="round" stroke-linejoin="round"/>
    <path d="M138.01 160.65c-.25 1-1.66 5.92-5.54 6.68-3.88.76-28 5.16-28 5.16h-.12l-3-1 .51-2.27.36-1.48.08-.33.59-2.47.42-1.74.23-.2 4.44-3.77 2.93-.19 1.35-.09h.18l16.2-2.28c.38-.89.8-1.87 1.25-2.9l5.88 3.19a10.645 10.645 0 0 0 2.24 3.69v0Z" fill="#FF90E8" stroke="#000" stroke-width="2" stroke-linecap="round" stroke-linejoin="round"/>
    <path d="M136.38 151.3c-.81 2.1-1.19 4.08-.66 5.61l-5.88-3.19c.91-2.08 1.93-4.37 3-6.58l4.46 2.12c-.36.67-.66 1.35-.92 2.04Z" fill="#F1F333" stroke="#000" stroke-width="2" stroke-linecap="round" stroke-linejoin="round"/>
    <path d="M203.879 284.17s-5.56 4.79-11.14 9.47c-4.49 3.77-8.93 5.21-10.88 5.08-1.95-.13-4.91-2.18-3.71-5.56 1.2-3.38 7.53-9.76 8.67-11.06 1.14-1.3 1.73-2.21 1-3.41-.73-1.2-3.83-5.7-3.83-5.7s-1.28-1.94-3.15-4.8a5.677 5.677 0 0 1 3.17 0 .903.903 0 0 1 .23.14l.87 1 6.64-3.63c.07.18.14.32.18.43.56 1.17 11.95 18.04 11.95 18.04Z" fill="#000" stroke="#000" stroke-width="2" stroke-linecap="round" stroke-linejoin="round"/>
    <path d="m192.598 264.63-7.31 4-.95-1.1a.869.869 0 0 0-.26-.16l7.71-4.66c.34.79.62 1.45.81 1.92Z" fill="#FFC900" stroke="#000" stroke-width="2" stroke-linecap="round" stroke-linejoin="round"/>
    <path d="m173.629 160.01-9.2 3.79c-.22-.6-.46-1.24-.72-1.89l-2.83-7.52 9.13-4.09c1.2 3.19 2.51 6.74 3.62 9.71Z" fill="#F1F333" stroke="#000" stroke-width="2" stroke-linecap="round" stroke-linejoin="round"/>
    <path d="M177.009 173.96c-.23 1.35-2 9.45-2 9.45l-3.62 17.1-.57-.24-7-2.92-2.38-1s1.1-2.49 2.37-6c.39-1.06.8-2.24 1.19-3.46a65.32 65.32 0 0 0 2.39-9.43 13.813 13.813 0 0 0-1-8.44c-.28-.69-1-2.65-2-5.2l9.2-3.79 2 5.47c1.74 4.65 1.63 7.1 1.42 8.46Zm-7-23.66-9.14 4.08-1.7-4.49-22.79 1.41c.26-.67.56-1.35.89-2l-4.46-2.12c2.07-4.41 4.2-8.51 5.59-10 .18-.2 1.21-1.1 2.27-2h.36l-.86.6c1.56 4.27 6.29 3.77 8.34 2.58a7.444 7.444 0 0 0 3.72-5.56c.66-.19 1.35-.39 2-.62.65-.23 1.62-.6 2.41-1a12.503 12.503 0 0 1 7.12 3.75c1.51 1.66 2.25 4.88 3 6.91.39.78 1.71 4.32 3.25 8.46Z" fill="#FF90E8" stroke="#000" stroke-width="2" stroke-linecap="round" stroke-linejoin="round"/>
    <path d="M139.62 145.02c-.82 1.34-1.65 2.78-2.35 4.22" stroke="#000" stroke-width="2" stroke-linecap="round" stroke-linejoin="round"/>
    <path d="m155.248 284.15-.24 21.34c-6.8.09-13.43.06-23.48-4.23-5-2.14-9.91-6.68-9.63-11 .28-4.32 5.86-3.93 9.6-2.64a55.443 55.443 0 0 1 7 2.77c3.21 1.57 4.41.9 4.41.9l-.18-8.74c1.24-1.28 2.4-1.4 3.29-.38.47.589.811 1.271 1 2l8.23-.02Z" fill="#000" stroke="#000" stroke-width="2" stroke-linecap="round" stroke-linejoin="round"/>
    <path d="M152.488 282.72v2.17h-9.06a5.823 5.823 0 0 0-1.11-2.17h10.17Z" fill="#FFC900" stroke="#000" stroke-width="2" stroke-linecap="round" stroke-linejoin="round"/>
    <path d="M152.23 132.68a7.443 7.443 0 0 1-3.72 5.56c-2.05 1.19-6.78 1.69-8.34-2.58l.86-.6a56.713 56.713 0 0 0 7.3-1.37c1.15-.3 2.49-.61 3.9-1.01Z" fill="#E2442F" stroke="#000" stroke-width="2" stroke-linecap="round" stroke-linejoin="round"/>
    <path d="M149.499 182.01v17.81l-4.53-1.58.36-6.83.63-12.05 3.54 2.65Zm-8.49-1.23-5.25 1.5a3.75 3.75 0 0 0-2.75 3.42l-.38 7.67 2.43-.37 5.62-.87 4.64-.71.63-12.06-4.94 1.42Zm-2.17 10a.488.488 0 0 1-.492-.579.495.495 0 0 1 .383-.391.501.501 0 0 1 .284.026.497.497 0 0 1 .305.454.471.471 0 0 1-.125.376.47.47 0 0 1-.166.116.47.47 0 0 1-.199.038l.01-.04Z" fill="#F1F333" stroke="#000" stroke-width="2" stroke-linecap="round" stroke-linejoin="round"/>
    <path d="M139.31 190.3a.477.477 0 0 1-.297.443.477.477 0 0 1-.654-.349.48.48 0 1 1 .951-.094Z" stroke="#5000FF" stroke-width="2" stroke-linecap="round" stroke-linejoin="round"/>
    <path d="M139.31 190.3a.477.477 0 0 1-.297.443.477.477 0 0 1-.654-.349.48.48 0 1 1 .951-.094Zm-42.501-46.91h13.05l3.69 24.44h-8.94l-5.77-9.62-2.03-14.82Z" fill="#000" stroke="#000" stroke-width="2" stroke-linecap="round" stroke-linejoin="round"/>
    <path d="m108.398 143.39 3.85 24.44" stroke="#fff" stroke-width="2" stroke-miterlimit="10"/>
    <path d="m113.549 143.67 4.97-5.21m-8.451.99 3.48-6.95m-8.06 5.96.42-6.75m-6.39 7.4-1.78-6.9m-3.598 8.65-4.79-5.44" stroke="#000" stroke-width="2" stroke-linecap="round" stroke-linejoin="round"/>
    <path d="m155.76 188.04-.14 3.32-6.12.73v-3.25l6.26-.8Z" fill="#FFC900" stroke="#000" stroke-width="2" stroke-linecap="round" stroke-linejoin="round"/>
    <path d="m149.5 190.39 2.7-.31" stroke="#000" stroke-width="2" stroke-linecap="round" stroke-linejoin="round"/>
    <path d="M160.349 189.04a.317.317 0 0 1-.33.32.33.33 0 0 1-.229-.567.331.331 0 0 1 .509.061.33.33 0 0 1 .05.186Zm2.359-.21a.318.318 0 0 1-.546.226.32.32 0 1 1 .546-.226v0Z" stroke="#5000FF" stroke-width="2" stroke-miterlimit="10" stroke-linecap="round"/>
    <path d="m170.839 200.3-2.64 4.73a26.559 26.559 0 0 1-6.82-4.8l2.45-2.85 7.01 2.92Z" fill="#98282A" stroke="#000" stroke-width="2" stroke-linecap="round" stroke-linejoin="round"/>
    <path d="M759.058 91.87c-3.16 2.78-8.92 4.5-8.15 5.79a27.675 27.675 0 0 1 5.19 15.83 30.911 30.911 0 0 1-3.49 14.11c-3.19 5.67-9.94 11.19-18.42 14a27.88 27.88 0 0 1-9.52 1.38h-1a47.794 47.794 0 0 1-10.51-2.08 37.82 37.82 0 0 1-3.7-1.37l-.32-.13c-.82-.36-1.61-.74-2.38-1.14-13.77-7.23-19.77-21.57-16.75-34.43 3.46-14.72 14.72-17.28 15.95-19.76.64-1.77-5.61-6.76-5-17.4 1.15-19.09 17.54-28.88 34-27.67 22.92 1.68 31.8 19.56 33.07 27.59 2.05 12.71-5.82 22.5-8.97 25.28Z" fill="#e841e8" stroke="#000" stroke-width="2" stroke-linecap="round" stroke-linejoin="round" filter="url(#a)"/>
    <path d="M732.93 126.95c3 2.77 7.89 2.13 7.89 2.13" stroke="#000" stroke-width="2" stroke-linecap="round" stroke-linejoin="round"/>
    <path d="M740.809 120.91a.78.78 0 1 0 0-1.56.78.78 0 0 0 0 1.56Zm55.37-4.77v6.74l-10.6 21.01-4.42 2.67-19.07.16-1.29-3.52 12.88-27.06h22.5Z" fill="#000" stroke="#000" stroke-width="2" stroke-linecap="round" stroke-linejoin="round"/>
    <path d="m762.789 145.19 16.71-.4" stroke="#fff" stroke-width="2" stroke-linecap="round" stroke-linejoin="round"/>
    <path d="m775.179 120.91-8.39 17.36 14.22.16 7.91-17.52h-13.74Z" fill="#fff" stroke="#fff" stroke-width="2" stroke-miterlimit="10"/>
    <path d="m795.119 120.33-6.84 14.77" stroke="#fff" stroke-width="2" stroke-linecap="round" stroke-linejoin="round"/>
    <path d="M788.55 138.02a23.687 23.687 0 0 1-2.06 7.6c-2.35 5.76-4.36 8.24-4.73 11.71-.41 3.86-.64 17.36-1.56 26.71-.66-3.68-10.53-9.51-17.86-12.18l6-13.12s-3.35-6.78.66-11.07a17.722 17.722 0 0 0 7-1.07 12.531 12.531 0 0 0 3.44-1.81 5.505 5.505 0 0 0 2.48-4.93 6.985 6.985 0 0 0-.58-2.29c-.84-2.11-2.22-4.53-1.52-7 1-2.06 3.21-1.89 5-.68a7.144 7.144 0 0 1 2 2.08 9.872 9.872 0 0 1 1.73 6.05v0Z" fill="#FF90E8" stroke="#000" stroke-width="2" stroke-linecap="round" stroke-linejoin="round"/>
    <path d="M780.2 184.04a45.082 45.082 0 0 1-1.22 7.57c-2 6.59-5.73 15.5-12.87 15-7.14-.5-19.89-12-28.26-20.26-3.81-3.74-6.68-6.81-7.64-7.84-3.06-3.29-12.8-13.29-12.86-18-.06-4.71 1.15-13.23 5.52-16.16a1.849 1.849 0 0 1 1.21-.13c2.07.29 5.67 2.52 8.55 5.9 3.59 4.19 26.5 28.69 26.5 28.69l3.21-7c7.33 2.72 17.2 8.55 17.86 12.23Z" fill="#23A094" stroke="#000" stroke-width="2" stroke-linecap="round" stroke-linejoin="round" filter="url(#a)"/>
    <path d="m737.849 186.3-1.1 57.7c-13.56-2.36-24.32 1.84-30.71 1.22-6-.57-10.87-3.51-17.12-2.89-.43 0-.87.1-1.31.18-4.6.82-9 2.72-13.15 1.25.45-2.27 10.1-48.32 12.24-57.23.71-3 1.58-6.07 2.58-9.23 4.2-13.36 10.75-27.59 18.15-35.85 2.26 4.93 9.43 5.43 16.37 1.93l.28.84a1.85 1.85 0 0 0-1.21.13c-4.37 2.93-5.58 11.5-5.52 16.16.06 4.66 9.8 14.66 12.86 18 .96 1 3.8 4.07 7.64 7.79Z" fill="#e84141" stroke="#000" stroke-width="2" stroke-linecap="round" stroke-linejoin="round" filter="url(#c)"/>
    <path d="M709.419 139.44c-.66.63-1.32 1.31-2 2-7.4 8.26-13.95 22.49-18.15 35.85-11.86 11.09-20.39 26-25.58 37.4-1.52-1.62-7.59-6.14-13.73-6 0-.08.07-.16.11-.25 14.28-32.4 29.84-48 42.21-58.19a79.38 79.38 0 0 1 14.73-9.95c.8-.42 1.5-.73 2.08-1l.33.14Z" fill="#23A094" stroke="#000" stroke-width="2" stroke-linecap="round" stroke-linejoin="round" filter="url(#a)"/>
    <path d="M663.699 214.72c-2 4.29-3.45 8.06-4.46 10.92-.5 1.41-1 3-1.46 4.69a31.554 31.554 0 0 0-3.49-1.17c-1.28-.36-2.65-.7-4-1-1.35-.3-2.72-.52-3.94-.69a23.917 23.917 0 0 0-3.14-.25l.47-1.69a165.376 165.376 0 0 1 6.26-16.73v-.07c6.17-.15 12.24 4.37 13.76 5.99Zm-3.309 33.06c0 3.62-7.1-2.33-7.1-2.33a22.857 22.857 0 0 0 1.37 5.14c1.05 2.68-1.88 1.93-4.51-2 0 .56 0 1.15-.09 1.76-.3 4.15-4.26 3.08-2.93-8.73 0 0-1.54 10.78-3.53 10.24-1.99-.54-.65-8-.34-9.45-.51 1.84-3.67 13.07-3.83 7.19a64.433 64.433 0 0 1 2-16v0l.43-1.56a17.113 17.113 0 0 1 3.69 0c1.265.097 2.524.267 3.77.51a39.56 39.56 0 0 1 4 1c1.126.326 2.231.72 3.31 1.18-1 4-1.7 7.39-1.7 7.39s5.46 2.92 5.46 5.66Z" fill="#FF90E8" stroke="#000" stroke-width="2" stroke-linecap="round" stroke-linejoin="round"/>
    <path d="M649.949 242.24c.215 2.113.282 4.238.2 6.36" stroke="#000" stroke-width="2" stroke-linecap="round" stroke-linejoin="round"/>
    <path d="M645.129 241.58c3-.47 7.1 1.56 7.1 1.56m-3.221-6.62a5.005 5.005 0 0 1-.59 2.09" stroke="#000" stroke-width="2" stroke-linecap="round" stroke-linejoin="round"/>
    <path d="M643.209 227.3h-.15" stroke="#5000FF" stroke-width="2" stroke-linecap="round" stroke-linejoin="round"/>
    <path d="m646.349 227.5-.78 4.54a17.113 17.113 0 0 0-3.69 0l1.33-4.74a24.06 24.06 0 0 1 3.14.2v0Z" fill="#FF90E8" stroke="#000" stroke-width="2" stroke-linecap="round" stroke-linejoin="round"/>
    <path d="m650.288 228.19-.95 4.36a32.957 32.957 0 0 0-3.77-.51l.78-4.54c1.22.17 2.57.4 3.94.69Zm7.491 2.11c-.42 1.46-.81 2.95-1.16 4.36a29.013 29.013 0 0 0-3.31-1.18l1-4.35c1.178.322 2.337.713 3.47 1.17v0Z" fill="#FF90E8" stroke="#000" stroke-width="2" stroke-linecap="round" stroke-linejoin="round"/>
    <path d="m654.289 229.16-1 4.35a39.56 39.56 0 0 0-4-1l.95-4.36c1.4.31 2.77.65 4.05 1.01Z" fill="#FF90E8" stroke="#000" stroke-width="2" stroke-linecap="round" stroke-linejoin="round"/>
    <path d="M776.41 99.75v8.18m11.249-8.18-.96 9.05m13.45-7.52-4.86 8.3m8.301 3 9.15-5.12m-7.041 12.87 11.56-3.38" stroke="#000" stroke-width="2" stroke-linecap="round" stroke-linejoin="round"/>
    <path d="m1173.92 295.05 2.05 28.51h-10.34l-6.7-77.69h11.45l2.88 40.04h38.29l1.35 9.14h-38.98Z" fill="#98282A" stroke="#000" stroke-width="2" stroke-miterlimit="10" stroke-linecap="round"/>
    <path d="M1406.8 285.91v9.14h-193.9l-1.35-9.14h195.25Zm-29.5 37.65h-10.35l-3.53-28.51h10.75l3.13 28.51Z" fill="#98282A" stroke="#000" stroke-width="2" stroke-miterlimit="10" stroke-linecap="round"/>
    <path d="M1362.28 285.91h-189.02l-2.88-40.04h186.94l4.96 40.04Z" fill="#98282A" stroke="#000" stroke-width="2" stroke-miterlimit="10" stroke-linecap="round" filter="url(#a)"/>
    <path d="M1250.47 233.5a13.415 13.415 0 0 1-8.57 5.9c-.3.07-.62.14-.94.19-.32.05-.84.13-1.29.18-2.1.196-4.21.196-6.3 0a7.998 7.998 0 0 1-4.6 1.33 6.44 6.44 0 0 1-2.12-.46 8.146 8.146 0 0 1-3.09-2.4h-1.06c-10.34-.6-13.29-10.61-9.3-17.36-4.17-5.44-2.9-10.83 3.56-14.51-1-7.75 5.27-12.05 10.53-12.34 4.94-.26 6.52 2 8.37 2 .69 0 2.34-1.73 5.12-.93 2.78.8 3.23 1.71 3.92 3.92.44 1.4 3.08.59 5.44 5.74 2.36 5.15-.82 10.7-.72 10.77a17.017 17.017 0 0 1 3.5 6.42c.45 1.988.47 4.05.04 6.044a14.033 14.033 0 0 1-2.49 5.506v0Z" fill="#d5d50b" stroke="#000" stroke-width="2" stroke-linecap="round" stroke-linejoin="round" filter="url(#a)"/>
    <path d="M1231.82 230.97c4.35 4 8.71.12 8.71.12" stroke="#000" stroke-width="2" stroke-linecap="round" stroke-linejoin="round"/>
    <path d="M1231.81 227.13a.601.601 0 0 0 0-1.2.601.601 0 0 0 0 1.2Zm8.6-.15a.601.601 0 0 0 0-1.2.601.601 0 0 0 0 1.2Z" fill="#000" stroke="#000" stroke-width="2" stroke-linecap="round" stroke-linejoin="round"/>
    <path d="M723.8 143.4c-6.94 3.5-14.11 3-16.37-1.93.64-.72 1.3-1.4 2-2a37.63 37.63 0 0 0 3.7 1.37 47.77 47.77 0 0 0 10.51 2.08l.16.48Z" fill="#FF90E8" stroke="#000" stroke-width="2" stroke-linecap="round" stroke-linejoin="round"/>
    <path d="M703.01 392.37h-13.85a30.84 30.84 0 0 1 2-9c9.44 1 11.39 6.21 11.85 9Z" fill="#E2442F" stroke="#000" stroke-width="2" stroke-linecap="round" stroke-linejoin="round"/>
    <path d="M711.509 385.56c-.66.79-1.91 1-3.77 1.58-2.44.77-1.73 2.87-1.65 5.23h-3.08c-.49-2.79-2.44-8-11.9-9 .317-.782.73-1.521 1.23-2.2h19.56c0 .21.05.4.08.59.26 2.06.11 3.14-.47 3.8Z" fill="#E2442F" stroke="#000" stroke-width="2" stroke-linecap="round" stroke-linejoin="round" filter="url(#a)"/>
    <path d="M726.599 392.37h-20.51c-.08-2.36-.791-4.46 1.649-5.23 1.86-.58 3.11-.79 3.77-1.58a31.286 31.286 0 0 0 11.31 3.1c1.42.05 2.451.08 3.211.09l.57 3.62Z" fill="#E2442F" stroke="#000" stroke-width="2" stroke-linecap="round" stroke-linejoin="round"/>
    <path d="M726.008 388.75c-.76 0-1.79 0-3.21-.09a31.286 31.286 0 0 1-11.31-3.1c.58-.66.73-1.74.5-3.8 4.27 3 13.36 2.79 13.36 2.79l.66 4.2Z" fill="#E2442F" stroke="#000" stroke-width="2" stroke-linecap="round" stroke-linejoin="round"/>
    <path d="M727.52 398.3h-38.58a53.864 53.864 0 0 1 .22-5.89h37.44l.92 5.89Z" fill="#fff" stroke="#000" stroke-width="2" stroke-linecap="round" stroke-linejoin="round"/>
    <path d="m654.729 395.31 9.84 13.07h177.77l7.66-13.07h-195.27Z" fill="#000" stroke="#000" stroke-width="2" stroke-linecap="round" stroke-linejoin="round"/>
    <path d="M756.429 359.77a40.207 40.207 0 0 0-37.149 24.822 40.209 40.209 0 1 0 77.359 15.388 40.21 40.21 0 0 0-40.21-40.21v0zm2.08 60.8a20.6 20.6 0 1 1 .002-41.202 20.6 20.6 0 0 1-.002 41.202v0z" fill="#eb1aeb" stroke="#d50b0b" stroke-width="2" stroke-linecap="round" stroke-linejoin="round" filter="url(#c)"/>
    <path d="M806.01 378.95h-28.65l-1.86-73.65-58.3-38.95h-2.42v114.82h-26.77l.94-138.82c6.25-.62 11.15 2.32 17.12 2.89 6.39.62 17.15-3.58 30.71-1.22v4.71s48.49 33.47 56.6 40.12c7.63 6.26 8.63 11.83 9.08 16.4.45 4.57 3.55 73.7 3.55 73.7Z" fill="#000" stroke="#000" stroke-width="2" stroke-linecap="round" stroke-linejoin="round" filter="url(#a)"/>
    <path d="M98.36 155.58a.86.86 0 0 0-.72-1.45c-2 .27-3.74 1.8-6 4.54-2.77 3.41-2.91 5-2.66 7.42a8.43 8.43 0 0 0 6.53 7.49c5.48 1.36 7.39.21 10.3-2.41a12.38 12.38 0 0 0 3.54-4.62c.67-1.85-3.08-1.43-9.45 2.39 2.44-1.82 8.25-5.06 8.36-7.17.11-2.11-3.86.56-6.15 2-2.29 1.44-4.26 2.48-4.42 2.11-.16-.37 7.7-4.61 7.82-7.31.07-1.7-8.39 4.38-8.77 3.9-.26-.33 8.77-5.48 7.52-8.11-.82-1.72-9.68 6-10.44 5.32-.54-.51 2.9-2.46 4.54-4.1Z" fill="#FF7051" stroke="#000" stroke-width="2" stroke-linecap="round" stroke-linejoin="round"/>
    <path d="m145.328 191.41-.36 6.83-4.42.83-5.48 1.02v-7.1l5.62-.86 4.64-.72Z" fill="#F1F333" stroke="#000" stroke-width="2" stroke-linecap="round" stroke-linejoin="round"/>
    <path d="m135.969 200.62.11.03 4.11-.28" stroke="#5000FF" stroke-width="2" stroke-linecap="round" stroke-linejoin="round"/>
    <path d="m158.01 187.77-.09 3.33 5.95-.77 1.19-3.46-7.05.9Zm2.06 1.59a.332.332 0 0 1-.306-.206.34.34 0 0 1-.017-.192.337.337 0 0 1 .093-.169.334.334 0 0 1 .363-.065.331.331 0 0 1 .197.312.324.324 0 0 1-.117.255.32.32 0 0 1-.273.065h.06Zm2.37-.21a.32.32 0 1 1 0-.639.32.32 0 0 1 0 .639v0Z" fill="#FFC900" stroke="#000" stroke-width="2" stroke-linecap="round" stroke-linejoin="round"/>
    <path d="M167.4 177.44a65.582 65.582 0 0 1-2.39 9.43l-7.05.9-2.19.28-6.26.8v-6.83l-3.5-2.66-5 1.42a.41.41 0 0 0 0-.07c.82-4.67 1.25-10.5 0-15.44l22.7-3.36c.26.65.5 1.29.72 1.89 1 2.55 1.72 4.51 2 5.2a13.823 13.823 0 0 1 .97 8.44v0Z" fill="#FF90E8" stroke="#000" stroke-width="2" stroke-linecap="round" stroke-linejoin="round"/>
    <path d="m149.498 199.82-8.97.53-.34.02-4.22.25-.9.05v-.58l5.48-1.02 4.42-.83 4.53 1.58Z" fill="#000" stroke="#000" stroke-width="2" stroke-linecap="round" stroke-linejoin="round"/>
    <path d="m163.708 161.91-22.7 3.39c-.52-2-1.77-3.24-3-4.62a10.646 10.646 0 0 1-2.31-3.76c-.53-1.53-.15-3.51.66-5.61l22.8-1.38 1.7 4.49 2.85 7.49Z" fill="#F1F333" stroke="#000" stroke-width="2" stroke-linecap="round" stroke-linejoin="round"/>
    <path d="m643.68 225.56-.48 1.69-1.32 4.83-.43 1.56v.01l-2.77-.51 1.56-8.38 3.44.8Z" fill="#000" stroke="#000" stroke-width="2" stroke-linecap="round" stroke-linejoin="round"/>
    <path d="M788.809 392.94h-15.42a25.972 25.972 0 0 1 2.21-7.52v0c5.87-.54 13.77 1.17 13.21 7.52Zm25.56-5.45a27.468 27.468 0 0 0-1.39 5.45h-20.59a7.195 7.195 0 0 1 4.29-6 6.825 6.825 0 0 0 2.8-1.91c2.11.61 9.31 2.59 14.89 2.46Z" fill="#E2442F" stroke="#000" stroke-width="2" stroke-linecap="round" stroke-linejoin="round"/>
    <path d="M815.829 384.05a22.913 22.913 0 0 0-1.54 3.42c-5.58.13-12.78-1.85-14.89-2.47.82-1.14.72-2.76-.7-5.64.094-.136.174-.279.24-.43h.13c1.86 3.72 10.41 3.74 16.76 5.12Zm7.261 8.89h-10.08a27.468 27.468 0 0 1 1.39-5.45c.419-1.18.934-2.324 1.54-3.42 3.47.75 6.29 1.92 7 4.32a8.655 8.655 0 0 1 .15 4.55v0Z" fill="#E2442F" stroke="#000" stroke-width="2" stroke-linecap="round" stroke-linejoin="round"/>
    <path d="M799.009 378.95a2.551 2.551 0 0 1-.24.43c-.08.145-.174.282-.28.41a1.291 1.291 0 0 1-.14.19 2.235 2.235 0 0 1-.26.29.51.51 0 0 1-.15.15c-.1.11-.21.211-.33.3a.647.647 0 0 1-.16.13l-.4.28c-.13.093-.267.176-.41.25a3.524 3.524 0 0 1-.48.24c-.136.078-.28.141-.43.19-.179.08-.363.15-.55.21-.2.07-.4.14-.6.19l-.21.06-.54.13c-.23.06-.46.1-.69.14-.23.04-.47.08-.71.11s-.47.07-.71.09c-2.059.178-4.13.178-6.19 0a59.215 59.215 0 0 1-8-1.06 6.67 6.67 0 0 0 .89-2.71l20.59-.02Zm24.08 13.99a7.445 7.445 0 0 1-2.5 4h-47.53c.03-1.339.14-2.675.33-4h49.7Z" fill="#fff" stroke="#000" stroke-width="2" stroke-linecap="round" stroke-linejoin="round"/>
    <path d="M799.479 385.02a6.812 6.812 0 0 1-2.8 1.91 7.2 7.2 0 0 0-4.29 6h-3.58c.56-6.35-7.34-8.06-13.2-7.52.72-1.51 1.44-2.71 2-3.76 2.64.535 5.313.889 8 1.06 2.06.178 4.131.178 6.19 0 .24 0 .47-.05.71-.09.24-.04.47-.06.71-.11s.46-.08.69-.14l.54-.13.21-.06c.2-.05.4-.12.6-.19.188-.06.371-.13.55-.21.15-.049.294-.112.43-.19.166-.068.327-.148.48-.24.143-.074.28-.157.41-.25.142-.081.276-.174.4-.28a.647.647 0 0 0 .16-.13c.122-.087.233-.187.33-.3a.51.51 0 0 0 .15-.15c.095-.089.182-.186.26-.29.053-.059.099-.123.14-.19.113-.123.207-.261.28-.41 1.35 2.95 1.45 4.53.63 5.67Z" fill="#E2442F" stroke="#000" stroke-width="2" stroke-linecap="round" stroke-linejoin="round" filter="url(#a)"/>
    <path d="M1232.47 244.51a16.858 16.858 0 0 0-3.58 4.23c-1.33-1.24-2.8-6.06-2.24-8.09.68.271 1.39.427 2.12.46.29 1.19 1.91 1.66 3.7 3.4Z" fill="#E2442F" stroke="#000" stroke-width="2" stroke-linecap="round" stroke-linejoin="round"/>
    <path d="M1239.68 239.79c-.13 1.14-1.57 2-2.93 4a12.964 12.964 0 0 0-1.81 4.21 12.698 12.698 0 0 0-2.47-3.46c-1.79-1.74-3.4-2.24-3.69-3.41a7.995 7.995 0 0 0 4.6-1.31c2.1.185 4.2.175 6.3-.03v0Z" fill="#F1F333" stroke="#000" stroke-width="2" stroke-linecap="round" stroke-linejoin="round"/>
    <path d="M1241.12 247.16a17.34 17.34 0 0 0-4.37-3.42c1.35-2 2.79-2.83 2.92-4 .45-.05.88-.1 1.29-.18.41-.08.64-.12.94-.19.12.434.2.88.23 1.33.01.057.01.113 0 .17v0c.19 2.28-.25 5.21-1.01 6.29Z" fill="#E2442F" stroke="#000" stroke-width="2" stroke-linecap="round" stroke-linejoin="round"/>
    <path d="M1243.01 262.48h-9.62c-1.56-1.27-3.31-1.39-5.84.36a36.718 36.718 0 0 1-11.4 5.08c-1.46.369-2.98.474-4.48.31-3.74-.52-7.73-2.65-4.54-9.89.49-1.11 1.07-2.28 1.71-3.47 2.53-.72 7.36 0 9.77 2.51-.14.39-.26.77-.38 1.15 3.16-1.9 7.51-3.69 10.56-5.12 4.13-1.93 7.06-2.48 9.85.65.38.432.73.89 1.05 1.37a26.454 26.454 0 0 1 2.08 3.73c.49 1.076.9 2.186 1.24 3.32Z" fill="#F1F333" stroke="#000" stroke-width="2" stroke-linecap="round" stroke-linejoin="round"/>
    <path d="M1218.21 258.53a11.181 11.181 0 0 0-3.64 3.06m22.44-3.47c1.31.62 2 2.69 2.35 4.36m-4.25-3a5.944 5.944 0 0 1 1.68 3" stroke="#000" stroke-width="2" stroke-linecap="round" stroke-linejoin="round"/>
    <path d="M1220.35 253.75a18.212 18.212 0 0 0-1.76 3.63c-2.41-2.51-7.24-3.23-9.77-2.51.74-1.38 1.58-2.79 2.49-4.19 3.96-.15 8.15 2.07 9.04 3.07Z" fill="#E2442F" stroke="#000" stroke-width="2" stroke-linecap="round" stroke-linejoin="round"/>
    <path d="m1254.78 258.3-2.07 4.14h-7.7a7.51 7.51 0 0 1-1.82-4.11c1-.73 1-1.47.36-2.13.37-.803.92-1.506 1.62-2.049.69-.543 1.51-.91 2.38-1.071a4.673 4.673 0 0 1 1.88-.05c1.94.5 4.34.94 5.35 5.27Z" fill="#90A8ED" stroke="#000" stroke-width="2" stroke-linecap="round" stroke-linejoin="round"/>
    <path d="M1250.09 255.8c1.34 1.81 1.32 4.82 1.15 6.68Z" fill="#F1F333"/>
    <path d="M1250.09 255.8c1.34 1.81 1.32 4.82 1.15 6.68m-3.12 0-.21-5.24" stroke="#000" stroke-width="2" stroke-linecap="round" stroke-linejoin="round"/>
    <path d="M1276.12 314.97c-1.13 2.85-8.72 3.75-16.42 3.91-.08-2.796.77-5.538 2.42-7.8l1.13.16c.75.1 1.54.22 2.34.35 2.72.364 5.4.997 8 1.89.94.303 1.81.812 2.53 1.49v0Z" fill="#FF90E8" stroke="#000" stroke-width="2" stroke-linecap="round" stroke-linejoin="round"/>
    <path d="M1262.12 311.08a12.619 12.619 0 0 0-2.42 7.8h-3.3c0-1.56.24-5.82 2.33-8.31l1.54.22 1.85.29Z" fill="#fff" stroke="#000" stroke-width="2" stroke-linecap="round" stroke-linejoin="round"/>
    <path d="M1258.73 310.6c-2.09 2.49-2.32 6.75-2.33 8.31-1.75 0-3.45 0-5-.09-.7-2.41-2.37-5.17-5.91-5.56l1.09-4.47 7.55 1.12 4.6.69Zm-25.36-48.12h-.9V266c-1.94.47-3.16 1.75-5.52 4.08-2.54 2.52-6 6.78-9 9.1a13.873 13.873 0 0 1-2.11-5.438c-.3-1.942-.19-3.928.34-5.822a36.718 36.718 0 0 0 11.4-5.08c2.48-1.75 4.23-1.63 5.79-.36Z" fill="#FF90E8" stroke="#000" stroke-width="2" stroke-linecap="round" stroke-linejoin="round"/>
    <path d="M1276.42 317.19c-2 3-5.2 4.67-8.89 5.55-10.26 2.45-24.06-1.4-24.06-1.4l.7-2.88c1.61.1 4.18.26 7.18.36 1.59.05 3.29.08 5 .09h3.3c7.7-.16 15.29-1.06 16.42-3.91.3.272.49.636.56 1.034.06.398-.01.805-.21 1.156Z" fill="#fff" stroke="#000" stroke-width="2" stroke-linecap="round" stroke-linejoin="round"/>
    <path d="M1251.35 318.82c-3-.1-5.57-.26-7.18-.36l1.27-5.2c3.57.39 5.21 3.15 5.91 5.56Z" fill="#fff" stroke="#000" stroke-width="2" stroke-linecap="round" stroke-linejoin="round"/>
    <path d="M1269.68 278.78c-.08.69-.18 1.39-.29 2.11-1.59 9.7-6.34 21.83-6.81 23-2-1.58-7.45 1.54-8.5 6l-7.55-1.12 6.66-27.26c-7.27 2.56-14.13 5.16-27.42 3.21a12.379 12.379 0 0 1-7.87-5.56c3.07-2.32 6.51-6.58 9-9.1 2.36-2.33 3.58-3.61 5.52-4.08a10.85 10.85 0 0 1 3.58-.14l28 2.45c.4.108.79.259 1.16.45.41.21.81.454 1.19.73 1.85 1.34 3.94 4.04 3.33 9.31Z" fill="#90A8ED" stroke="#000" stroke-width="2" stroke-linecap="round" stroke-linejoin="round" filter="url(#a)"/>
    <path d="M1262.58 303.91v.1" stroke="#5000FF" stroke-width="2" stroke-linecap="round" stroke-linejoin="round"/>
    <path d="m1263.25 311.24-1.13-.16-1.85-.26-1.54-.22-4.65-.69c1-4.46 6.49-7.58 8.5-6 .36.286.6.696.68 1.15.28 2.051.27 4.13-.01 6.18v0Z" fill="#fff" stroke="#000" stroke-width="2" stroke-linecap="round" stroke-linejoin="round"/>
    <path d="M1286.34 296.94a91.848 91.848 0 0 1-3.62 8.74 3.946 3.946 0 0 0-2.4-.91c-3.14-.27-5.62 4-6.45 7.39l-8.27-.57 9.29-33.69a56.766 56.766 0 0 1-5.49 3c.11-.72.21-1.42.29-2.11.61-5.27-1.48-8-3.28-9.29-.38-.276-.77-.52-1.19-.73 5.5-.29 14.13-.94 19.1 0 1.13.135 2.22.54 3.17 1.18 4.64 3.77 3.05 15.73-1.15 26.99Z" fill="#90A8ED" stroke="#000" stroke-width="2" stroke-linecap="round" stroke-linejoin="round"/>
    <path d="m1284.01 312.89-1.82-.14-4.77-.34-3.59-.25c.83-3.35 3.31-7.66 6.45-7.39.88.027 1.72.347 2.4.91 1.47 1.24 1.65 3.73 1.33 7.21Z" fill="#fff" stroke="#000" stroke-width="2" stroke-linecap="round" stroke-linejoin="round"/>
    <path d="M1277.46 312.41a14.04 14.04 0 0 0-.82 3.5c-.09-.355-.27-.68-.52-.94a6.666 6.666 0 0 0-2.49-1.49 41.627 41.627 0 0 0-8-1.89l8.27.57 3.56.25Zm9.72 8.47-9 .16c.41-1.52 1.76-6.08 4-8.29l1.82.14c1.89.15 3.42.28 4.23.37 4.27.46 2.95 4.7-1.05 7.62Z" fill="#FF90E8" stroke="#000" stroke-width="2" stroke-linecap="round" stroke-linejoin="round"/>
    <path d="M1287.18 320.88a14.515 14.515 0 0 1-3.87 2c-2.94 1-10.23 1.89-15.78-.17 1.52-.345 2.98-.879 4.37-1.59l3.06-.05 3.24-.06 8.98-.13Z" fill="#fff" stroke="#000" stroke-width="2" stroke-linecap="round" stroke-linejoin="round"/>
    <path d="M1276.45 317.13a8.042 8.042 0 0 1-1.49 4l-3.06.05a11.856 11.856 0 0 0 4.52-4l.03-.05Z" fill="#FF90E8" stroke="#000" stroke-width="2" stroke-linecap="round" stroke-linejoin="round"/>
    <path d="M1282.23 312.75c-2.27 2.21-3.62 6.77-4 8.29l-3.24.06a8.042 8.042 0 0 0 1.49-4c.21-.371.27-.804.19-1.22.12-1.197.4-2.373.82-3.5l4.74.37Z" fill="#fff" stroke="#000" stroke-width="2" stroke-linecap="round" stroke-linejoin="round"/>
    <path d="M1247.54 253.12c-.87.161-1.69.528-2.38 1.071a5.492 5.492 0 0 0-1.62 2.049c-.86-1-3-1.82-4.94-2.18-2.79-3.13-5.72-2.58-9.85-.65-3 1.43-7.4 3.22-10.56 5.12.12-.38.24-.76.38-1.15.45-1.27 1.04-2.488 1.76-3.63-.89-1-5.08-3.22-9-3.07 3.25-5.05 7.38-10 11.19-12.46h1.06a8.146 8.146 0 0 0 3.09 2.4c-.56 2 .91 6.85 2.24 8.09a16.858 16.858 0 0 1 3.58-4.23 12.594 12.594 0 0 1 2.48 3.45c.35-1.502.95-2.93 1.8-4.22 1.63.899 3.1 2.054 4.37 3.42.76-1.08 1.2-4 1-6.25v-.17c3.26 4.15 5.12 11.11 5.4 12.41Z" fill="#FF90E8" stroke="#000" stroke-width="2" stroke-linecap="round" stroke-linejoin="round"/>
    <path d="M1220.35 253.75a19.557 19.557 0 0 1 5.42-5.55Z" fill="#FF90E8"/>
    <path d="M1220.35 253.75a19.557 19.557 0 0 1 5.42-5.55" stroke="#000" stroke-width="2" stroke-linecap="round" stroke-linejoin="round"/>
    <path d="M1243.56 256.24c-.2.464-.32.957-.36 1.46-.02.223-.02.447 0 .67-.45.322-.94.587-1.45.79a26.454 26.454 0 0 0-2.08-3.73c-.32-.48-.67-.938-1.05-1.37 1.95.36 4.08 1.18 4.94 2.18Z" fill="#90A8ED" stroke="#000" stroke-width="2" stroke-linecap="round" stroke-linejoin="round"/>
    <path d="m1268.69 243.87-10.74 22.83" stroke="#000" stroke-width="2" stroke-linecap="round" stroke-linejoin="round"/>
    <path d="m1295.51 243.49-10 25.07s-.41.07-1.16.16c-5-.9-13.6-.25-19.1 0-.4-.187-.81-.328-1.24-.42l-28-2.45a8.002 8.002 0 0 0-4 .59v-4h20.66l2.07-4.14 8-16h31.93c.14 0 .28.034.41.099.13.066.24.161.32.278.08.116.13.251.15.393.02.141.01.285-.04.42v0Z" fill="#000" stroke="#000" stroke-width="2" stroke-linecap="round" stroke-linejoin="round"/>
    <path d="m1269.54 244.11-10.64 22.95s19.81 0 25.24.5c1.78-4.79 7.7-19.91 9-23.1a.487.487 0 0 0 .02-.208.364.364 0 0 0-.08-.195.378.378 0 0 0-.16-.134.401.401 0 0 0-.2-.043l-23.18.23Z" fill="#fff" stroke="#fff" stroke-width="2" stroke-miterlimit="10" filter="url(#d)"/>
    <path d="m1314.94 345.99 101.08 115.55m-7.76.6-98.57-116.15m-435.561.29 97.83 115.48m-107.15-115.48 97.83 115.48m-552.24.39-99.28-116.16m92.109 116.16-97.33-116.16" stroke="#000" stroke-width="2" stroke-miterlimit="10" stroke-linecap="round"/>
    <path d="M534.01 134.2h-70.54a26.43 26.43 0 0 1-18.709-7.737 26.44 26.44 0 0 1-7.751-18.703 26.427 26.427 0 0 1 7.744-18.716A26.43 26.43 0 0 1 463.47 81.3h70.54a26.442 26.442 0 0 1 26.44 26.44l116.07 6.74c.16 0 .16.26 0 .26-18.27.42-109.95 2.51-118 2.87a26.46 26.46 0 0 1-24.51 16.59Z" fill="#fff" stroke="#000" stroke-width="2" stroke-miterlimit="10" filter="url(#c)"/>
    <path d="M473.559 114.51a47.97 47.97 0 0 1 .64-8.94c2.29 2.88 9.06 8.94 9.06 8.94l.3-10.43m13.039 0-7.2.63-1 10.41 7.42-.62m-6.888-4.9h6.77m4.509 5.92s1.72-7.63 5.73-10.72c2.67.87 1.72 10.72 1.72 10.72m-5.94-4.57 6.1-.42m3.931-4.61 10-1.13m-4.512.51v9.82m9.09-11.95-.25 6.99m-.359 5.22a.61.61 0 1 0 0-1.22.61.61 0 0 0 0 1.22Z" stroke="#000" stroke-width="2" stroke-linecap="round" stroke-linejoin="round"/>
    <path d="M1373.17 285.91h-10.89l-4.96-40.04h11.44l4.41 40.04Z" fill="#98282A" stroke="#000" stroke-width="2" stroke-miterlimit="10" stroke-linecap="round"/>
    <path d="m1183.08 322.8 2.83-7.61m-6.63 7.86 1.56-14.66m-15.23 14.94-7.63-11.14m7.29 7.3-5.18-12.2m205.15 21.38-4.78-6.33m5.88 3.16-4.05-11.7m18.25 9.13 3.76-12.66m-7.28 10.74 2.35-11.33m-292 34.87 4.34-8.82m-6.21-7.52-2.48 17.47m-7.08-23.34 3.52 23.34m-9.69-9.04 6.17 8.86m270.93 105.73-7.54 12.38m0-28.31-3.51 25.44m-8.66-14.92 3.08 17.05m-1042.001-8.81-8.01 17.94m0-36.9-.51 22.33m-10.629-14.95 6.36 24.11m363.189-137.87-8.02 17.94m0-36.9-.51 22.33m-10.621-14.95 6.36 24.11m842.462 8.31 8.49-19.74m-13.4 15.75 4.19-26.6m-8.38 24.04-3.58-24.55m-1078.681 10.5-12.09 17.03m-2.771-23.07-1.51 23.07m-16.119-35.47 10.95 35.47M68.668 249.65l-7.68 16.92m-4.618-26.08v21.02m-13.34-20.06 6.19 23.28m20.3-187.77 5.22 8.95m-15.742 6.57-2.76 8.88m-4.099-12.99v11.42m-7.689-9.18 4.33 12.69m1395.21 104.68-9.86 11.81m1.16-19.89-5.54 20.14m-5.39-16.6v16.72m-13.01-.94.2-.24 5.5-6.68m-13.58-12.94 7.19 19.17m-16.01-11 14.35 10.76m-195.55-81.88-4.04 19.19m-5.88-9.35 3.07 8.95m-12.73-16.95 6.54 15.77m-17.39-19.98 6.46 19.49m-12.7-.14-4.03-20.98m-9.09-3.11 12.65 24.23m-210.072-37.14-.57 5.17m-6.399-11.4-.96 8.81m-4.649-11.6v9.74m-25.471-19.06 1.471 7.43" stroke="#000" stroke-width="2" stroke-miterlimit="10" stroke-linecap="round"/>
    <path d="M352.969 258.5h7.21l6.77-97.01h-6.99l-6.99 97.01Zm3.65 0 7.11-97.01m-33.139 97.46-.67-107h-6.53l-.89 104.67 4.04 2.33h4.05Zm-4.051-107v107M366.478 188h-25.15m16.511 2.9h-15.45m-21.36-5.3h19.38m-10.03-2.53h9.86m-5.18 65.31 4.71 9.19m5.911-12.84-4.34 11.6m7.19-5.79c-.31 0-6.28 6.79-6.28 6.79m-.922-.45v-81.34m.961 1.19c2.6-4.86 4.13-9.06 7.11-11.41 2.98-2.35 9.29-9.12 17.2-20.87a165.476 165.476 0 0 0 19.09-36.41c4.61-11.7 5.39-17.37 5.39-17.37m-49.069 84.87s.84-7.72 3.07-12.07c4.71-9.2 12.13-19.95 16.05-29.77s9.88-23.3 14.04-53.4m-33.842 19.02v82.01M330.589 80.3c-6.24 35.25 5.67 83 11.41 97.13" stroke="#000" stroke-width="2" stroke-linecap="round" stroke-linejoin="round"/>
    <path d="M292.828 102.91c7.1 43.84 41.63 65.37 47.58 76" stroke="#000" stroke-width="2" stroke-linecap="round" stroke-linejoin="round"/>
    <path d="M286.229 123.4c2.59 10.62 2 14.16 7.95 21 8.63 9.94 27.41 19.47 37.54 24.53" stroke="#000" stroke-width="2" stroke-linecap="round" stroke-linejoin="round"/>
    <path d="M287.529 131.22c-1.53-.81-2.48-1.23-2.85-1.16-.37.07.42 2.36-1.38 4.49a7.702 7.702 0 0 0-1.8 3.85c-.25.43-1.82.59-2.43-.85-.75-1.78-1.23-5.71.92-8s4.16-1.93 4.91-1.32a15.5 15.5 0 0 0 2.21.67l.42 2.32Zm2.94 7c1.24-1.87 2.58-3.31 5.27-3.34a4.927 4.927 0 0 1 5 3.47 7.002 7.002 0 0 1 0 3.59c-.16.48-.92.76-1.62 0a3.578 3.578 0 0 0-2.53-1.24 10.576 10.576 0 0 1-3.62-2.05c-.56-.38-1.29 1.12-1.29 1.12l-1.21-1.55Zm24.181 12.9c-3.18-1.34-9.86-2.49-12.44-2.75-1.71-.17-1.15-3.71 4.74-2.5 5.89 1.21 6.09 2.5 6.09 2.5l1.61 2.75Zm-6.801-10.07c1-2.39 3.89-1.14 5-.69 1.11.45 4 1.64 4.57 0 .57-1.64-1-3.68-2.49-4.13a12.559 12.559 0 0 0-6.25.64 3.219 3.219 0 0 0-1.87 1.8l1.04 2.38Zm-2.951-5.87c0-1.31.3-4 .3-4s3.77 1.88 6.92.5c2.86-1.25.14-4.2-4.28-4.05-4.42.15-4.45 1.49-4.53 2-.08.51-.15 2.79-.15 2.79l1.74 2.76Zm-6.679-13.7c0-.16.31-2.44 1-2.94a11.788 11.788 0 0 1 6.13-.86c2.84.25 3.79 2.83 3.77 4.94-.02 2.11-.69 3-1.83 2.31-1.14-.69-3.42-3.75-6.57-4.06a13.677 13.677 0 0 0-1 3.88 15.934 15.934 0 0 1-1.5-3.27v0Zm-.509 1c-2.46-1.69-7-3-8.38.13-.33.78 0 2.71 1.34 2.54 1.34-.17 2.83-1.62 4.68-1.45 1.85.17 3.66 2.25 3.66 2.25l-1.3-3.47Zm-.32-4.18c.85-2.86 1.26-3.5 1.83-3.56.57-.06 5.36.35 7.09-.53 1.73-.88-.39-2.45-2.14-2.6-1.75-.15-4.29-.15-5.77 1.11a5.999 5.999 0 0 0-1.81 3.23l.8 2.35Zm-1.771-6.1s4.56-2 4.32-3.45c-.24-1.45-2.51-.9-4.93.79l-.12 1.19.73 1.47Zm-1.889-2.84c-1.92-1.09-4.81-1.56-5.81-.73-1 .83 1.52 2.39 3.56 2.71 2.04.32 2.82.49 2.82.49l-.57-2.47Zm35.909 12.94c-1.54-2.11-3.39-3.71-5.22-3.61-1.83.1 0 3.29 1.86 4.4a4.01 4.01 0 0 0 3.36.48v-1.27Zm.64-.92c1.53-2.28 1.69-5.1 2.89-6.18 1.2-1.08 3.36-.93 2.07 2.1-1 2.33-3.41 6.57-4.51 6.22-1.1-.35-.45-2.14-.45-2.14Zm-1.6-21.15a4.56 4.56 0 0 0-5.21-.9 7.521 7.521 0 0 0-4.31 6.69c-.17 2.48 4.4 1.75 5.67-.21a12.43 12.43 0 0 0 1.84-4.61l1.62 1.58.39-2.55Zm.96-4.65a8.452 8.452 0 0 1 2.83-2.79c-.36 2.61.72 6.64 2.12 6.64 1.4 0 1.95-2.18 1.88-4.39-.07-2.21.16-4.63-2.24-5.17-2.4-.54-3.13 2.34-4.75 3.8l.16 1.91Zm-.16-9.41a4.004 4.004 0 0 0-4-.92c-2.6.56-3.26 5.13-2.83 7.21.43 2.08 2.06 1 2.83-.67s1.48-3.39 3.82-3l.18-2.62Zm11.231 50.62s-2.07-2.37-2.91-2.58c-.84-.21-2.25.46-1.44 1.82a6.481 6.481 0 0 0 4.23 3.19c.06-.78.12-2.43.12-2.43Zm1.189-2.14c1.88-2.3 3.48-3 4.83-3.17 2.49-.22 4.29 1.44 5 .2s-1-3.46-3.19-3.64c-2.19-.18-5.39 2.67-6.41 3.66l-.34 2 .11.95Zm.24 3.73 2.4-.72s-1.11 2.65 0 4.13 2.07 2.48 3.58 2.13c1.51-.35 1.39-2.58 1-3.59-.39-1.01-.66-4.31-2.36-4.67-1.7-.36-3.19.58-4.8.68l.18 2.04Zm-1.46-14.03c-1.85-1.31-2.72-.81-4.91.17-2.19.98-1.35-3.35-.5-4.34.85-.99 3.169-1.29 5.539.19l-.129 3.98Zm1.18-6.85c1.65-1.76 3.27-2.71 5.16-2.27 1.89.44 4.13 5.07 4.11 6.47-.02 1.4-1.46 1-2.63.11a3.349 3.349 0 0 0-4-.55 5.302 5.302 0 0 0-2.71 2.28l.07-6.04Zm-1.009-11.39c-2.56-1.31-4.5-2.14-5.66-1.29-1.16.85.22 3.21 2.59 3.78 2.37.57 3.32-.26 3.32-.26l-.25-2.23Zm1.02-3.81c2-1.76 3.31-2.34 4.46-2.22 1.15.12 1.46 1.9.14 3.66a29.29 29.29 0 0 1-4.6 4.38c-.43.29-.35-3-.35-3.11 0-.11.35-2.71.35-2.71Zm21.579 24.17c-1.07-1-5.74-3.78-7.78-3.7-2.04.08.32 3.65 2.38 4.64 2.06.99 3.76 1.53 4.86 1.21 1.1-.32.54-2.15.54-2.15Zm8.56.71c.2-1.23-2.2-1.51-4.08-1.44-1.88.07-3.81.31-3.81.31l-.66 2.66c1.804.283 3.638.314 5.45.09 2.15-.43 2.96-.6 3.1-1.62Zm-3.33-14.67c-.27-1-2.28-5.1-3.29-5.33-1.01-.23-3.51 1.79-4.61 3.93-1.1 2.14-3 5.49-1.85 6.27 1.15.78 3.63-.32 5-3.08a20.551 20.551 0 0 0 1.56-3.67l2.34 3.31.85-1.43Zm1.33-3.38c2.25-1.66 2.66-2.4 4.66-2.4s5.71-.26 7.34 3.51c.47 1.25-2.08 2.29-4.66 1.56s-4.16-2.06-5.61-2c-1.45.06-2.38 2.19-2.38 2.19l.65-2.86Zm3.15-19.12s-3-3.14-4.71-3.47c-1.71-.33-6.27 8.38-5.4 10.75.87 2.37 5.94.07 6.47-3.94a31.73 31.73 0 0 0 .4-3.74s2.41 1.1 3 2.27c.48-.23.24-1.87.24-1.87Zm.38 4.88a23.987 23.987 0 0 1 4.4-1.7c.05 2.08-.3 7.27 2.29 8.69s3.73 1.17 3.44-2.86c-.29-4.03-2.05-7.2-3.87-7.94-1-.41-6.15 1.87-6.15 1.87l-.11 1.94Zm1.17-7.37c2.28-1.39 4.18-2.7 5.21-2 1.03.7-1.15 4-2.61 5a3.001 3.001 0 0 1-3.27.28l.67-3.28Zm-12.089 56.16c-1.54 0-2.43 1.93-1.3 3.6.446.737.991 1.41 1.62 2l1.37-2.45s-.5-2.97-1.69-3.15Zm.8 6.03c2.47.81 2.28 2.3 5.55 2.15 3.27-.15 3.82-1.06 3.72-2.15-.1-1.09-1.27-2-3.21-2.35-1.94-.35-3.76.13-4-.19-.24-.32-2.06 2.54-2.06 2.54Zm5.069-7.3s6.84-.94 7.35-.94c.43-.81 1.72-1 4.34.94a12.4 12.4 0 0 1 4.66 7.32c.59 2.7-3.86.62-5.15-1.1-1.29-1.72-2.77-5.06-3.69-5.39-.92-.33-8.86 1.11-8.86 1.11l1.35-1.94Zm5.93-11.06a8.36 8.36 0 0 0-4.72-.45 3.648 3.648 0 0 0-2.24 2.41c-.06.91 1 1.4 1.95.93a3.165 3.165 0 0 0 1.29-1.85 4.59 4.59 0 0 1 2.64.43l1.08-1.47Zm1.159.06s2.3 0 3.69-.1c1.39-.1 2.42-.08 3.64 1.93 1.22 2.01 1.92 3.53 2 4.71.08 1.18-1.51 1.1-2.83-.8-1.32-1.9-1.28-4-2.32-4.17-1.04-.17-4.85-.12-4.85-.12l.67-1.45Zm4.31-11.02c-1.65-4.17-2.41-5.78-3.83-6.3-1.42-.52-1.72 3.1-.32 5.24s1.93 3.73 3.11 3.44c1.18-.29 1.04-2.38 1.04-2.38Zm.952.47c2.56-.42 7.3-2 9.57-1.23 2.27.77-1.66 3.65-5.52 3.65h-5.37l1.32-2.42Zm4.958-14.56c-1-1.6-2.66-2.36-3.71-1.48-1.05.88 2.3 2.74 2.32 4.55.6-.32 1.39-3.07 1.39-3.07Zm1.111-.75c2.78-2.07 8.56-4.38 14.13-1.29 1.26.68 1.22 2.07-3.06 2.14a16.787 16.787 0 0 0-13.62 6.66c1.19-4.04 2.55-7.51 2.55-7.51Z" fill="#000" stroke="#000" stroke-width="2" stroke-linecap="round" stroke-linejoin="round"/>
    <path d="M1137.13 159.62v-49.46H976.549v18.2l-146.86.12a.117.117 0 0 0-.085.115c0 .026.008.051.023.072.016.02.037.036.062.043l146.86 7.59v23.31l160.581.01Z" fill="#fff" stroke="#000" stroke-width="2" stroke-miterlimit="10" filter="url(#c)"/>
    <path d="m1016.61 135.01 6.78-.12m43.63 1.75 6.72-.4m16-1.31 5.91-.04m-94.5 4.83.76-8.55 9.04 8.55.49-10.51m12.68 0-6.97.94-1.17 10.65 7.47-1.08m5.19-9.12s1 7.86 2.68 8.75c1.06-1.61 3.51-6.74 3.51-6.74l3.68 7.11 2.9-10m18.79-.01c-5.4-.67-8.39 4.13-1.06 5.18 5.86.84 1.68 8.42-6.3 3.91m12.79 1.86s2.64-9.32 6-10.71c3.17 2.21 1.93 10.71 1.93 10.71m4.85-10.52s-1.54 8.06-.2 9.58a41.87 41.87 0 0 0 6.35-.79m12.63-9.29-6.77.5-1.49 10.52 7.16-.94m6.42-11.45-.6 7.36m0 5.39a.801.801 0 0 0 0-1.6.801.801 0 0 0 0 1.6Z" stroke="#000" stroke-width="2" stroke-linecap="round" stroke-linejoin="round"/>
    <path d="M1324.01 212.01h-18.57l-21.28 23.46a.236.236 0 0 1-.16.097.257.257 0 0 1-.18-.042.236.236 0 0 1-.09-.156.229.229 0 0 1 .04-.179l12.38-23.18h-18.89V175.5h46.75v36.51Z" fill="#fff" stroke="#000" stroke-width="2" stroke-miterlimit="10" filter="url(#e)"/>
    <path d="M1300.003 181.732v23.84m-4.063-24.172v23.69m8.898-19.305c-4.032-3.092-8.784-2.088-10.815-.633-2.031 1.456-3.305 4.521-.078 6.69 3.226 2.17 10.707-.903 12.089 3.563 1.688 5.515-4.386 8.915-12.66 3.797" stroke="#d5d50b" stroke-width="2" stroke-linecap="round" stroke-linejoin="round"/>
    <path d="M1165.272 115.3h-18.57l-21.28 23.46a.233.233 0 0 1-.15.073.233.233 0 0 1-.16-.041.262.262 0 0 1-.1-.136.239.239 0 0 1 .02-.166l12.38-23.19h-18.89V78.78h46.75v36.52z" fill="#fff" stroke="#000" stroke-width="2" stroke-miterlimit="10" filter="url(#e)"/>
    <path d="M1143.18 83.108v23.83m-5.006-23.21v23.69" stroke="#d5d50b" stroke-width="2" stroke-linecap="round" stroke-linejoin="round"/>
    <path d="M1146.879 89.718c-4.568-2.593-9.952-1.749-12.253-.525-2.301 1.224-3.737 3.802-.082 5.626 3.656 1.825 12.13-.76 13.696 2.996 1.913 4.638-4.969 7.496-14.343 3.193" stroke="#ebeb1a" stroke-width="2" stroke-linecap="round" stroke-linejoin="round"/>
    <path d="M33.01 109.66h18.57l21.27 23.46c.04.041.092.068.15.073a.237.237 0 0 0 .256-.177.24.24 0 0 0-.016-.166l-12.38-23.19h18.89V73.15H33.01v36.51Z" fill="#fff" stroke="#000" stroke-width="2" stroke-miterlimit="10" filter="url(#e)"/>
    <path d="M59.719 78.44v23.83m-6.92-23.22v23.69m12.629-19.09c-6.71-3.41-14.62-2.3-18-.69-3.38 1.61-5.5 5-.13 7.4 5.37 2.4 17.83-1 20.12 3.94 2.81 6.09-7.29 9.85-21.07 4.2" stroke="#d5d50b" stroke-width="2" stroke-linecap="round" stroke-linejoin="round"/>
    <path d="M1280.68 145.3c15.52 1.84 20.15 1.84 24.3-2.89 6.17 6 19.47 6.37 26.42 1.35 5.88 6 11.95 8.49 21.89 7.43m-71.39-16.02c16.87 2.74 21.07 1.19 25.17-2.37 6 5.93 13.69 7.94 28.47.36a16.286 16.286 0 0 0 17.99 6.217c2.17-.65 4.18-1.745 5.91-3.217 8.3 7.48 16 6 22.53 3.91m-97.33-11.84c11.46 1.78 18.28.7 27.07-5.82 4 7.8 15.61 9.28 30 1.58 4.84 12.35 22 3 24.69 1.75 2.87 6.94 13.24 4.87 20.16 2 7.11 6.82 15.51 2.87 21.83 1.58 9 4.84 18-1.18 18-1.18m-12.73-41.24c4 0 9.69-4.57 9.69-4.57s5 7.27 17.51 0c4.85 5.87 10.42 3.85 15.67-.84 4.94 5.44 10.45 6.88 17 0a13.878 13.878 0 0 0 12.19 5.94M1245.01 74.9h5.44c3.43 0 12.24-4.15 12.24-4.15 0 5.23 10.66 6.44 21.61-.36 1.22 9.09 18.68.43 18.68.43-.86 6.3 11.31 3.51 16.82.29 2.65 5.87 17.18 1.63 17.18 1.63" stroke="#000" stroke-width="2" stroke-linecap="round" stroke-linejoin="round"/>
    <path d="M442.598 59.19c-.16-2.87 2-6.13 7.17-5 1.83-3.7 4.35-3.26 6.38-2.35 1-2.91 4.05-5 7.6-3.56 2-3.89 6.66-3.77 9.69-2.14 2.63-2.75 6.69-2.07 9 .24 1.91-2.91 7.09-2.67 9.32-.2 2.27-2.71 7.57-2.63 10.12-.83 2.27-1.64 7-1.32 8.37.24a8.882 8.882 0 0 1 10.92-.44c2-2.55 7.49-2.47 10-.2 3.3-3.39 8.17-.56 8.44.12 5.5-3.67 8.65-1.24 9.61 0 4.3-2.55 7.53-1.91 9.2-.08a7.48 7.48 0 0 1 9.6 0c3.83-3.15 8-1.52 10.4 0 3.19-2.79 7.1-3.31 10.52 0 3.55-3.59 8.89-2.35 10.28-.08a9.833 9.833 0 0 1 12 .32c4.7-3.83 8.13-.36 8.72.55 1.64-3.18 7-2.11 7.69-.07 2.51-3.55 7.37-.24 7.85 1.07 3.43-2.07 7.53.12 7.45 3.11 3.51-2 7.61.64 7.22 3 5.46-.48 6.21 2.27 6.29 3.5 3.79-.47 3.91 2.44 3.91 2.44l-217.75.36ZM1 59l94.41-.08s-.12-2.91-3.9-2.44c-.08-1.23-.84-4-6.3-3.5.4-2.35-3.71-5-7.21-3 .08-3-4-5.18-7.45-3.11-.48-1.31-5.34-4.62-7.85-1.07-.72-2-6.06-3.11-7.69.07-.6-.91-4-4.38-8.73-.55a9.82 9.82 0 0 0-12-.32c-1.4-2.27-6.74-3.51-10.28.08-3.43-3.35-7.33-2.83-10.52 0-2.47-1.59-6.61-3.22-10.47-.07-.72-.58-.85-1.19-2.01-1.51V59Z" fill="#000" stroke="#000" stroke-width="2" stroke-miterlimit="10" filter="url(#a)"/>
    <path d="M341.528 1.69h-103.54v57.5h103.54V1.69Z" stroke="#000" stroke-width="2" stroke-miterlimit="10"/>
    <path d="M242.208 1.69h-4.22v57.5h4.22V1.69Zm94.262 0h-4.22v57.5h4.22V1.69Z" fill="#000" stroke="#000" stroke-width="2" stroke-miterlimit="10"/>
    <path d="M247.398 1.69v57.5M262.059 1.7v45.6a17.547 17.547 0 0 0 16.61 0V1.7h-16.61Zm45.951-.01v40.45m-11.272.47 11.27-30.65 11.52 31.69-22.79-1.04Z" stroke="#000" stroke-width="2" stroke-miterlimit="10"/>
    <path d="M317.059 40.68h-19.19a4.838 4.838 0 0 0-4.84 4.835 4.838 4.838 0 0 0 4.84 4.835h19.19a4.838 4.838 0 0 0 4.84-4.835 4.838 4.838 0 0 0-4.84-4.835Z" fill="#000" stroke="#000" stroke-width="2" stroke-miterlimit="10"/>
    <path d="M385.469 51.45h-25.99v2.89h25.99v-2.89Zm-4.77 2.89h-21.22v4.85h21.22v-4.85Z" stroke="#000" stroke-width="2" stroke-miterlimit="10"/>
    <path d="m359.469 51.45-17.94-37.4h18.86l18.95 37.4" fill="#FFC900"/>
    <path d="m359.469 51.45-17.94-37.4h18.86l18.95 37.4" stroke="#000" stroke-width="2" stroke-linecap="round" stroke-linejoin="round"/>
    <path d="M361.27 1h-8.75v13.55h8.75V1Z" fill="#000" stroke="#000" stroke-width="2" stroke-miterlimit="10"/>
    <path d="M360.42 2.66h-4.49v10.48h4.49V2.66Z" fill="#fff" stroke="#000" stroke-width="2" stroke-miterlimit="10"/>
    <path d="m191.01 263.98-7 4.24a5.677 5.677 0 0 0-3.17 0c-4.55-6.94-12.62-19.26-14.35-22.1a20.324 20.324 0 0 1-3.07-7.14c-.47-1.76-7.15-30.6-7.15-30.6l-1 73.83h-9.26c-.89-1-2.05-.9-3.29.38l-.38-18.13s-1.82-54.77-1.82-61.23v-2.85l9-.53v-7.73l6.12-.73.14-3.31 2.19-.28-.09 3.33 5.95-.77c-1.27 3.54-2.37 6-2.37 6l2.38 1-2.45 2.85a26.542 26.542 0 0 0 6.82 4.8l2.64-4.73.57.24s5.38 23 5.69 24.2c.31 1.2 3.76 15.28 3.91 15.87.15.59 7.25 17 9.99 23.39Z" fill="#eb1aeb" stroke="#000" stroke-width="2" stroke-linecap="round" stroke-linejoin="round" filter="url(#a)"/>
    <path d="M161.38 200.2a14.86 14.86 0 0 1-2.45-3.19Z" fill="#FF90E8"/>
    <path d="M161.38 200.2a14.86 14.86 0 0 1-2.45-3.19m-2.68 11.34-4.73-2.79" stroke="#000" stroke-width="2" stroke-linecap="round" stroke-linejoin="round"/>
    <path d="M724.059 243.44v10.38s55.65 36.37 60.48 39.92c5.63 4.15 4.57 8.24 4.76 17.68l2.51 67.53" stroke="#23A094" stroke-width="2" stroke-linejoin="round"/>
    <path fill="#e8e841" stroke="#000" stroke-width="2" stroke-linejoin="round" stroke-linecap="round" d="M61.945 472.367c.965-3.162 2.287-5.84 3.54-7.174 1.344-1.43.748-2.05-.638-.664-.583.583-.75.16-.75-1.905 0-4.925 2.554-7.973 8.698-10.38 5.198-2.038 9.03-4.329 10.62-6.349l1.294-1.646v2.864c0 3.541-1.099 8.892-2.315 11.273-1.29 2.525-5.712 7.187-7.882 8.31-1.945 1.005-6.097 1.3-8.316.592-1.106-.353-1.457-.083-2.03 1.56-.38 1.094-.693 2.649-.693 3.456 0 .917-.367 1.469-.979 1.469-.726 0-.868-.363-.55-1.406h0zm1272.59-27.941c.592-1.938 1.402-3.58 2.17-4.397.823-.877.458-1.257-.391-.408-.357.358-.46.098-.46-1.167 0-3.019 1.565-4.887 5.33-6.363 3.187-1.248 5.536-2.652 6.51-3.89l.793-1.01v1.756c0 2.17-.673 5.45-1.419 6.91-.79 1.547-3.5 4.405-4.831 5.092-1.192.617-3.736.798-5.097.364-.677-.217-.893-.051-1.244.956-.233.67-.424 1.623-.424 2.118 0 .562-.226.9-.6.9-.445 0-.532-.223-.337-.861h0zm93.778-61.312c.374-1.224.885-2.26 1.37-2.777.52-.553.29-.793-.246-.257-.226.226-.29.062-.29-.737 0-1.907.988-3.087 3.366-4.019 2.012-.788 3.496-1.675 4.11-2.457l.502-.637v1.108c0 1.371-.425 3.442-.896 4.364-.5.978-2.211 2.782-3.051 3.217-.753.389-2.36.504-3.22.23-.427-.137-.563-.033-.785.603-.148.423-.268 1.025-.268 1.338 0 .355-.143.568-.38.568-.28 0-.335-.14-.212-.544h0zm-310.767-25.991c.685-2.244 1.623-4.144 2.513-5.091.953-1.015.53-1.455-.453-.472-.414.414-.532.113-.532-1.352 0-3.495 1.812-5.658 6.172-7.367 3.689-1.446 6.408-3.071 7.536-4.505l.919-1.168v2.032c0 2.514-.78 6.31-1.643 8-.915 1.793-4.054 5.101-5.594 5.898-1.38.713-4.326.923-5.901.42-.785-.25-1.034-.059-1.44 1.108-.271.776-.493 1.88-.493 2.452 0 .65-.26 1.042-.694 1.042-.515 0-.616-.257-.39-.997h0zM177.52 371.682c.763-2.496 1.806-4.61 2.795-5.663 1.06-1.129.59-1.618-.503-.524-.46.46-.592.126-.592-1.504 0-3.888 2.015-6.294 6.865-8.194 4.103-1.608 7.128-3.416 8.382-5.01l1.022-1.3v2.26c0 2.796-.867 7.02-1.827 8.899-1.019 1.993-4.51 5.673-6.222 6.559-1.535.793-4.812 1.027-6.564.468-.873-.279-1.15-.066-1.602 1.231-.3.863-.547 2.09-.547 2.728 0 .724-.29 1.159-.773 1.159-.573 0-.685-.287-.434-1.11h0zm279.556 99.941c.81-2.652 1.918-4.898 2.97-6.018 1.126-1.199.627-1.719-.536-.557-.488.49-.628.134-.628-1.597 0-4.131 2.141-6.688 7.294-8.707 4.36-1.708 7.574-3.63 8.907-5.324l1.086-1.38v2.401c0 2.97-.922 7.458-1.942 9.455-1.082 2.118-4.791 6.028-6.611 6.97-1.63.843-5.113 1.091-6.974.497-.928-.296-1.222-.07-1.703 1.308-.32.917-.581 2.221-.581 2.899 0 .769-.308 1.231-.821 1.231-.609 0-.728-.304-.461-1.178h0zm-10.518-15.627c.24-.788.57-1.456.882-1.788.335-.357.187-.511-.159-.166-.145.145-.187.04-.187-.475 0-1.228.637-1.987 2.168-2.587 1.296-.508 2.251-1.08 2.647-1.583l.323-.41v.714c0 .883-.274 2.216-.577 2.81-.322.63-1.424 1.791-1.965 2.071-.485.25-1.52.324-2.073.148-.275-.088-.363-.02-.506.389-.095.272-.172.66-.172.861 0 .229-.092.366-.244.366-.181 0-.217-.09-.137-.35h0zm762.953 24.9c.966-3.162 2.288-5.84 3.541-7.174 1.344-1.43.748-2.05-.638-.665-.583.583-.75.16-.75-1.904 0-4.926 2.554-7.974 8.697-10.381 5.199-2.037 9.03-4.328 10.62-6.348l1.295-1.647v2.865c0 3.541-1.099 8.891-2.315 11.272-1.29 2.526-5.713 7.188-7.883 8.31-1.944 1.006-6.096 1.302-8.315.593-1.106-.353-1.457-.083-2.03 1.56-.381 1.093-.693 2.648-.693 3.456 0 .917-.368 1.468-.979 1.468-.726 0-.868-.363-.55-1.405h0zm-41.851-30.054a.639.639 0 0 1 .115-.232c.043-.046.024-.066-.02-.021-.02.019-.025.005-.025-.062 0-.159.083-.257.28-.335.169-.065.292-.14.343-.204l.042-.053v.092c0 .114-.035.287-.074.364a.888.888 0 0 1-.255.268.443.443 0 0 1-.268.019c-.036-.012-.047-.003-.065.05a.42.42 0 0 0-.023.112c0 .03-.012.047-.031.047-.024 0-.028-.012-.018-.045h0zm15.164.261a.823.823 0 0 1 .147-.298c.056-.06.032-.085-.026-.028-.024.024-.031.007-.031-.079 0-.205.106-.331.361-.431.216-.085.375-.18.441-.264l.054-.068v.119c0 .147-.046.369-.096.468a1.144 1.144 0 0 1-.328.345.57.57 0 0 1-.345.025c-.046-.015-.06-.004-.084.065a.541.541 0 0 0-.03.143c0 .038-.014.061-.04.061-.03 0-.036-.015-.023-.058h0zm14.248 2.997c.24-.788.57-1.455.883-1.788.334-.356.186-.51-.16-.165-.145.145-.186.04-.186-.475 0-1.228.636-1.988 2.167-2.588 1.296-.507 2.251-1.078 2.647-1.582l.323-.41v.714c0 .882-.274 2.216-.577 2.81-.321.629-1.424 1.791-1.965 2.07-.484.251-1.52.325-2.072.149-.276-.088-.364-.021-.506.388-.095.273-.173.66-.173.862 0 .228-.092.366-.244.366-.181 0-.216-.09-.137-.35h0zm9.489 5.18c.321-1.051.76-1.941 1.177-2.385.447-.475.249-.68-.212-.22-.194.193-.249.053-.249-.633 0-1.637.849-2.65 2.89-3.45 1.728-.678 3.002-1.439 3.53-2.11l.43-.547v.951c0 1.177-.365 2.956-.77 3.747-.428.84-1.898 2.389-2.62 2.762-.645.334-2.025.432-2.763.197-.367-.118-.484-.028-.674.518-.127.364-.23.88-.23 1.149 0 .304-.123.488-.326.488-.241 0-.288-.121-.183-.467h0zm-792.164-72.66c.592-1.937 1.402-3.578 2.17-4.396.823-.876.458-1.257-.391-.407-.357.357-.46.098-.46-1.168 0-3.019 1.566-4.887 5.33-6.362 3.187-1.249 5.536-2.653 6.51-3.891l.793-1.009v1.755c0 2.171-.673 5.45-1.419 6.91-.79 1.547-3.5 4.405-4.83 5.093-1.192.616-3.737.797-5.097.363-.678-.216-.893-.051-1.245.956-.233.67-.424 1.623-.424 2.118 0 .562-.226.9-.6.9-.445 0-.532-.222-.337-.861h0zm13.222-6.94c.32-1.051.76-1.941 1.176-2.385.447-.475.249-.68-.212-.22-.193.193-.249.053-.249-.633 0-1.637.849-2.65 2.89-3.45 1.728-.678 3.002-1.439 3.53-2.11l.43-.547v.951c0 1.177-.365 2.956-.769 3.747-.429.84-1.899 2.389-2.62 2.762-.646.334-2.026.432-2.763.197-.368-.118-.485-.028-.675.518-.127.364-.23.88-.23 1.149 0 .305-.123.488-.326.488-.241 0-.288-.12-.182-.467h0zm9.516 7.009c.561-1.84 1.33-3.397 2.06-4.173.78-.832.434-1.192-.372-.386-.34.339-.436.093-.436-1.108 0-2.865 1.485-4.638 5.058-6.038 3.024-1.185 5.253-2.517 6.177-3.692l.753-.957V372c0 2.06-.64 5.172-1.347 6.557-.75 1.469-3.322 4.18-4.584 4.833-1.131.585-3.546.757-4.837.345-.643-.206-.847-.049-1.18.907-.222.636-.403 1.54-.403 2.01 0 .533-.214.854-.57.854-.422 0-.504-.211-.32-.817h0zm688.892-19.835c.401-1.313.95-2.426 1.471-2.98.558-.594.31-.852-.265-.276-.242.242-.311.066-.311-.792 0-2.046 1.06-3.312 3.612-4.312 2.16-.846 3.752-1.798 4.412-2.637l.538-.684v1.19c0 1.47-.456 3.694-.961 4.683-.536 1.049-2.374 2.986-3.275 3.452-.808.418-2.533.54-3.455.246-.46-.146-.605-.034-.843.648-.158.455-.288 1.1-.288 1.436 0 .381-.153.61-.407.61-.301 0-.36-.15-.228-.584h0zm189.63 14.9c1.043-3.415 2.47-6.307 3.825-7.749 1.451-1.544.807-2.214-.69-.718-.629.63-.809.173-.809-2.057 0-5.32 2.758-8.612 9.394-11.213 5.615-2.2 9.754-4.675 11.47-6.857l1.4-1.778v3.094c0 3.825-1.188 9.604-2.501 12.176-1.394 2.728-6.17 7.764-8.515 8.976-2.1 1.086-6.585 1.405-8.982.64-1.194-.381-1.573-.09-2.192 1.686-.412 1.18-.749 2.86-.749 3.732 0 .99-.397 1.586-1.057 1.586-.784 0-.938-.392-.594-1.518h0zm148.686-7.33c.499-1.632 1.18-3.014 1.828-3.703.693-.738.386-1.058-.33-.343-.3.3-.386.082-.386-.983 0-2.542 1.317-4.116 4.488-5.358 2.683-1.052 4.661-2.234 5.481-3.277l.669-.85v1.479c0 1.828-.567 4.59-1.195 5.818-.666 1.304-2.949 3.71-4.069 4.29-1.003.518-3.146.67-4.291.305-.571-.182-.752-.043-1.048.805-.197.565-.358 1.367-.358 1.784 0 .473-.19.758-.505.758-.375 0-.448-.188-.284-.725h0zm-165.809-5.299c.641-2.102 1.52-3.882 2.353-4.769.893-.95.497-1.362-.424-.441-.387.387-.498.106-.498-1.266 0-3.274 1.697-5.3 5.78-6.9 3.456-1.355 6.003-2.878 7.06-4.22l.86-1.094v1.903c0 2.354-.73 5.91-1.539 7.493-.857 1.68-3.797 4.778-5.24 5.524-1.291.668-4.051.865-5.526.394-.736-.235-.969-.055-1.35 1.037-.253.727-.46 1.76-.46 2.297 0 .61-.245.976-.651.976-.483 0-.577-.241-.365-.934h0z" style="color:#000"/>
    <path fill="#fff" stroke="#000" stroke-width="2" stroke-linejoin="round" stroke-linecap="round" d="M1429.745 249.453c-.998-.45.305-1.35.798-1.749.332-.306-1.904.043-.96-1.021 1.036-.87.645-2.341-.39-3.025-1.425-.962-3.254-1.785-3.78-3.582-.532-1.119.73-2.297-.082-3.308-.654-1.312.11-2.68.585-3.895.218-1.681-1.12-3.01-1.854-4.392a8.551 8.551 0 0 1-1.51-4.46c-.199-.685.02-1.747.81-.825 1.656 1.326 3.474 2.584 4.633 4.398.219.656 1.097 2.555 1.146.835.023-2.364.745-4.943 2.596-6.527 1.258-1.147 1.937.861 1.996 1.881.327 2.008-.216 3.999-.82 5.896-.223.88-.802 3.296.848 2.406 3.801-1.468 8.406.073 10.882 3.226 1.138 1.526 1.636 3.487 1.625 5.37-.586 1.106 1.591-.021.802 1.255-.464 1.414-1.777 2.18-2.696 3.248-.935.855-.241 2.683-1.788 2.952-2.257.696-4.627 1-6.976 1.178-1.315.27-1.953-1.234-.693-1.859.604-.931 2.333-.996 2.846-1.144-1.227.12-2.74-.38-3.775.38-.626 1.016-1.128 2.354-2.441 2.644-.59.164-1.197.296-1.802.118h0zm-70.439-27.766c-1.182-.628.987-.634 1.485-.677 1.292-.024 1.467-1.575 1.334-2.563-.189-.404-.004-1.283-.67-1.152-1.33-.061-2.646-.393-3.804-1.053-.07 1.11-.629 2.126-1 3.175-.488.532 1.24 2.429.038 1.581-.78-.724.005.754-.962.338-1.313-.027-2.674.207-3.956-.108-.431-.18-1.78.045-.798-.559.559-.102 1.048.386 1.47-.176.999.413 2.589.416 2.952-.885.603-.986.973-2.09.996-3.247-.707-.545-1.267-1.249-1.589-2.086-.743-1.226-2.1-1.898-3.212-2.747-1.476-.961-3.176-2.068-3.465-3.964-.351-1.406.002-2.946 1-4.013.672-.962 1.922-1.856 1.636-3.178-.727-1.293-2.3.168-3.013.796-.86.608-1.785 2.083-2.96 1.421-.147-1 1.181-1.629 1.508-2.563.678-1.05 1.078-2.272 1.634-3.354 1.004-.935 2.665-.94 3.658.025 1.266.986 2.056 2.545 1.932 4.166.122 1.12-.357 2.578.711 3.355 1.544.858 3.365 1.064 4.935 1.886 1.962.907 3.435 2.542 5.087 3.888 1.016.924 2.061 1.82 3.028 2.796-.646-.193-1.244-.522-1.862-.79.8 1.042 1.16 2.322 1.35 3.601.31 1.356 1.182 2.682.745 4.117-.381 1.194-1.596-.737-2.19-1.075-.68-.64-1.352-1.432-2.336-1.543-.178 1.151-.36 2.349-.158 3.502.118 1.02 2.156.408 1.86 1.164-1.706-.186-3.42-.03-5.131-.052l-.253-.026h0z" style="color:#000"/>
    <path fill="#fff" stroke="#000" stroke-width="2" stroke-linejoin="round" stroke-linecap="square" d="M1349.671 223.377c-1.477-.785 1.234-.792 1.856-.846 1.615-.03 1.834-1.969 1.668-3.203-.236-.506-.005-1.604-.837-1.44-1.663-.077-3.308-.491-4.755-1.317-.089 1.388-.786 2.657-1.25 3.97-.61.664 1.55 3.035.047 1.976-.974-.906.007.942-1.202.421-1.642-.033-3.342.26-4.945-.134-.54-.226-2.226.056-.997-.7.698-.126 1.309.483 1.837-.219 1.248.517 3.236.52 3.69-1.107.754-1.231 1.216-2.612 1.244-4.058-.883-.681-1.583-1.56-1.985-2.608-.93-1.532-2.625-2.372-4.016-3.433-1.845-1.202-3.969-2.585-4.33-4.955-.44-1.758.002-3.683 1.248-5.016.84-1.203 2.403-2.321 2.046-3.973-.909-1.616-2.874.21-3.766.995-1.075.76-2.232 2.603-3.7 1.777-.184-1.252 1.477-2.037 1.886-3.204.846-1.314 1.347-2.84 2.041-4.193 1.256-1.169 3.332-1.176 4.572.03 1.584 1.234 2.571 3.183 2.416 5.209.153 1.399-.446 3.222.89 4.193 1.93 1.073 4.205 1.33 6.167 2.359 2.453 1.132 4.294 3.177 6.359 4.859 1.27 1.154 2.577 2.275 3.785 3.495-.808-.242-1.555-.653-2.328-.987 1 1.301 1.45 2.902 1.687 4.501.39 1.695 1.48 3.352.933 5.146-.477 1.492-1.996-.921-2.739-1.343-.849-.8-1.688-1.791-2.92-1.93-.221 1.44-.45 2.936-.197 4.377.148 1.277 2.695.51 2.326 1.456-2.133-.233-4.276-.037-6.414-.065l-.317-.033h0z" style="color:#000"/>
    <path fill="#e8e841" stroke="#000" stroke-width="2" stroke-linejoin="round" stroke-linecap="round" d="M156.619 364.08c.436-1.427 1.033-2.636 1.599-3.24.606-.645.337-.925-.288-.3-.264.264-.339.073-.339-.86 0-2.224 1.153-3.6 3.928-4.687 2.347-.92 4.078-1.955 4.796-2.867l.584-.744v1.294c0 1.6-.496 4.015-1.045 5.09-.583 1.141-2.58 3.247-3.56 3.753-.878.454-2.753.588-3.755.268-.5-.16-.658-.037-.917.705-.172.493-.313 1.196-.313 1.56 0 .414-.166.664-.442.664-.328 0-.392-.164-.248-.635h0zm17.071 5.331c.521-1.708 1.235-3.154 1.912-3.875.726-.772.404-1.107-.344-.358-.315.314-.405.086-.405-1.03 0-2.66 1.379-4.305 4.697-5.605 2.807-1.1 4.877-2.338 5.735-3.429l.7-.889v1.547c0 1.913-.594 4.802-1.25 6.088-.698 1.364-3.086 3.882-4.258 4.488-1.05.543-3.293.703-4.491.32-.597-.19-.787-.045-1.096.843-.206.59-.374 1.43-.374 1.866 0 .495-.199.793-.53.793-.391 0-.468-.196-.296-.759h0zM55.277 476.867c.763-2.495 1.806-4.609 2.796-5.662 1.06-1.129.59-1.618-.504-.525-.46.46-.592.126-.592-1.503 0-3.888 2.016-6.294 6.865-8.194 4.103-1.608 7.128-3.416 8.382-5.011l1.022-1.3v2.261c0 2.796-.867 7.019-1.827 8.898-1.018 1.994-4.51 5.674-6.222 6.56-1.535.793-4.812 1.027-6.564.467-.873-.278-1.15-.065-1.602 1.232-.3.863-.547 2.09-.547 2.728 0 .723-.29 1.159-.773 1.159-.573 0-.685-.287-.434-1.11h0z" style="color:#000"/>
    <path fill="#fff" stroke="#000" stroke-width="2" stroke-linejoin="round" stroke-linecap="round" d="M844.792 403.442h7.012m-7.623.284v-.612h.612v.612h-.612zm.611-6.931h7.012m-7.623.284v-.612h.612v.612h-.612zm14.18-2.97 10.472-7.559v27l-10.473-7.513v-11.929zm-6.466 0h6.465v11.928h-6.465v-11.929z" style="color:#efef00"/>
    <path fill="#e841e8" d="M662.99 371.887h2.403v12.98h-2.404v-12.98zm2.585 6.6h9.806m-31.486-.22h9.472v-7.2l9.662 7.389-9.662 7.451v-7.61m-10.224-.433h.754v.754h-.754v-.754zm32.246.226h.754v.754h-.754v-.754z" style="color:#efef00" stroke="#000" transform="rotate(-88.19 659.643 378.487)"/>
    <path fill="#d5d50b" d="M1362.34 331.42c3.783-.047-3.603-.22-4.913-.316-10.947-.265-20.033-11.15-18.85-21.95.24-10.809 10.65-20.304 21.485-19.216 2.82-1.198 6.824 2.756 8.575.867 4.498-7.934 8.856-15.951 13.535-23.78 3.986-.57 8.734-1.009 12.611.07 1.793 2.823-1.466 3.592-3.5 3.156h-6.81c-1.643 2.998-3.329 5.972-5.008 8.95h28.61c.213-1.015 2.622-3.2.486-2.963-3.88-.49-1.453-4.973 1.42-3.698 4.034.148 8.21-.397 12.122.411 2.09 4.194-3.953 3.295-6.543 3.339-1.918-.626-2.315 1.29-3.074 2.602-3.078 3.153-1.165 6.476.904 9.55.758 1.397 1.299 3.338 3.145 2.031 3.766-.827 7.87-.857 11.617.11 7.829 2.326 14.106 9.585 14.631 17.807.474 5.05-.605 10.257-3.749 14.331-3.646 5.223-9.564 8.082-15.789 8.662m-4.88.051c-5.676-1.456-10.908-4.844-13.942-9.96-1.985-2.556-2.243-6.515-3.298-9.08l-8.349-.11c-5.637-9.067-10.605-18.55-16.042-27.744-1.06 3.148-7.085 7.43-3.758 10.327 8.35 7.006 9.461 20.69 2.32 28.939-3.273 3.668-7.813 6.197-12.48 7.626m.359-4.989c9.006-1.961 14.76-12.345 11.646-21.005-.963-2.82-3.612-7.326-5.951-7.372-2.494 4.305-4.738 8.765-7.47 12.927-6.003 1.055-.504-6.253.766-8.736 1.361-3.03 6.306-7.93.077-7.858-4.372-.435-9.02-.014-12.557 2.888-7.59 5.023-9.028 16.513-3.279 23.44 3.892 5.046 10.613 7.19 16.768 5.716zm63.01-.001c7.687-1.806 13.218-9.707 12.224-17.547-.527-8.714-9.217-15.762-17.857-14.59-6.474-.613-.275 5.33.65 8.22.88 3.068 5.73 6.836 3.022 9.828-6.072.254-12.294-.179-18.35.434 1.087 8.03 8.687 14.673 16.888 14.059 1.151-.01 2.307-.107 3.423-.404zm-24.809-17.947c.732-6.283 4.293-11.999 9.488-15.575.307-1.542-2.839-8.64-3.99-3.691-3.555 6.46-7.129 12.914-10.574 19.433 1.65.04 3.5.329 5.076-.167zm18.556-.312a540.7 540.7 0 0 0-6.286-11.483c-4.297 2.266-7.123 7.061-7.791 11.847 4.691-.1 9.46.245 14.089-.25l-.012-.114zm-20.097-13.895c2.02-3.73 4.08-7.44 6.039-11.203-8.517-.191-17.052-.233-25.566.04 4.373 7.516 8.324 15.322 13.105 22.574 2.312-3.556 4.275-7.65 6.422-11.41z" style="color:#efef00" stroke="#000"/>
  </g>
  <defs>
    <filter xmlns:inkscape="http://www.inkscape.org/namespaces/inkscape" id="a" inkscape:label="Specular light" inkscape:menu="ABCs" inkscape:menu-tooltip="Basic specular bevel to use for building textures" color-interpolation-filters="sRGB">
      <feGaussianBlur result="result0" in="SourceAlpha" stdDeviation="6"/>
      <feSpecularLighting specularExponent="25" surfaceScale="10" lighting-color="#fff" result="result1" in="result0">
        <feDistantLight azimuth="235" elevation="45"/>
      </feSpecularLighting>
      <feComposite k3="1" k2="1" operator="arithmetic" result="result4" in="SourceGraphic" in2="result91"/>
      <feComposite operator="in" result="result2" in="result4" in2="SourceAlpha"/>
    </filter>
    <filter xmlns:inkscape="http://www.inkscape.org/namespaces/inkscape" id="c" inkscape:label="Inner Shadow" inkscape:menu="Shadows and Glows" inkscape:menu-tooltip="Adds a colorizable drop shadow inside" color-interpolation-filters="sRGB">
      <feGaussianBlur stdDeviation="4" result="result8"/>
      <feOffset dx="4" dy="4" result="result11"/>
      <feComposite result="result6" in="SourceGraphic" operator="in" in2="result11"/>
      <feFlood result="result10" flood-opacity="1" flood-color="#000"/>
      <feBlend in="result6" in2="result10"/>
      <feComposite result="result2" operator="in" in2="SourceGraphic"/>
    </filter>
    <filter xmlns:inkscape="http://www.inkscape.org/namespaces/inkscape" id="d" inkscape:label="Saturation map" inkscape:menu="Transparency utilities" inkscape:menu-tooltip="Creates an approximative semi-transparent and colorizable image of the saturation levels" width="1" height="1" y="0" x="0" color-interpolation-filters="sRGB">
      <feColorMatrix values="1 0 0 0 0 1 0 0 0 0 1 0 0 0 0 0 0 0 0 1" result="r" in="SourceGraphic"/>
      <feColorMatrix values="0 1 0 0 0 0 1 0 0 0 0 1 0 0 0 0 0 0 0 1" result="g" in="SourceGraphic"/>
      <feColorMatrix values="0 0 1 0 0 0 0 1 0 0 0 0 1 0 0 0 0 0 0 1" result="b" in="SourceGraphic"/>
      <feBlend result="minrg" in2="g" in="r" mode="darken"/>
      <feBlend result="p" in2="b" in="minrg" mode="darken"/>
      <feBlend result="maxrg" in2="g" in="r" mode="lighten"/>
      <feBlend result="q" in2="b" in="maxrg" mode="lighten"/>
      <feComponentTransfer result="q2" in="q">
        <feFuncR slope="0" type="linear"/>
      </feComponentTransfer>
      <feBlend result="pq" in2="q2" in="p" mode="lighten"/>
      <feColorMatrix values="-1 1 0 0 0 -1 1 0 0 0 -1 1 0 0 0 0 0 0 0 1" result="qminp" in="pq"/>
      <feColorMatrix type="luminanceToAlpha" result="result1" in="qminp"/>
      <feComposite k1="1" operator="arithmetic" in2="qminp" in="result1" result="result3"/>
      <feComposite in="result3" operator="in" in2="SourceGraphic" result="fbSourceGraphic"/>
      <feFlood flood-color="#fc0" result="result1"/>
      <feComposite operator="in" in2="fbSourceGraphic" result="result2"/>
    </filter>
    <filter xmlns:inkscape="http://www.inkscape.org/namespaces/inkscape" id="e" inkscape:label="Inset" inkscape:menu="Shadows and Glows" inkscape:menu-tooltip="Shadowy outer bevel" color-interpolation-filters="sRGB">
      <feMorphology result="result1" in="SourceAlpha" operator="dilate" radius="3.6"/>
      <feGaussianBlur stdDeviation="3.6" in="result1" result="result0"/>
      <feDiffuseLighting surfaceScale="-5">
        <feDistantLight elevation="45" azimuth="225"/>
      </feDiffuseLighting>
      <feComposite in2="result0" operator="in" result="result91"/>
      <feComposite in="SourceGraphic" in2="result91"/>
    </filter>
    <filter id="b" x="-.25" width="1.5" y="-.25" height="1.5" xmlns:inkscape="http://www.inkscape.org/namespaces/inkscape" inkscape:menu-tooltip="Smooth rainbow colors slightly melted along the edges" inkscape:menu="Textures" inkscape:label="Melted rainbow" color-interpolation-filters="sRGB">
      <feGaussianBlur result="result8" stdDeviation="5"/>
      <feTurbulence baseFrequency=".015" numOctaves="2" type="fractalNoise" result="result7" seed="20"/>
      <feComposite in="SourceGraphic" operator="in" result="result6" in2="result8"/>
      <feComposite in="result6" operator="arithmetic" result="result2" in2="result7" k3="1"/>
      <feComposite in2="result6" operator="in" in="result2" result="fbSourceGraphic"/>
      <feComposite in2="fbSourceGraphic" in="fbSourceGraphic" k2="2.5" operator="arithmetic"/>
    </filter>
  </defs>
</svg>
