<svg xmlns="http://www.w3.org/2000/svg" width="32" height="32" fill="none" style=""><rect id="backgroundrect" width="100%" height="100%" x="0" y="0" fill="none" stroke="none"/>


<g class="currentLayer" style=""><title>Layer 1</title><circle cx="16" cy="16" r="16" fill="#FF90E8" id="svg_1" class="selected" filter="url(#f118)"/><path d="M14.6108 24.0635C9.92396 24.0635 7.16699 20.3043 7.16699 15.6282C7.16699 10.7688 10.1997 6.82617 15.9893 6.82617C21.9627 6.82617 23.9845 10.8604 24.0764 13.1526H19.7572C19.6653 11.869 18.5625 9.94356 15.8974 9.94356C13.0485 9.94356 11.2105 12.4191 11.2105 15.4448C11.2105 18.4705 13.0485 20.9461 15.8974 20.9461C18.4706 20.9461 19.5734 18.929 20.0329 16.9118H15.8974V15.2615H24.575V23.6968H20.768V18.3789C20.4923 20.3043 19.2977 24.0635 14.6108 24.0635Z" fill="black" id="svg_2" class="" filter="url(#f108)"/></g><defs><filter id="f108" xmlns:inkscape="http://www.inkscape.org/namespaces/inkscape" inkscape:label="Specular light" inkscape:menu="ABCs" inkscape:menu-tooltip="Basic specular bevel to use for building textures" color-interpolation-filters="sRGB">
            <feGaussianBlur result="result0" in="SourceAlpha" stdDeviation="6"/>
            <feSpecularLighting specularExponent="25" specularConstant="1" surfaceScale="10" lighting-color="#fff" result="result1" in="result0">
                <feDistantLight azimuth="235" elevation="45"/>
            </feSpecularLighting>
            <feComposite k3="1" k2="1" operator="arithmetic" result="result4" in="SourceGraphic" in2="result91"/>
            <feComposite operator="in" result="result2" in="result4" in2="SourceAlpha"/>
        </filter><filter id="f118" xmlns:inkscape="http://www.inkscape.org/namespaces/inkscape" inkscape:menu-tooltip="In and out glow with a possible offset and colorizable flood" inkscape:menu="Shadows and Glows" inkscape:label="Cutout Glow" color-interpolation-filters="sRGB">
            <feOffset dy="3" dx="3"/>
            <feGaussianBlur result="result8" stdDeviation="3"/>
            <feFlood flood-color="#000" flood-opacity="1" in="result8" result="result10"/>
            <feComposite in2="SourceGraphic" operator="in" in="result10" result="result9"/>
            <feBlend mode="normal" in2="result9" in="result8"/>
        </filter></defs></svg>