<svg xmlns="http://www.w3.org/2000/svg" width="1519" height="532" fill="none">
  <rect width="100%" height="100%"/>
  <g class="currentLayer">
    <path d="M9.24 48.97h810.18s31.19 21.64 53.89 25.28c22.7 3.64 47.09 8.86 60 16.81 12.91 7.95 38.22 19.91 50.3 22.12 12.08 2.21 147.58 31.6 178.73 31 31.15-.6 45-2.12 59.81 3.19 14.81 5.31 33.39 14.21 47.17 19.85 13.78 5.64 56.32 9.34 70.84 11.4 14.52 2.06 21.41 0 38.63 11.76 17.22 11.76 36.61 20.69 54.83 19.57 18.22-1.12 36.81-6.64 55.27-5.2 18.46 1.44 38.37 4.53 38.37 4.53v312.46H9.24V48.97z" fill="#0bd50b" stroke="#abecab" filter="url(#a)"/>
    <path d="M292.134 251.82c-1.65-4.17-2.41-5.78-3.83-6.3-1.42-.52-1.72 3.1-.32 5.24s1.93 3.73 3.11 3.44c1.18-.29 1.04-2.38 1.04-2.38z" fill="#000" stroke="#000" stroke-width="2" stroke-linecap="round" stroke-linejoin="round"/>
    <path d="M377.467 259.82c-1.65-4.17-2.41-5.78-3.83-6.3-1.42-.52-1.72 3.1-.32 5.24s1.93 3.73 3.11 3.44c1.18-.29 1.04-2.38 1.04-2.38z" fill="#41e841" stroke="#000" stroke-width="2" stroke-linecap="round" stroke-linejoin="round"/>
    <path fill="#1aeb1a" stroke="#000" stroke-width="2" stroke-linejoin="round" stroke-linecap="round" d="M331.962 143.551c1.804-3.73 5.961-5.447 9.288-3.838 3.328 1.61 4.563 5.935 2.758 9.666s-5.962 5.447-9.29 3.837c-3.327-1.61-4.56-5.934-2.756-9.665zm-67.292-15.556c0-4.143 5.345-7.5 11.944-7.5 6.598 0 11.943 3.357 11.943 7.5 0 4.144-5.345 7.5-11.943 7.5-6.599 0-11.943-3.356-11.943-7.5zm20 20c0-4.143 1.79-7.5 4-7.5s4 3.357 4 7.5c0 4.144-1.79 7.5-4 7.5s-4-3.356-4-7.5zm83.737-28.358c0-4.144 1.79-7.5 4-7.5s4 3.356 4 7.5c0 4.143-1.79 7.5-4 7.5s-4-3.357-4-7.5z"/>
    <path d="M377.467 238.487c-1.65-4.17-2.41-5.78-3.83-6.3-1.42-.52-1.72 3.1-.32 5.24s1.93 3.73 3.11 3.44c1.18-.29 1.04-2.38 1.04-2.38z" fill="#41e841" stroke="#000" stroke-width="2" stroke-linecap="round" stroke-linejoin="round"/>
    <path fill="#ebeb1a" stroke="#e8e841" stroke-width="2" stroke-linejoin="round" stroke-linecap="round" opacity=".97" d="m1139.74 85.184 5.715 28.572"/>
    <path d="M1510.303 344.035H9.22v118.36h1501.083v-118.36z" fill="#989900" class="selected" filter="url(#b)" stroke="#b8b804" transform="rotate(.192 759.761 403.215)"/>
    <path fill="#e7e767" stroke="#000" stroke-width="2" stroke-linecap="round" d="M88.84 439.028c.956-3.13 2.265-5.781 3.506-7.103 1.33-1.415.74-2.03-.632-.657-.577.577-.742.158-.742-1.886 0-4.877 2.528-7.894 8.61-10.278 5.147-2.017 8.942-4.285 10.515-6.285l1.282-1.63v2.836c0 3.506-1.088 8.803-2.292 11.16-1.277 2.501-5.656 7.117-7.804 8.228-1.925.995-6.036 1.288-8.233.587-1.095-.35-1.443-.083-2.01 1.545-.377 1.082-.686 2.621-.686 3.421 0 .908-.364 1.454-.97 1.454-.718 0-.859-.36-.544-1.392h0zm1336.923-75.384c.956-3.13 2.265-5.782 3.506-7.103 1.33-1.416.74-2.03-.632-.658-.577.577-.742.158-.742-1.886 0-4.877 2.528-7.894 8.61-10.278 5.147-2.017 8.942-4.285 10.515-6.285l1.282-1.63v2.836c0 3.506-1.088 8.804-2.292 11.16-1.277 2.501-5.656 7.117-7.804 8.228-1.925.996-6.036 1.289-8.233.587-1.095-.35-1.443-.082-2.01 1.545-.377 1.082-.686 2.622-.686 3.421 0 .908-.364 1.454-.97 1.454-.718 0-.859-.36-.544-1.391h0z" style="color:#007a01"/>
    <path d="M1 345h1516m0 117H1" stroke="#000" stroke-width="2" stroke-linecap="square" stroke-linejoin="round"/>
    <path d="M810.189 59.19 1518.01 59v160.49s-7.75-.23-36.64-3.73c-23.11-2.8-63.18 10.18-86.71 0-14.15-6.11-30.34-20.06-39.13-22.37-24.21-6.39-72.56-3.18-91.72-12-19.16-8.82-29.54-20.63-70.13-23.82-40.59-3.19-91.61 2.31-131.79-5.71-40.18-8.02-103.381-22.76-132.221-39.66-28.84-16.9-11.66-18.9-33.41-21.32-50.61-5.65-86.07-31.69-86.07-31.69Z" fill="#90A8ED"/>
    <path d="M1521.615 57.462h-707s35.42 26.115 85.97 31.782c21.725 2.427 4.565 4.433 33.372 21.382 28.806 16.949 91.928 31.732 132.068 39.776 40.13 8.043 91.09 2.527 131.64 5.726 40.54 3.199 50.91 15.044 70.04 23.889 19.14 8.846 67.44 5.627 91.62 12.035 8.78 2.317 24.95 16.308 39.08 22.435 23.51 10.21 63.53-2.808 86.61 0 28.86 3.51 36.6 3.74 36.6 3.74" stroke="#ebeb1a" stroke-width="2" stroke-linecap="square" stroke-linejoin="round" filter="url(#c)" fill="#009899"/>
    <path d="m1160.51 245.87 208.83-2 5.36 37.62 30 3.21v10.87s-241.44 9-240.4 0c1.04-9-3.79-49.7-3.79-49.7Z" fill="#98282A" stroke="#000" stroke-width="2" stroke-linecap="round" stroke-linejoin="round" filter="url(#d)"/>
    <path d="M810 59H0" stroke="#000" stroke-width="2" stroke-miterlimit="10"/>
    <path d="M161.379 97.3c-.92-2.67-3.74-12.1-7.82-15.94a15.406 15.406 0 0 0-13.11-3.88c-4.08.57-10.79 1.73-15.7 4.18a13.732 13.732 0 0 0-7.74 13.32c.17 4.79 1.07 17.59 6.55 29.37 3.46 7.43 6.36 9.7 10.68 10.65 2.126.357 4.294.391 6.43.1h.36a56.51 56.51 0 0 0 7.3-1.37c1.15-.3 2.49-.61 3.9-1 .66-.19 1.35-.39 2-.62.65-.23 1.62-.6 2.41-1l.1-.05c1.306-.6 2.51-1.4 3.57-2.37a14.448 14.448 0 0 0 4.7-11.27c0-5.04-2.7-17.41-3.63-20.12Z" fill="#FF7051" stroke="#000" stroke-width="2" stroke-linecap="round" stroke-linejoin="round" filter="url(#c)"/>
    <path d="M132.029 126.88a.57.57 0 1 0 0-1.14.57.57 0 0 0 0 1.14Zm5.26-1.14a.57.57 0 1 0 0-1.14.57.57 0 0 0 0 1.14Z" fill="#E2442F" stroke="#000" stroke-width="2" stroke-linecap="round" stroke-linejoin="round"/>
    <path d="M137.859 128.04c-1.45 2.24-4.39 1.46-4.39 1.46" stroke="#000" stroke-width="2" stroke-linecap="round" stroke-linejoin="round"/>
    <path d="M156.619 143.1s1.1 2.91 2.56 6.8" stroke="#5000FF" stroke-width="2" stroke-linecap="round" stroke-linejoin="round"/>
    <path d="M138.01 160.65c-.25 1-1.66 5.92-5.54 6.68-3.88.76-28 5.16-28 5.16h-.12l-3-1 .51-2.27.36-1.48.08-.33.59-2.47.42-1.74.23-.2 4.44-3.77 2.93-.19 1.35-.09h.18l16.2-2.28c.38-.89.8-1.87 1.25-2.9l5.88 3.19a10.645 10.645 0 0 0 2.24 3.69v0z" fill="#FF90E8" stroke="#000" stroke-width="2" stroke-linecap="round" stroke-linejoin="round" filter="url(#e)"/>
    <path d="M136.38 151.3c-.81 2.1-1.19 4.08-.66 5.61l-5.88-3.19c.91-2.08 1.93-4.37 3-6.58l4.46 2.12c-.36.67-.66 1.35-.92 2.04Z" fill="#F1F333" stroke="#000" stroke-width="2" stroke-linecap="round" stroke-linejoin="round"/>
    <path d="M203.879 284.17s-5.56 4.79-11.14 9.47c-4.49 3.77-8.93 5.21-10.88 5.08-1.95-.13-4.91-2.18-3.71-5.56 1.2-3.38 7.53-9.76 8.67-11.06 1.14-1.3 1.73-2.21 1-3.41-.73-1.2-3.83-5.7-3.83-5.7s-1.28-1.94-3.15-4.8a5.677 5.677 0 0 1 3.17 0 .903.903 0 0 1 .23.14l.87 1 6.64-3.63c.07.18.14.32.18.43.56 1.17 11.95 18.04 11.95 18.04Z" fill="#000" stroke="#000" stroke-width="2" stroke-linecap="round" stroke-linejoin="round"/>
    <path d="m192.598 264.63-7.31 4-.95-1.1a.869.869 0 0 0-.26-.16l7.71-4.66c.34.79.62 1.45.81 1.92Z" fill="#FFC900" stroke="#000" stroke-width="2" stroke-linecap="round" stroke-linejoin="round"/>
    <path d="m173.629 160.01-9.2 3.79c-.22-.6-.46-1.24-.72-1.89l-2.83-7.52 9.13-4.09c1.2 3.19 2.51 6.74 3.62 9.71Z" fill="#F1F333" stroke="#000" stroke-width="2" stroke-linecap="round" stroke-linejoin="round"/>
    <path d="M177.009 173.96c-.23 1.35-2 9.45-2 9.45l-3.62 17.1-.57-.24-7-2.92-2.38-1s1.1-2.49 2.37-6c.39-1.06.8-2.24 1.19-3.46a65.32 65.32 0 0 0 2.39-9.43 13.813 13.813 0 0 0-1-8.44c-.28-.69-1-2.65-2-5.2l9.2-3.79 2 5.47c1.74 4.65 1.63 7.1 1.42 8.46Z" fill="#FF90E8" stroke="#000" stroke-width="2" stroke-linecap="round" stroke-linejoin="round" filter="url(#e)"/>
    <path d="m170.009 150.3-9.14 4.08-1.7-4.49-22.79 1.41c.26-.67.56-1.35.89-2l-4.46-2.12c2.07-4.41 4.2-8.51 5.59-10 .18-.2 1.21-1.1 2.27-2h.36l-.86.6c1.56 4.27 6.29 3.77 8.34 2.58a7.444 7.444 0 0 0 3.72-5.56c.66-.19 1.35-.39 2-.62.65-.23 1.62-.6 2.41-1a12.503 12.503 0 0 1 7.12 3.75c1.51 1.66 2.25 4.88 3 6.91.39.78 1.71 4.32 3.25 8.46Z" fill="#e767e7" stroke="#000" stroke-width="2" stroke-linecap="round" stroke-linejoin="round" filter="url(#e)"/>
    <path d="M139.62 145.02c-.82 1.34-1.65 2.78-2.35 4.22" stroke="#000" stroke-width="2" stroke-linecap="round" stroke-linejoin="round"/>
    <path d="m155.248 284.15-.24 21.34c-6.8.09-13.43.06-23.48-4.23-5-2.14-9.91-6.68-9.63-11 .28-4.32 5.86-3.93 9.6-2.64a55.443 55.443 0 0 1 7 2.77c3.21 1.57 4.41.9 4.41.9l-.18-8.74c1.24-1.28 2.4-1.4 3.29-.38.47.589.811 1.271 1 2l8.23-.02Z" fill="#000" stroke="#000" stroke-width="2" stroke-linecap="round" stroke-linejoin="round"/>
    <path d="M152.488 282.72v2.17h-9.06a5.823 5.823 0 0 0-1.11-2.17h10.17Z" fill="#FFC900" stroke="#000" stroke-width="2" stroke-linecap="round" stroke-linejoin="round"/>
    <path d="M152.23 132.68a7.443 7.443 0 0 1-3.72 5.56c-2.05 1.19-6.78 1.69-8.34-2.58l.86-.6a56.713 56.713 0 0 0 7.3-1.37c1.15-.3 2.49-.61 3.9-1.01Z" fill="#E2442F" stroke="#000" stroke-width="2" stroke-linecap="round" stroke-linejoin="round"/>
    <path d="M149.499 182.01v17.81l-4.53-1.58.36-6.83.63-12.05 3.54 2.65Zm-8.49-1.23-5.25 1.5a3.75 3.75 0 0 0-2.75 3.42l-.38 7.67 2.43-.37 5.62-.87 4.64-.71.63-12.06-4.94 1.42Zm-2.17 10a.488.488 0 0 1-.492-.579.495.495 0 0 1 .383-.391.501.501 0 0 1 .284.026.497.497 0 0 1 .305.454.471.471 0 0 1-.125.376.47.47 0 0 1-.166.116.47.47 0 0 1-.199.038l.01-.04Z" fill="#F1F333" stroke="#000" stroke-width="2" stroke-linecap="round" stroke-linejoin="round"/>
    <path d="M139.31 190.3a.477.477 0 0 1-.297.443.477.477 0 0 1-.654-.349.48.48 0 1 1 .951-.094Z" stroke="#5000FF" stroke-width="2" stroke-linecap="round" stroke-linejoin="round"/>
    <path d="M139.31 190.3a.477.477 0 0 1-.297.443.477.477 0 0 1-.654-.349.48.48 0 1 1 .951-.094Zm-42.501-46.91h13.05l3.69 24.44h-8.94l-5.77-9.62-2.03-14.82Z" fill="#000" stroke="#000" stroke-width="2" stroke-linecap="round" stroke-linejoin="round"/>
    <path d="m108.398 143.39 3.85 24.44" stroke="#fff" stroke-width="2" stroke-miterlimit="10"/>
    <path d="m113.549 143.67 4.97-5.21m-8.451.99 3.48-6.95m-8.06 5.96.42-6.75m-6.39 7.4-1.78-6.9m-3.598 8.65-4.79-5.44" stroke="#000" stroke-width="2" stroke-linecap="round" stroke-linejoin="round"/>
    <path d="m155.76 188.04-.14 3.32-6.12.73v-3.25l6.26-.8Z" fill="#FFC900" stroke="#000" stroke-width="2" stroke-linecap="round" stroke-linejoin="round"/>
    <path d="m149.5 190.39 2.7-.31" stroke="#000" stroke-width="2" stroke-linecap="round" stroke-linejoin="round"/>
    <path d="M160.349 189.04a.317.317 0 0 1-.33.32.33.33 0 0 1-.229-.567.331.331 0 0 1 .509.061.33.33 0 0 1 .05.186Zm2.359-.21a.318.318 0 0 1-.546.226.32.32 0 1 1 .546-.226v0Z" stroke="#5000FF" stroke-width="2" stroke-miterlimit="10" stroke-linecap="round"/>
    <path d="m170.839 200.3-2.64 4.73a26.559 26.559 0 0 1-6.82-4.8l2.45-2.85 7.01 2.92Z" fill="#98282A" stroke="#000" stroke-width="2" stroke-linecap="round" stroke-linejoin="round"/>
    <path d="M759.058 91.87c-3.16 2.78-8.92 4.5-8.15 5.79a27.675 27.675 0 0 1 5.19 15.83 30.911 30.911 0 0 1-3.49 14.11c-3.19 5.67-9.94 11.19-18.42 14a27.88 27.88 0 0 1-9.52 1.38h-1a47.794 47.794 0 0 1-10.51-2.08 37.82 37.82 0 0 1-3.7-1.37l-.32-.13c-.82-.36-1.61-.74-2.38-1.14-13.77-7.23-19.77-21.57-16.75-34.43 3.46-14.72 14.72-17.28 15.95-19.76.64-1.77-5.61-6.76-5-17.4 1.15-19.09 17.54-28.88 34-27.67 22.92 1.68 31.8 19.56 33.07 27.59 2.05 12.71-5.82 22.5-8.97 25.28Z" fill="#e767e7" stroke="#000" stroke-width="2" stroke-linecap="round" stroke-linejoin="round" filter="url(#c)"/>
    <path d="M732.93 126.95c3 2.77 7.89 2.13 7.89 2.13" stroke="#000" stroke-width="2" stroke-linecap="round" stroke-linejoin="round"/>
    <path d="M740.809 120.91a.78.78 0 1 0 0-1.56.78.78 0 0 0 0 1.56Zm55.37-4.77v6.74l-10.6 21.01-4.42 2.67-19.07.16-1.29-3.52 12.88-27.06h22.5Z" fill="#000" stroke="#000" stroke-width="2" stroke-linecap="round" stroke-linejoin="round"/>
    <path d="m762.789 145.19 16.71-.4" stroke="#fff" stroke-width="2" stroke-linecap="round" stroke-linejoin="round"/>
    <path d="m775.179 120.91-8.39 17.36 14.22.16 7.91-17.52h-13.74Z" fill="#fff" stroke="#fff" stroke-width="2" stroke-miterlimit="10"/>
    <path d="m795.119 120.33-6.84 14.77" stroke="#fff" stroke-width="2" stroke-linecap="round" stroke-linejoin="round"/>
    <path d="M788.55 138.02a23.687 23.687 0 0 1-2.06 7.6c-2.35 5.76-4.36 8.24-4.73 11.71-.41 3.86-.64 17.36-1.56 26.71-.66-3.68-10.53-9.51-17.86-12.18l6-13.12s-3.35-6.78.66-11.07a17.722 17.722 0 0 0 7-1.07 12.531 12.531 0 0 0 3.44-1.81 5.505 5.505 0 0 0 2.48-4.93 6.985 6.985 0 0 0-.58-2.29c-.84-2.11-2.22-4.53-1.52-7 1-2.06 3.21-1.89 5-.68a7.144 7.144 0 0 1 2 2.08 9.872 9.872 0 0 1 1.73 6.05v0Z" fill="#FF90E8" stroke="#000" stroke-width="2" stroke-linecap="round" stroke-linejoin="round" filter="url(#c)"/>
    <path d="M780.2 184.04a45.082 45.082 0 0 1-1.22 7.57c-2 6.59-5.73 15.5-12.87 15-7.14-.5-19.89-12-28.26-20.26-3.81-3.74-6.68-6.81-7.64-7.84-3.06-3.29-12.8-13.29-12.86-18-.06-4.71 1.15-13.23 5.52-16.16a1.849 1.849 0 0 1 1.21-.13c2.07.29 5.67 2.52 8.55 5.9 3.59 4.19 26.5 28.69 26.5 28.69l3.21-7c7.33 2.72 17.2 8.55 17.86 12.23Z" fill="#41e8e8" stroke="#000" stroke-width="2" stroke-linecap="round" stroke-linejoin="round"/>
    <path d="m744.003 190.706-1.207 59.41c-14.876-2.43-26.68 1.894-33.691 1.256-6.583-.587-11.925-3.614-18.782-2.976-.472 0-.955.103-1.437.186-5.047.844-9.874 2.8-14.427 1.287.494-2.338 11.08-49.752 13.428-58.926.78-3.09 1.734-6.25 2.83-9.504 4.608-13.756 11.794-28.407 19.913-36.912 2.48 5.076 10.345 5.59 17.959 1.987l.307.865a2.15 2.15 0 0 0-1.327.134c-4.795 3.017-6.122 11.84-6.056 16.639.066 4.798 10.751 15.094 14.108 18.533 1.053 1.03 4.17 4.19 8.382 8.021z" fill="#d50b0b" stroke="#000" stroke-width="2" stroke-linecap="round" stroke-linejoin="round" filter="url(#f)"/>
    <path d="M709.419 139.44c-.66.63-1.32 1.31-2 2-7.4 8.26-13.95 22.49-18.15 35.85-11.86 11.09-20.39 26-25.58 37.4-1.52-1.62-7.59-6.14-13.73-6 0-.08.07-.16.11-.25 14.28-32.4 29.84-48 42.21-58.19a79.38 79.38 0 0 1 14.73-9.95c.8-.42 1.5-.73 2.08-1l.33.14Z" fill="#41e8e8" stroke="#000" stroke-width="2" stroke-linecap="round" stroke-linejoin="round"/>
    <path d="M663.699 214.72c-2 4.29-3.45 8.06-4.46 10.92-.5 1.41-1 3-1.46 4.69a31.554 31.554 0 0 0-3.49-1.17c-1.28-.36-2.65-.7-4-1-1.35-.3-2.72-.52-3.94-.69a23.917 23.917 0 0 0-3.14-.25l.47-1.69a165.376 165.376 0 0 1 6.26-16.73v-.07c6.17-.15 12.24 4.37 13.76 5.99Zm-3.309 33.06c0 3.62-7.1-2.33-7.1-2.33a22.857 22.857 0 0 0 1.37 5.14c1.05 2.68-1.88 1.93-4.51-2 0 .56 0 1.15-.09 1.76-.3 4.15-4.26 3.08-2.93-8.73 0 0-1.54 10.78-3.53 10.24-1.99-.54-.65-8-.34-9.45-.51 1.84-3.67 13.07-3.83 7.19a64.433 64.433 0 0 1 2-16v0l.43-1.56a17.113 17.113 0 0 1 3.69 0c1.265.097 2.524.267 3.77.51a39.56 39.56 0 0 1 4 1c1.126.326 2.231.72 3.31 1.18-1 4-1.7 7.39-1.7 7.39s5.46 2.92 5.46 5.66Z" fill="#FF90E8" stroke="#000" stroke-width="2" stroke-linecap="round" stroke-linejoin="round" filter="url(#c)"/>
    <path d="M649.949 242.24c.215 2.113.282 4.238.2 6.36" stroke="#000" stroke-width="2" stroke-linecap="round" stroke-linejoin="round"/>
    <path d="M645.129 241.58c3-.47 7.1 1.56 7.1 1.56m-3.221-6.62a5.005 5.005 0 0 1-.59 2.09" stroke="#000" stroke-width="2" stroke-linecap="round" stroke-linejoin="round"/>
    <path d="M643.209 227.3h-.15" stroke="#5000FF" stroke-width="2" stroke-linecap="round" stroke-linejoin="round"/>
    <path d="m646.349 227.5-.78 4.54a17.113 17.113 0 0 0-3.69 0l1.33-4.74a24.06 24.06 0 0 1 3.14.2v0Z" fill="#FF90E8" stroke="#000" stroke-width="2" stroke-linecap="round" stroke-linejoin="round"/>
    <path d="m650.288 228.19-.95 4.36a32.957 32.957 0 0 0-3.77-.51l.78-4.54c1.22.17 2.57.4 3.94.69Zm7.491 2.11c-.42 1.46-.81 2.95-1.16 4.36a29.013 29.013 0 0 0-3.31-1.18l1-4.35c1.178.322 2.337.713 3.47 1.17v0Z" fill="#FF90E8" stroke="#000" stroke-width="2" stroke-linecap="round" stroke-linejoin="round"/>
    <path d="m654.289 229.16-1 4.35a39.56 39.56 0 0 0-4-1l.95-4.36c1.4.31 2.77.65 4.05 1.01Z" fill="#FF90E8" stroke="#000" stroke-width="2" stroke-linecap="round" stroke-linejoin="round"/>
    <path d="M776.41 99.75v8.18m11.249-8.18-.96 9.05m13.45-7.52-4.86 8.3m8.301 3 9.15-5.12m-7.041 12.87 11.56-3.38" stroke="#000" stroke-width="2" stroke-linecap="round" stroke-linejoin="round"/>
    <path d="m1173.92 295.05 2.05 28.51h-10.34l-6.7-77.69h11.45l2.88 40.04h38.29l1.35 9.14h-38.98Z" fill="#98282A" stroke="#000" stroke-width="2" stroke-miterlimit="10" stroke-linecap="round" filter="url(#g)"/>
    <path d="M1406.8 285.91v9.14h-193.9l-1.35-9.14h195.25Zm-29.5 37.65h-10.35l-3.53-28.51h10.75l3.13 28.51Z" fill="#98282A" stroke="#000" stroke-width="2" stroke-miterlimit="10" stroke-linecap="round" filter="url(#g)"/>
    <path d="M1362.28 285.91h-189.02l-2.88-40.04h186.94l4.96 40.04z" fill="#98282A" stroke="#000" stroke-width="2" stroke-miterlimit="10" stroke-linecap="round" filter="url(#h)"/>
    <path d="M1250.47 233.5a13.415 13.415 0 0 1-8.57 5.9c-.3.07-.62.14-.94.19-.32.05-.84.13-1.29.18-2.1.196-4.21.196-6.3 0a7.998 7.998 0 0 1-4.6 1.33 6.44 6.44 0 0 1-2.12-.46 8.146 8.146 0 0 1-3.09-2.4h-1.06c-10.34-.6-13.29-10.61-9.3-17.36-4.17-5.44-2.9-10.83 3.56-14.51-1-7.75 5.27-12.05 10.53-12.34 4.94-.26 6.52 2 8.37 2 .69 0 2.34-1.73 5.12-.93 2.78.8 3.23 1.71 3.92 3.92.44 1.4 3.08.59 5.44 5.74 2.36 5.15-.82 10.7-.72 10.77a17.017 17.017 0 0 1 3.5 6.42c.45 1.988.47 4.05.04 6.044a14.033 14.033 0 0 1-2.49 5.506v0Z" fill="#F1F333" stroke="#000" stroke-width="2" stroke-linecap="round" stroke-linejoin="round" filter="url(#e)"/>
    <path d="M1231.82 230.97c4.35 4 8.71.12 8.71.12" stroke="#000" stroke-width="2" stroke-linecap="round" stroke-linejoin="round"/>
    <path d="M1231.81 227.13a.601.601 0 0 0 0-1.2.601.601 0 0 0 0 1.2Zm8.6-.15a.601.601 0 0 0 0-1.2.601.601 0 0 0 0 1.2Z" fill="#000" stroke="#000" stroke-width="2" stroke-linecap="round" stroke-linejoin="round"/>
    <path d="M723.8 143.4c-6.94 3.5-14.11 3-16.37-1.93.64-.72 1.3-1.4 2-2a37.63 37.63 0 0 0 3.7 1.37 47.77 47.77 0 0 0 10.51 2.08l.16.48Z" fill="#FF90E8" stroke="#000" stroke-width="2" stroke-linecap="round" stroke-linejoin="round"/>
    <path d="M703.01 392.37h-13.85a30.84 30.84 0 0 1 2-9c9.44 1 11.39 6.21 11.85 9Z" fill="#E2442F" stroke="#000" stroke-width="2" stroke-linecap="round" stroke-linejoin="round"/>
    <path d="M711.509 385.56c-.66.79-1.91 1-3.77 1.58-2.44.77-1.73 2.87-1.65 5.23h-3.08c-.49-2.79-2.44-8-11.9-9 .317-.782.73-1.521 1.23-2.2h19.56c0 .21.05.4.08.59.26 2.06.11 3.14-.47 3.8Z" fill="#E2442F" stroke="#000" stroke-width="2" stroke-linecap="round" stroke-linejoin="round"/>
    <path d="M726.599 392.37h-20.51c-.08-2.36-.791-4.46 1.649-5.23 1.86-.58 3.11-.79 3.77-1.58a31.286 31.286 0 0 0 11.31 3.1c1.42.05 2.451.08 3.211.09l.57 3.62Z" fill="#E2442F" stroke="#000" stroke-width="2" stroke-linecap="round" stroke-linejoin="round"/>
    <path d="M726.008 388.75c-.76 0-1.79 0-3.21-.09a31.286 31.286 0 0 1-11.31-3.1c.58-.66.73-1.74.5-3.8 4.27 3 13.36 2.79 13.36 2.79l.66 4.2Z" fill="#E2442F" stroke="#000" stroke-width="2" stroke-linecap="round" stroke-linejoin="round"/>
    <path d="M727.52 398.3h-38.58a53.864 53.864 0 0 1 .22-5.89h37.44l.92 5.89Z" fill="#fff" stroke="#000" stroke-width="2" stroke-linecap="round" stroke-linejoin="round"/>
    <path d="m654.729 395.31 9.84 13.07h177.77l7.66-13.07h-195.27Z" fill="#000" stroke="#000" stroke-width="2" stroke-linecap="round" stroke-linejoin="round" filter="url(#d)"/>
    <path d="M756.429 359.77a40.207 40.207 0 0 0-37.149 24.822 40.209 40.209 0 1 0 77.359 15.388 40.21 40.21 0 0 0-40.21-40.21v0Zm2.08 60.8a20.6 20.6 0 1 1 .002-41.202 20.6 20.6 0 0 1-.002 41.202v0Z" fill="#000" stroke="#000" stroke-width="2" stroke-linecap="round" stroke-linejoin="round" filter="url(#i)"/>
    <path d="M806.01 378.95h-28.65l-1.86-73.65-58.3-38.95h-2.42v114.82h-26.77l.94-138.82c6.25-.62 11.15 2.32 17.12 2.89 6.39.62 17.15-3.58 30.71-1.22v4.71s48.49 33.47 56.6 40.12c7.63 6.26 8.63 11.83 9.08 16.4.45 4.57 3.55 73.7 3.55 73.7Z" fill="#000" stroke="#000" stroke-width="2" stroke-linecap="round" stroke-linejoin="round" filter="url(#c)"/>
    <path d="M98.36 155.58a.86.86 0 0 0-.72-1.45c-2 .27-3.74 1.8-6 4.54-2.77 3.41-2.91 5-2.66 7.42a8.43 8.43 0 0 0 6.53 7.49c5.48 1.36 7.39.21 10.3-2.41a12.38 12.38 0 0 0 3.54-4.62c.67-1.85-3.08-1.43-9.45 2.39 2.44-1.82 8.25-5.06 8.36-7.17.11-2.11-3.86.56-6.15 2-2.29 1.44-4.26 2.48-4.42 2.11-.16-.37 7.7-4.61 7.82-7.31.07-1.7-8.39 4.38-8.77 3.9-.26-.33 8.77-5.48 7.52-8.11-.82-1.72-9.68 6-10.44 5.32-.54-.51 2.9-2.46 4.54-4.1Z" fill="#FF7051" stroke="#000" stroke-width="2" stroke-linecap="round" stroke-linejoin="round"/>
    <path d="m145.328 191.41-.36 6.83-4.42.83-5.48 1.02v-7.1l5.62-.86 4.64-.72Z" fill="#F1F333" stroke="#000" stroke-width="2" stroke-linecap="round" stroke-linejoin="round"/>
    <path d="m135.969 200.62.11.03 4.11-.28" stroke="#5000FF" stroke-width="2" stroke-linecap="round" stroke-linejoin="round"/>
    <path d="m158.01 187.77-.09 3.33 5.95-.77 1.19-3.46-7.05.9Zm2.06 1.59a.332.332 0 0 1-.306-.206.34.34 0 0 1-.017-.192.337.337 0 0 1 .093-.169.334.334 0 0 1 .363-.065.331.331 0 0 1 .197.312.324.324 0 0 1-.117.255.32.32 0 0 1-.273.065h.06Zm2.37-.21a.32.32 0 1 1 0-.639.32.32 0 0 1 0 .639v0Z" fill="#FFC900" stroke="#000" stroke-width="2" stroke-linecap="round" stroke-linejoin="round"/>
    <path d="M167.4 177.44a65.582 65.582 0 0 1-2.39 9.43l-7.05.9-2.19.28-6.26.8v-6.83l-3.5-2.66-5 1.42a.41.41 0 0 0 0-.07c.82-4.67 1.25-10.5 0-15.44l22.7-3.36c.26.65.5 1.29.72 1.89 1 2.55 1.72 4.51 2 5.2a13.823 13.823 0 0 1 .97 8.44v0z" fill="#FF90E8" stroke="#000" stroke-width="2" stroke-linecap="round" stroke-linejoin="round" filter="url(#e)"/>
    <path d="m149.498 199.82-8.97.53-.34.02-4.22.25-.9.05v-.58l5.48-1.02 4.42-.83 4.53 1.58Z" fill="#000" stroke="#000" stroke-width="2" stroke-linecap="round" stroke-linejoin="round"/>
    <path d="m163.708 161.91-22.7 3.39c-.52-2-1.77-3.24-3-4.62a10.646 10.646 0 0 1-2.31-3.76c-.53-1.53-.15-3.51.66-5.61l22.8-1.38 1.7 4.49 2.85 7.49Z" fill="#e8e841" stroke="#000" stroke-width="2" stroke-linecap="round" stroke-linejoin="round" filter="url(#c)"/>
    <path d="m643.68 225.56-.48 1.69-1.32 4.83-.43 1.56v.01l-2.77-.51 1.56-8.38 3.44.8Z" fill="#000" stroke="#000" stroke-width="2" stroke-linecap="round" stroke-linejoin="round"/>
    <path d="M788.809 392.94h-15.42a25.972 25.972 0 0 1 2.21-7.52v0c5.87-.54 13.77 1.17 13.21 7.52Zm25.56-5.45a27.468 27.468 0 0 0-1.39 5.45h-20.59a7.195 7.195 0 0 1 4.29-6 6.825 6.825 0 0 0 2.8-1.91c2.11.61 9.31 2.59 14.89 2.46Z" fill="#E2442F" stroke="#000" stroke-width="2" stroke-linecap="round" stroke-linejoin="round"/>
    <path d="M815.829 384.05a22.913 22.913 0 0 0-1.54 3.42c-5.58.13-12.78-1.85-14.89-2.47.82-1.14.72-2.76-.7-5.64.094-.136.174-.279.24-.43h.13c1.86 3.72 10.41 3.74 16.76 5.12Zm7.261 8.89h-10.08a27.468 27.468 0 0 1 1.39-5.45c.419-1.18.934-2.324 1.54-3.42 3.47.75 6.29 1.92 7 4.32a8.655 8.655 0 0 1 .15 4.55v0Z" fill="#E2442F" stroke="#000" stroke-width="2" stroke-linecap="round" stroke-linejoin="round"/>
    <path d="M799.009 378.95a2.551 2.551 0 0 1-.24.43c-.08.145-.174.282-.28.41a1.291 1.291 0 0 1-.14.19 2.235 2.235 0 0 1-.26.29.51.51 0 0 1-.15.15c-.1.11-.21.211-.33.3a.647.647 0 0 1-.16.13l-.4.28c-.13.093-.267.176-.41.25a3.524 3.524 0 0 1-.48.24c-.136.078-.28.141-.43.19-.179.08-.363.15-.55.21-.2.07-.4.14-.6.19l-.21.06-.54.13c-.23.06-.46.1-.69.14-.23.04-.47.08-.71.11s-.47.07-.71.09c-2.059.178-4.13.178-6.19 0a59.215 59.215 0 0 1-8-1.06 6.67 6.67 0 0 0 .89-2.71l20.59-.02Zm24.08 13.99a7.445 7.445 0 0 1-2.5 4h-47.53c.03-1.339.14-2.675.33-4h49.7Z" fill="#fff" stroke="#000" stroke-width="2" stroke-linecap="round" stroke-linejoin="round"/>
    <path d="M799.479 385.02a6.812 6.812 0 0 1-2.8 1.91 7.2 7.2 0 0 0-4.29 6h-3.58c.56-6.35-7.34-8.06-13.2-7.52.72-1.51 1.44-2.71 2-3.76 2.64.535 5.313.889 8 1.06 2.06.178 4.131.178 6.19 0 .24 0 .47-.05.71-.09.24-.04.47-.06.71-.11s.46-.08.69-.14l.54-.13.21-.06c.2-.05.4-.12.6-.19.188-.06.371-.13.55-.21.15-.049.294-.112.43-.19.166-.068.327-.148.48-.24.143-.074.28-.157.41-.25.142-.081.276-.174.4-.28a.647.647 0 0 0 .16-.13c.122-.087.233-.187.33-.3a.51.51 0 0 0 .15-.15c.095-.089.182-.186.26-.29.053-.059.099-.123.14-.19.113-.123.207-.261.28-.41 1.35 2.95 1.45 4.53.63 5.67Zm432.991-140.51a16.858 16.858 0 0 0-3.58 4.23c-1.33-1.24-2.8-6.06-2.24-8.09.68.271 1.39.427 2.12.46.29 1.19 1.91 1.66 3.7 3.4Z" fill="#E2442F" stroke="#000" stroke-width="2" stroke-linecap="round" stroke-linejoin="round"/>
    <path d="M1239.68 239.79c-.13 1.14-1.57 2-2.93 4a12.964 12.964 0 0 0-1.81 4.21 12.698 12.698 0 0 0-2.47-3.46c-1.79-1.74-3.4-2.24-3.69-3.41a7.995 7.995 0 0 0 4.6-1.31c2.1.185 4.2.175 6.3-.03v0Z" fill="#F1F333" stroke="#000" stroke-width="2" stroke-linecap="round" stroke-linejoin="round"/>
    <path d="M1241.12 247.16a17.34 17.34 0 0 0-4.37-3.42c1.35-2 2.79-2.83 2.92-4 .45-.05.88-.1 1.29-.18.41-.08.64-.12.94-.19.12.434.2.88.23 1.33.01.057.01.113 0 .17v0c.19 2.28-.25 5.21-1.01 6.29Z" fill="#E2442F" stroke="#000" stroke-width="2" stroke-linecap="round" stroke-linejoin="round"/>
    <path d="M1243.01 262.48h-9.62c-1.56-1.27-3.31-1.39-5.84.36a36.718 36.718 0 0 1-11.4 5.08c-1.46.369-2.98.474-4.48.31-3.74-.52-7.73-2.65-4.54-9.89.49-1.11 1.07-2.28 1.71-3.47 2.53-.72 7.36 0 9.77 2.51-.14.39-.26.77-.38 1.15 3.16-1.9 7.51-3.69 10.56-5.12 4.13-1.93 7.06-2.48 9.85.65.38.432.73.89 1.05 1.37a26.454 26.454 0 0 1 2.08 3.73c.49 1.076.9 2.186 1.24 3.32Z" fill="#F1F333" stroke="#000" stroke-width="2" stroke-linecap="round" stroke-linejoin="round"/>
    <path d="M1218.21 258.53a11.181 11.181 0 0 0-3.64 3.06m22.44-3.47c1.31.62 2 2.69 2.35 4.36m-4.25-3a5.944 5.944 0 0 1 1.68 3" stroke="#000" stroke-width="2" stroke-linecap="round" stroke-linejoin="round"/>
    <path d="M1220.35 253.75a18.212 18.212 0 0 0-1.76 3.63c-2.41-2.51-7.24-3.23-9.77-2.51.74-1.38 1.58-2.79 2.49-4.19 3.96-.15 8.15 2.07 9.04 3.07Z" fill="#E2442F" stroke="#000" stroke-width="2" stroke-linecap="round" stroke-linejoin="round"/>
    <path d="m1254.78 258.3-2.07 4.14h-7.7a7.51 7.51 0 0 1-1.82-4.11c1-.73 1-1.47.36-2.13.37-.803.92-1.506 1.62-2.049.69-.543 1.51-.91 2.38-1.071a4.673 4.673 0 0 1 1.88-.05c1.94.5 4.34.94 5.35 5.27Z" fill="#90A8ED" stroke="#000" stroke-width="2" stroke-linecap="round" stroke-linejoin="round"/>
    <path d="M1250.09 255.8c1.34 1.81 1.32 4.82 1.15 6.68Z" fill="#F1F333"/>
    <path d="M1250.09 255.8c1.34 1.81 1.32 4.82 1.15 6.68m-3.12 0-.21-5.24" stroke="#000" stroke-width="2" stroke-linecap="round" stroke-linejoin="round"/>
    <path d="M1276.12 314.97c-1.13 2.85-8.72 3.75-16.42 3.91-.08-2.796.77-5.538 2.42-7.8l1.13.16c.75.1 1.54.22 2.34.35 2.72.364 5.4.997 8 1.89.94.303 1.81.812 2.53 1.49v0Z" fill="#FF90E8" stroke="#000" stroke-width="2" stroke-linecap="round" stroke-linejoin="round"/>
    <path d="M1262.12 311.08a12.619 12.619 0 0 0-2.42 7.8h-3.3c0-1.56.24-5.82 2.33-8.31l1.54.22 1.85.29Z" fill="#fff" stroke="#000" stroke-width="2" stroke-linecap="round" stroke-linejoin="round"/>
    <path d="M1258.73 310.6c-2.09 2.49-2.32 6.75-2.33 8.31-1.75 0-3.45 0-5-.09-.7-2.41-2.37-5.17-5.91-5.56l1.09-4.47 7.55 1.12 4.6.69Zm-25.36-48.12h-.9V266c-1.94.47-3.16 1.75-5.52 4.08-2.54 2.52-6 6.78-9 9.1a13.873 13.873 0 0 1-2.11-5.438c-.3-1.942-.19-3.928.34-5.822a36.718 36.718 0 0 0 11.4-5.08c2.48-1.75 4.23-1.63 5.79-.36Z" fill="#FF90E8" stroke="#000" stroke-width="2" stroke-linecap="round" stroke-linejoin="round"/>
    <path d="M1276.42 317.19c-2 3-5.2 4.67-8.89 5.55-10.26 2.45-24.06-1.4-24.06-1.4l.7-2.88c1.61.1 4.18.26 7.18.36 1.59.05 3.29.08 5 .09h3.3c7.7-.16 15.29-1.06 16.42-3.91.3.272.49.636.56 1.034.06.398-.01.805-.21 1.156Z" fill="#fff" stroke="#000" stroke-width="2" stroke-linecap="round" stroke-linejoin="round"/>
    <path d="M1251.35 318.82c-3-.1-5.57-.26-7.18-.36l1.27-5.2c3.57.39 5.21 3.15 5.91 5.56Z" fill="#fff" stroke="#000" stroke-width="2" stroke-linecap="round" stroke-linejoin="round"/>
    <path d="M1269.68 278.78c-.08.69-.18 1.39-.29 2.11-1.59 9.7-6.34 21.83-6.81 23-2-1.58-7.45 1.54-8.5 6l-7.55-1.12 6.66-27.26c-7.27 2.56-14.13 5.16-27.42 3.21a12.379 12.379 0 0 1-7.87-5.56c3.07-2.32 6.51-6.58 9-9.1 2.36-2.33 3.58-3.61 5.52-4.08a10.85 10.85 0 0 1 3.58-.14l28 2.45c.4.108.79.259 1.16.45.41.21.81.454 1.19.73 1.85 1.34 3.94 4.04 3.33 9.31Z" fill="#90A8ED" stroke="#000" stroke-width="2" stroke-linecap="round" stroke-linejoin="round" filter="url(#c)"/>
    <path d="M1262.58 303.91v.1" stroke="#5000FF" stroke-width="2" stroke-linecap="round" stroke-linejoin="round"/>
    <path d="m1263.25 311.24-1.13-.16-1.85-.26-1.54-.22-4.65-.69c1-4.46 6.49-7.58 8.5-6 .36.286.6.696.68 1.15.28 2.051.27 4.13-.01 6.18v0Z" fill="#fff" stroke="#000" stroke-width="2" stroke-linecap="round" stroke-linejoin="round"/>
    <path d="M1286.34 296.94a91.848 91.848 0 0 1-3.62 8.74 3.946 3.946 0 0 0-2.4-.91c-3.14-.27-5.62 4-6.45 7.39l-8.27-.57 9.29-33.69a56.766 56.766 0 0 1-5.49 3c.11-.72.21-1.42.29-2.11.61-5.27-1.48-8-3.28-9.29-.38-.276-.77-.52-1.19-.73 5.5-.29 14.13-.94 19.1 0 1.13.135 2.22.54 3.17 1.18 4.64 3.77 3.05 15.73-1.15 26.99Z" fill="#90A8ED" stroke="#000" stroke-width="2" stroke-linecap="round" stroke-linejoin="round"/>
    <path d="m1284.01 312.89-1.82-.14-4.77-.34-3.59-.25c.83-3.35 3.31-7.66 6.45-7.39.88.027 1.72.347 2.4.91 1.47 1.24 1.65 3.73 1.33 7.21Z" fill="#fff" stroke="#000" stroke-width="2" stroke-linecap="round" stroke-linejoin="round"/>
    <path d="M1277.46 312.41a14.04 14.04 0 0 0-.82 3.5c-.09-.355-.27-.68-.52-.94a6.666 6.666 0 0 0-2.49-1.49 41.627 41.627 0 0 0-8-1.89l8.27.57 3.56.25Zm9.72 8.47-9 .16c.41-1.52 1.76-6.08 4-8.29l1.82.14c1.89.15 3.42.28 4.23.37 4.27.46 2.95 4.7-1.05 7.62Z" fill="#FF90E8" stroke="#000" stroke-width="2" stroke-linecap="round" stroke-linejoin="round"/>
    <path d="M1287.18 320.88a14.515 14.515 0 0 1-3.87 2c-2.94 1-10.23 1.89-15.78-.17 1.52-.345 2.98-.879 4.37-1.59l3.06-.05 3.24-.06 8.98-.13Z" fill="#fff" stroke="#000" stroke-width="2" stroke-linecap="round" stroke-linejoin="round"/>
    <path d="M1276.45 317.13a8.042 8.042 0 0 1-1.49 4l-3.06.05a11.856 11.856 0 0 0 4.52-4l.03-.05Z" fill="#FF90E8" stroke="#000" stroke-width="2" stroke-linecap="round" stroke-linejoin="round"/>
    <path d="M1282.23 312.75c-2.27 2.21-3.62 6.77-4 8.29l-3.24.06a8.042 8.042 0 0 0 1.49-4c.21-.371.27-.804.19-1.22.12-1.197.4-2.373.82-3.5l4.74.37Z" fill="#fff" stroke="#000" stroke-width="2" stroke-linecap="round" stroke-linejoin="round"/>
    <path d="M1247.54 253.12c-.87.161-1.69.528-2.38 1.071a5.492 5.492 0 0 0-1.62 2.049c-.86-1-3-1.82-4.94-2.18-2.79-3.13-5.72-2.58-9.85-.65-3 1.43-7.4 3.22-10.56 5.12.12-.38.24-.76.38-1.15.45-1.27 1.04-2.488 1.76-3.63-.89-1-5.08-3.22-9-3.07 3.25-5.05 7.38-10 11.19-12.46h1.06a8.146 8.146 0 0 0 3.09 2.4c-.56 2 .91 6.85 2.24 8.09a16.858 16.858 0 0 1 3.58-4.23 12.594 12.594 0 0 1 2.48 3.45c.35-1.502.95-2.93 1.8-4.22 1.63.899 3.1 2.054 4.37 3.42.76-1.08 1.2-4 1-6.25v-.17c3.26 4.15 5.12 11.11 5.4 12.41Z" fill="#FF90E8" stroke="#000" stroke-width="2" stroke-linecap="round" stroke-linejoin="round"/>
    <path d="M1220.35 253.75a19.557 19.557 0 0 1 5.42-5.55Z" fill="#FF90E8"/>
    <path d="M1220.35 253.75a19.557 19.557 0 0 1 5.42-5.55" stroke="#000" stroke-width="2" stroke-linecap="round" stroke-linejoin="round"/>
    <path d="M1243.56 256.24c-.2.464-.32.957-.36 1.46-.02.223-.02.447 0 .67-.45.322-.94.587-1.45.79a26.454 26.454 0 0 0-2.08-3.73c-.32-.48-.67-.938-1.05-1.37 1.95.36 4.08 1.18 4.94 2.18Z" fill="#90A8ED" stroke="#000" stroke-width="2" stroke-linecap="round" stroke-linejoin="round"/>
    <path d="m1268.69 243.87-10.74 22.83" stroke="#000" stroke-width="2" stroke-linecap="round" stroke-linejoin="round"/>
    <path d="m1295.51 243.49-10 25.07s-.41.07-1.16.16c-5-.9-13.6-.25-19.1 0-.4-.187-.81-.328-1.24-.42l-28-2.45a8.002 8.002 0 0 0-4 .59v-4h20.66l2.07-4.14 8-16h31.93c.14 0 .28.034.41.099.13.066.24.161.32.278.08.116.13.251.15.393.02.141.01.285-.04.42v0Z" fill="#000" stroke="#000" stroke-width="2" stroke-linecap="round" stroke-linejoin="round"/>
    <path d="m1269.54 244.11-10.64 22.95s19.81 0 25.24.5c1.78-4.79 7.7-19.91 9-23.1a.487.487 0 0 0 .02-.208.364.364 0 0 0-.08-.195.378.378 0 0 0-.16-.134.401.401 0 0 0-.2-.043l-23.18.23Z" fill="#fff" stroke="#fff" stroke-width="2" stroke-miterlimit="10" filter="url(#e)"/>
    <path d="m1314.94 345.99 101.08 115.55m-7.76.6-98.57-116.15m-435.561.29 97.83 115.48m-107.15-115.48 97.83 115.48m-552.24.39-99.28-116.16m92.109 116.16-97.33-116.16" stroke="#000" stroke-width="2" stroke-miterlimit="10" stroke-linecap="round"/>
    <path d="M534.01 136.105h-70.54a26.43 26.43 0 0 1-18.709-7.737 26.44 26.44 0 0 1-7.751-18.703 26.427 26.427 0 0 1 7.744-18.716 26.43 26.43 0 0 1 18.716-7.744h70.54a26.442 26.442 0 0 1 26.44 26.44l116.07 6.74c.16 0 .16.26 0 .26-18.27.42-109.95 2.51-118 2.87a26.46 26.46 0 0 1-24.51 16.59z" fill="#fff" stroke="#000" stroke-width="2" stroke-miterlimit="10" filter="url(#j)"/>
    <path d="M473.559 114.51a47.97 47.97 0 0 1 .64-8.94c2.29 2.88 9.06 8.94 9.06 8.94l.3-10.43m13.039 0-7.2.63-1 10.41 7.42-.62m-6.888-4.9h6.77m4.509 5.92s1.72-7.63 5.73-10.72c2.67.87 1.72 10.72 1.72 10.72m-5.94-4.57 6.1-.42m3.931-4.61 10-1.13m-4.512.51v9.82m9.09-11.95-.25 6.99m-.359 5.22a.61.61 0 1 0 0-1.22.61.61 0 0 0 0 1.22Z" stroke="#000" stroke-width="2" stroke-linecap="round" stroke-linejoin="round"/>
    <path d="M1373.17 285.91h-10.89l-4.96-40.04h11.44l4.41 40.04Z" fill="#98282A" stroke="#000" stroke-width="2" stroke-miterlimit="10" stroke-linecap="round" filter="url(#g)"/>
    <path d="m1183.08 322.8 2.83-7.61m-6.63 7.86 1.56-14.66m-15.23 14.94-7.63-11.14m7.29 7.3-5.18-12.2m205.15 21.38-4.78-6.33m5.88 3.16-4.05-11.7m18.25 9.13 3.76-12.66m-7.28 10.74 2.35-11.33m-292 34.87 4.34-8.82m-6.21-7.52-2.48 17.47m-7.08-23.34 3.52 23.34m-9.69-9.04 6.17 8.86m270.93 105.73-7.54 12.38m0-28.31-3.51 25.44m-8.66-14.92 3.08 17.05m-1042.001-8.81-8.01 17.94m0-36.9-.51 22.33m-10.629-14.95 6.36 24.11m363.189-137.87-8.02 17.94m0-36.9-.51 22.33m-10.621-14.95 6.36 24.11m842.462 8.31 8.49-19.74m-13.4 15.75 4.19-26.6m-8.38 24.04-3.58-24.55m-1078.681 10.5-12.09 17.03m-2.771-23.07-1.51 23.07m-16.119-35.47 10.95 35.47M68.668 249.65l-7.68 16.92m-4.618-26.08v21.02m-13.34-20.06 6.19 23.28m1394.77-56.75-9.86 11.81m1.16-19.89-5.54 20.14m-5.39-16.6v16.72m-13.01-.94.2-.24 5.5-6.68m-13.58-12.94 7.19 19.17m-16.01-11 14.35 10.76m-195.55-81.88-4.04 19.19m-5.88-9.35 3.07 8.95m-12.73-16.95 6.54 15.77m-17.39-19.98 6.46 19.49m-12.7-.14-4.03-20.98m-9.09-3.11 12.65 24.23m-210.072-37.14-.57 5.17m-6.399-11.4-.96 8.81m-4.649-11.6v9.74m-25.471-19.06 1.471 7.43" stroke="#000" stroke-width="2" stroke-miterlimit="10" stroke-linecap="round"/>
    <path d="M352.969 258.5h7.21l6.77-97.01h-6.99l-6.99 97.01Zm3.65 0 7.11-97.01m-33.139 97.46-.67-107h-6.53l-.89 104.67 4.04 2.33h4.05Zm-4.051-107v107M366.478 188h-25.15m16.511 2.9h-15.45m-21.36-5.3h19.38m-10.03-2.53h9.86m-5.18 65.31 4.71 9.19m5.911-12.84-4.34 11.6m7.19-5.79c-.31 0-6.28 6.79-6.28 6.79m-.922-.45v-81.34m.961 1.19c2.6-4.86 4.13-9.06 7.11-11.41 2.98-2.35 9.29-9.12 17.2-20.87a165.476 165.476 0 0 0 19.09-36.41c4.61-11.7 5.39-17.37 5.39-17.37m-49.069 84.87s.84-7.72 3.07-12.07c4.71-9.2 12.13-19.95 16.05-29.77s9.88-23.3 14.04-53.4m-33.842 19.02v82.01M330.589 80.3c-6.24 35.25 5.67 83 11.41 97.13" stroke="#000" stroke-width="2" stroke-linecap="round" stroke-linejoin="round"/>
    <path d="M292.828 102.91c7.1 43.84 41.63 65.37 47.58 76" stroke="#000" stroke-width="2" stroke-linecap="round" stroke-linejoin="round"/>
    <path d="M286.229 123.4c2.59 10.62 2 14.16 7.95 21 8.63 9.94 27.41 19.47 37.54 24.53" stroke="#000" stroke-width="2" stroke-linecap="round" stroke-linejoin="round"/>
    <path d="M290.196 131.22c-1.979-.81-3.208-1.23-3.686-1.16-.479.07.543 2.36-1.785 4.49-1.227 1.089-2.034 2.423-2.328 3.85-.323.43-2.353.59-3.142-.85-.97-1.78-1.59-5.71 1.19-8 2.78-2.29 5.38-1.93 6.35-1.32.93.278 1.885.502 2.858.67l.543 2.32zm.273 7c1.24-1.87 2.58-3.31 5.27-3.34a4.927 4.927 0 0 1 5 3.47 7.002 7.002 0 0 1 0 3.59c-.16.48-.92.76-1.62 0a3.578 3.578 0 0 0-2.53-1.24 10.576 10.576 0 0 1-3.62-2.05c-.56-.38-1.29 1.12-1.29 1.12l-1.21-1.55Zm24.181 12.9c-3.18-1.34-9.86-2.49-12.44-2.75-1.71-.17-1.15-3.71 4.74-2.5 5.89 1.21 6.09 2.5 6.09 2.5l1.61 2.75Zm-6.801-10.07c1-2.39 3.89-1.14 5-.69 1.11.45 4 1.64 4.57 0 .57-1.64-1-3.68-2.49-4.13a12.559 12.559 0 0 0-6.25.64 3.219 3.219 0 0 0-1.87 1.8l1.04 2.38Z" fill="#000" stroke="#000" stroke-width="2" stroke-linecap="round" stroke-linejoin="round"/>
    <path d="M304.898 135.18c0-1.31.3-4 .3-4s3.77 1.88 6.92.5c2.86-1.25.14-4.2-4.28-4.05-4.42.15-4.45 1.49-4.53 2-.08.51-.15 2.79-.15 2.79l1.74 2.76Z" fill="#1aeb1a" stroke="#000" stroke-width="2" stroke-linecap="round" stroke-linejoin="round"/>
    <path d="M298.219 121.48c0-.16.31-2.44 1-2.94a11.788 11.788 0 0 1 6.13-.86c2.84.25 3.79 2.83 3.77 4.94-.02 2.11-.69 3-1.83 2.31-1.14-.69-3.42-3.75-6.57-4.06a13.677 13.677 0 0 0-1 3.88 15.934 15.934 0 0 1-1.5-3.27v0Z" fill="#67e767" stroke="#000" stroke-width="2" stroke-linecap="round" stroke-linejoin="round"/>
    <path d="M297.71 122.48c-2.46-1.69-7-3-8.38.13-.33.78 0 2.71 1.34 2.54 1.34-.17 2.83-1.62 4.68-1.45 1.85.17 3.66 2.25 3.66 2.25l-1.3-3.47Z" fill="#1aeb1a" stroke="#000" stroke-width="2" stroke-linecap="round" stroke-linejoin="round"/>
    <path d="M297.39 118.3c.85-2.86 1.26-3.5 1.83-3.56.57-.06 5.36.35 7.09-.53 1.73-.88-.39-2.45-2.14-2.6-1.75-.15-4.29-.15-5.77 1.11a5.999 5.999 0 0 0-1.81 3.23l.8 2.35Zm-1.771-6.1s4.56-2 4.32-3.45c-.24-1.45-2.51-.9-4.93.79l-.12 1.19.73 1.47Zm-1.889-2.84c-1.92-1.09-4.81-1.56-5.81-.73-1 .83 1.52 2.39 3.56 2.71 2.04.32 2.82.49 2.82.49l-.57-2.47Zm35.909 12.94c-1.54-2.11-3.39-3.71-5.22-3.61-1.83.1 0 3.29 1.86 4.4a4.01 4.01 0 0 0 3.36.48v-1.27Z" fill="#000" stroke="#000" stroke-width="2" stroke-linecap="round" stroke-linejoin="round"/>
    <path d="M330.279 121.38c1.53-2.28 1.69-5.1 2.89-6.18 1.2-1.08 3.36-.93 2.07 2.1-1 2.33-3.41 6.57-4.51 6.22-1.1-.35-.45-2.14-.45-2.14Z" fill="#67e767" stroke="#000" stroke-width="2" stroke-linecap="round" stroke-linejoin="round"/>
    <path d="M328.679 100.23a4.56 4.56 0 0 0-5.21-.9 7.521 7.521 0 0 0-4.31 6.69c-.17 2.48 4.4 1.75 5.67-.21a12.43 12.43 0 0 0 1.84-4.61l1.62 1.58.39-2.55Z" fill="#1aeb1a" stroke="#000" stroke-width="2" stroke-linecap="round" stroke-linejoin="round"/>
    <path d="M329.639 95.58a8.452 8.452 0 0 1 2.83-2.79c-.36 2.61.72 6.64 2.12 6.64 1.4 0 1.95-2.18 1.88-4.39-.07-2.21.16-4.63-2.24-5.17-2.4-.54-3.13 2.34-4.75 3.8l.16 1.91zm-.16-9.41a4.004 4.004 0 0 0-4-.92c-2.6.56-3.26 5.13-2.83 7.21.43 2.08 2.06 1 2.83-.67s1.48-3.39 3.82-3l.18-2.62Z" fill="#67e767" stroke="#000" stroke-width="2" stroke-linecap="round" stroke-linejoin="round"/>
    <path d="M340.71 136.79s-2.07-2.37-2.91-2.58c-.84-.21-2.25.46-1.44 1.82a6.481 6.481 0 0 0 4.23 3.19c.06-.78.12-2.43.12-2.43Zm1.189-2.14c1.88-2.3 3.48-3 4.83-3.17 2.49-.22 4.29 1.44 5 .2s-1-3.46-3.19-3.64c-2.19-.18-5.39 2.67-6.41 3.66l-.34 2 .11.95Z" fill="#000" stroke="#000" stroke-width="2" stroke-linecap="round" stroke-linejoin="round"/>
    <path d="m339.537 138.38 3.263-.72s-1.509 2.65 0 4.13c1.51 1.48 2.815 2.48 4.868 2.13 2.053-.35 1.89-2.58 1.36-3.59-.53-1.01-.897-4.31-3.209-4.67-2.312-.36-4.338.58-6.527.68l.245 2.04zm1.142-14.03c-1.85-1.31-2.72-.81-4.91.17-2.19.98-1.35-3.35-.5-4.34.85-.99 3.169-1.29 5.539.19l-.129 3.98Z" fill="#000" stroke="#000" stroke-width="2" stroke-linecap="round" stroke-linejoin="round"/>
    <path d="M341.859 117.5c1.65-1.76 3.27-2.71 5.16-2.27 1.89.44 4.13 5.07 4.11 6.47-.02 1.4-1.46 1-2.63.11a3.349 3.349 0 0 0-4-.55 5.302 5.302 0 0 0-2.71 2.28l.07-6.04Z" fill="#41e841" stroke="#000" stroke-width="2" stroke-linecap="round" stroke-linejoin="round"/>
    <path d="M340.85 106.11c-2.56-1.31-4.5-2.14-5.66-1.29-1.16.85.22 3.21 2.59 3.78 2.37.57 3.32-.26 3.32-.26l-.25-2.23Zm1.02-3.81c2-1.76 3.31-2.34 4.46-2.22 1.15.12 1.46 1.9.14 3.66a29.29 29.29 0 0 1-4.6 4.38c-.43.29-.35-3-.35-3.11 0-.11.35-2.71.35-2.71Zm21.579 24.17c-1.07-1-5.74-3.78-7.78-3.7-2.04.08.32 3.65 2.38 4.64 2.06.99 3.76 1.53 4.86 1.21 1.1-.32.54-2.15.54-2.15Zm8.56.71c.2-1.23-2.2-1.51-4.08-1.44-1.88.07-3.81.31-3.81.31l-.66 2.66c1.804.283 3.638.314 5.45.09 2.15-.43 2.96-.6 3.1-1.62Zm-3.33-14.67c-.27-1-2.28-5.1-3.29-5.33-1.01-.23-3.51 1.79-4.61 3.93-1.1 2.14-3 5.49-1.85 6.27 1.15.78 3.63-.32 5-3.08a20.551 20.551 0 0 0 1.56-3.67l2.34 3.31.85-1.43Zm1.33-3.38c2.25-1.66 2.66-2.4 4.66-2.4s5.71-.26 7.34 3.51c.47 1.25-2.08 2.29-4.66 1.56s-4.16-2.06-5.61-2c-1.45.06-2.38 2.19-2.38 2.19l.65-2.86Zm3.15-19.12s-3-3.14-4.71-3.47c-1.71-.33-6.27 8.38-5.4 10.75.87 2.37 5.94.07 6.47-3.94a31.73 31.73 0 0 0 .4-3.74s2.41 1.1 3 2.27c.48-.23.24-1.87.24-1.87Z" fill="#000" stroke="#000" stroke-width="2" stroke-linecap="round" stroke-linejoin="round"/>
    <path d="M373.539 94.89a23.987 23.987 0 0 1 4.4-1.7c.05 2.08-.3 7.27 2.29 8.69s3.73 1.17 3.44-2.86c-.29-4.03-2.05-7.2-3.87-7.94-1-.41-6.15 1.87-6.15 1.87l-.11 1.94Z" fill="#67e767" stroke="#000" stroke-width="2" stroke-linecap="round" stroke-linejoin="round"/>
    <path d="M374.709 87.52c2.28-1.39 4.18-2.7 5.21-2 1.03.7-1.15 4-2.61 5a3.001 3.001 0 0 1-3.27.28l.67-3.28Zm-12.089 56.16c-1.54 0-2.43 1.93-1.3 3.6.446.737.991 1.41 1.62 2l1.37-2.45s-.5-2.97-1.69-3.15Z" fill="#000" stroke="#000" stroke-width="2" stroke-linecap="round" stroke-linejoin="round"/>
    <path d="M363.42 149.71c2.47.81 2.28 2.3 5.55 2.15 3.27-.15 3.82-1.06 3.72-2.15-.1-1.09-1.27-2-3.21-2.35-1.94-.35-3.76.13-4-.19-.24-.32-2.06 2.54-2.06 2.54Z" fill="#41e841" stroke="#000" stroke-width="2" stroke-linecap="round" stroke-linejoin="round"/>
    <path d="M368.489 142.41s6.84-.94 7.35-.94c.43-.81 1.72-1 4.34.94a12.4 12.4 0 0 1 4.66 7.32c.59 2.7-3.86.62-5.15-1.1-1.29-1.72-2.77-5.06-3.69-5.39-.92-.33-8.86 1.11-8.86 1.11l1.35-1.94Zm5.93-11.06a8.36 8.36 0 0 0-4.72-.45 3.648 3.648 0 0 0-2.24 2.41c-.06.91 1 1.4 1.95.93a3.165 3.165 0 0 0 1.29-1.85 4.59 4.59 0 0 1 2.64.43l1.08-1.47Zm1.159.06s2.3 0 3.69-.1c1.39-.1 2.42-.08 3.64 1.93 1.22 2.01 1.92 3.53 2 4.71.08 1.18-1.51 1.1-2.83-.8-1.32-1.9-1.28-4-2.32-4.17-1.04-.17-4.85-.12-4.85-.12l.67-1.45Zm10.977 104.98c-1.65-4.17-2.41-5.78-3.83-6.3-1.42-.52-1.72 3.1-.32 5.24s1.93 3.73 3.11 3.44c1.18-.29 1.04-2.38 1.04-2.38zm-14.667 13.333c-1.65-4.17-2.41-5.78-3.83-6.3-1.42-.52-1.72 3.1-.32 5.24s1.93 3.73 3.11 3.44c1.18-.29 1.04-2.38 1.04-2.38zm-72-12c-1.65-4.17-2.41-5.78-3.83-6.3-1.42-.52-1.72 3.1-.32 5.24s1.93 3.73 3.11 3.44c1.18-.29 1.04-2.38 1.04-2.38zm85.333 13.334c-1.65-4.17-2.41-5.78-3.83-6.3-1.42-.52-1.72 3.1-.32 5.24s1.93 3.73 3.11 3.44c1.18-.29 1.04-2.38 1.04-2.38zM380.84 120.86c2.56-.42 7.3-2 9.57-1.23 2.27.77-1.66 3.65-5.52 3.65h-5.37l1.32-2.42Zm4.958-14.56c-1-1.6-2.66-2.36-3.71-1.48-1.05.88 2.3 2.74 2.32 4.55.6-.32 1.39-3.07 1.39-3.07Zm1.111-.75c2.78-2.07 8.56-4.38 14.13-1.29 1.26.68 1.22 2.07-3.06 2.14a16.787 16.787 0 0 0-13.62 6.66c1.19-4.04 2.55-7.51 2.55-7.51Z" fill="#000" stroke="#000" stroke-width="2" stroke-linecap="round" stroke-linejoin="round"/>
    <path d="M1137.13 159.62v-49.46H976.549v18.2l-146.86.12a.117.117 0 0 0-.085.115c0 .026.008.051.023.072.016.02.037.036.062.043l146.86 7.59v23.31l160.581.01Z" fill="#fff" stroke="#000" stroke-width="2" stroke-miterlimit="10" filter="url(#j)"/>
    <path d="m1016.61 135.01 6.78-.12m43.63 1.75 6.72-.4m16-1.31 5.91-.04m-94.5 4.83.76-8.55 9.04 8.55.49-10.51m12.68 0-6.97.94-1.17 10.65 7.47-1.08m5.19-9.12s1 7.86 2.68 8.75c1.06-1.61 3.51-6.74 3.51-6.74l3.68 7.11 2.9-10m18.79-.01c-5.4-.67-8.39 4.13-1.06 5.18 5.86.84 1.68 8.42-6.3 3.91m12.79 1.86s2.64-9.32 6-10.71c3.17 2.21 1.93 10.71 1.93 10.71m4.85-10.52s-1.54 8.06-.2 9.58a41.87 41.87 0 0 0 6.35-.79m12.63-9.29-6.77.5-1.49 10.52 7.16-.94m6.42-11.45-.6 7.36m0 5.39a.801.801 0 0 0 0-1.6.801.801 0 0 0 0 1.6Z" stroke="#000" stroke-width="2" stroke-linecap="round" stroke-linejoin="round"/>
    <path d="M1310.791 199.107c-7.575-3.329-16.505-2.248-20.321-.681-3.816 1.567-6.21 4.867-.147 7.203 6.063 2.336 20.118-.974 22.715 3.835 3.172 5.937-8.242 9.597-23.787 4.088" stroke="#e8e841" stroke-width="2" stroke-linecap="round" stroke-linejoin="round" filter="url(#k)" opacity=".97"/>
    <path d="M53.01 112.737h18.57l21.27 23.46c.04.04.092.068.15.073a.237.237 0 0 0 .256-.177.24.24 0 0 0-.016-.166l-12.38-23.19h18.89v-36.51H53.01v36.51z" fill="#fff" stroke="#000" stroke-width="2" stroke-miterlimit="10" filter="url(#e)"/>
    <path d="M72.026 79.978v23.83m3.85-23.22v23.69" stroke="#000" stroke-width="2" stroke-linecap="round" stroke-linejoin="round"/>
    <path d="M80.91 85.188c-4.98-3.41-10.85-2.3-13.358-.69-2.509 1.61-4.082 5-.097 7.4 3.985 2.4 13.232-1 14.93 3.94 2.086 6.09-5.409 9.85-15.635 4.2" stroke="#000" stroke-width="2" stroke-linecap="round" stroke-linejoin="round" filter="url(#l)"/>
    <path d="M1280.68 145.3c15.52 1.84 20.15 1.84 24.3-2.89 6.17 6 19.47 6.37 26.42 1.35 5.88 6 11.95 8.49 21.89 7.43m-71.39-16.02c16.87 2.74 21.07 1.19 25.17-2.37 6 5.93 13.69 7.94 28.47.36a16.286 16.286 0 0 0 17.99 6.217c2.17-.65 4.18-1.745 5.91-3.217 8.3 7.48 16 6 22.53 3.91m-97.33-11.84c11.46 1.78 18.28.7 27.07-5.82 4 7.8 15.61 9.28 30 1.58 4.84 12.35 22 3 24.69 1.75 2.87 6.94 13.24 4.87 20.16 2 7.11 6.82 15.51 2.87 21.83 1.58 9 4.84 18-1.18 18-1.18M1245.01 74.9h5.44c3.43 0 12.24-4.15 12.24-4.15 0 5.23 10.66 6.44 21.61-.36 1.22 9.09 18.68.43 18.68.43-.86 6.3 11.31 3.51 16.82.29 2.65 5.87 17.18 1.63 17.18 1.63" stroke="#000" stroke-width="2" stroke-linecap="round" stroke-linejoin="round"/>
    <path d="M442.598 59.19c-.16-2.87 2-6.13 7.17-5 1.83-3.7 4.35-3.26 6.38-2.35 1-2.91 4.05-5 7.6-3.56 2-3.89 6.66-3.77 9.69-2.14 2.63-2.75 6.69-2.07 9 .24 1.91-2.91 7.09-2.67 9.32-.2 2.27-2.71 7.57-2.63 10.12-.83 2.27-1.64 7-1.32 8.37.24a8.882 8.882 0 0 1 10.92-.44c2-2.55 7.49-2.47 10-.2 3.3-3.39 8.17-.56 8.44.12 5.5-3.67 8.65-1.24 9.61 0 4.3-2.55 7.53-1.91 9.2-.08a7.48 7.48 0 0 1 9.6 0c3.83-3.15 8-1.52 10.4 0 3.19-2.79 7.1-3.31 10.52 0 3.55-3.59 8.89-2.35 10.28-.08a9.833 9.833 0 0 1 12 .32c4.7-3.83 8.13-.36 8.72.55 1.64-3.18 7-2.11 7.69-.07 2.51-3.55 7.37-.24 7.85 1.07 3.43-2.07 7.53.12 7.45 3.11 3.51-2 7.61.64 7.22 3 5.46-.48 6.21 2.27 6.29 3.5 3.79-.47 3.91 2.44 3.91 2.44l-217.75.36ZM1 59l94.41-.08s-.12-2.91-3.9-2.44c-.08-1.23-.84-4-6.3-3.5.4-2.35-3.71-5-7.21-3 .08-3-4-5.18-7.45-3.11-.48-1.31-5.34-4.62-7.85-1.07-.72-2-6.06-3.11-7.69.07-.6-.91-4-4.38-8.73-.55a9.82 9.82 0 0 0-12-.32c-1.4-2.27-6.74-3.51-10.28.08-3.43-3.35-7.33-2.83-10.52 0-2.47-1.59-6.61-3.22-10.47-.07-.72-.58-.85-1.19-2.01-1.51V59Z" fill="#000" stroke="#000" stroke-width="2" stroke-miterlimit="10" filter="url(#e)"/>
    <path d="M341.528 1.69h-103.54v57.5h103.54V1.69Z" stroke="#000" stroke-width="2" stroke-miterlimit="10"/>
    <path d="M242.208 1.69h-4.22v57.5h4.22V1.69Zm94.262 0h-4.22v57.5h4.22V1.69Z" fill="#000" stroke="#000" stroke-width="2" stroke-miterlimit="10"/>
    <path d="M247.398 1.69v57.5M262.059 1.7v45.6a17.547 17.547 0 0 0 16.61 0V1.7h-16.61Zm45.951-.01v40.45m-11.272.47 11.27-30.65 11.52 31.69-22.79-1.04Z" stroke="#000" stroke-width="2" stroke-miterlimit="10"/>
    <path d="M317.059 40.68h-19.19a4.838 4.838 0 0 0-4.84 4.835 4.838 4.838 0 0 0 4.84 4.835h19.19a4.838 4.838 0 0 0 4.84-4.835 4.838 4.838 0 0 0-4.84-4.835Z" fill="#000" stroke="#000" stroke-width="2" stroke-miterlimit="10"/>
    <path d="M385.469 51.45h-25.99v2.89h25.99v-2.89Zm-4.77 2.89h-21.22v4.85h21.22v-4.85Z" stroke="#000" stroke-width="2" stroke-miterlimit="10"/>
    <path d="m359.469 51.45-17.94-37.4h18.86l18.95 37.4" fill="#FFC900"/>
    <path d="m359.469 51.45-17.94-37.4h18.86l18.95 37.4" stroke="#000" stroke-width="2" stroke-linecap="round" stroke-linejoin="round"/>
    <path d="M361.27 1h-8.75v13.55h8.75V1Z" fill="#000" stroke="#000" stroke-width="2" stroke-miterlimit="10"/>
    <path d="M360.42 2.66h-4.49v10.48h4.49V2.66Z" fill="#fff" stroke="#000" stroke-width="2" stroke-miterlimit="10"/>
    <path d="m191.01 263.98-7 4.24a5.677 5.677 0 0 0-3.17 0c-4.55-6.94-12.62-19.26-14.35-22.1a20.324 20.324 0 0 1-3.07-7.14c-.47-1.76-7.15-30.6-7.15-30.6l-1 73.83h-9.26c-.89-1-2.05-.9-3.29.38l-.38-18.13s-1.82-54.77-1.82-61.23v-2.85l9-.53v-7.73l6.12-.73.14-3.31 2.19-.28-.09 3.33 5.95-.77c-1.27 3.54-2.37 6-2.37 6l2.38 1-2.45 2.85a26.542 26.542 0 0 0 6.82 4.8l2.64-4.73.57.24s5.38 23 5.69 24.2c.31 1.2 3.76 15.28 3.91 15.87.15.59 7.25 17 9.99 23.39Z" fill="#d50bd5" stroke="#000" stroke-width="2" stroke-linecap="round" stroke-linejoin="round" filter="url(#e)"/>
    <path d="M161.38 200.2a14.86 14.86 0 0 1-2.45-3.19Z" fill="#FF90E8"/>
    <path d="M161.38 200.2a14.86 14.86 0 0 1-2.45-3.19m-2.68 11.34-4.73-2.79" stroke="#000" stroke-width="2" stroke-linecap="round" stroke-linejoin="round"/>
    <path d="M724.059 243.44v10.38s55.65 36.37 60.48 39.92c5.63 4.15 4.57 8.24 4.76 17.68l2.51 67.53" stroke="#23A094" stroke-width="2" stroke-linejoin="round"/>
    <path fill="#e7e767" stroke="#000" stroke-width="2" stroke-linecap="round" d="M91.55 469.051c1.51-4.943 3.577-9.129 5.537-11.215 2.1-2.235 1.168-3.205-.998-1.039-.911.912-1.172.25-1.172-2.977 0-7.7 3.992-12.465 13.595-16.228 8.127-3.185 14.118-6.766 16.602-9.924l2.024-2.574v4.478c0 5.536-1.718 13.9-3.619 17.622-2.017 3.948-8.93 11.236-12.322 12.99-3.04 1.572-9.53 2.035-13 .927-1.729-.552-2.277-.13-3.173 2.44-.596 1.708-1.083 4.14-1.083 5.402 0 1.433-.575 2.295-1.53 2.295-1.136 0-1.358-.568-.86-2.197h0z" style="color:#007a01"/>
    <path fill="#d5d50b" stroke="#000" stroke-width="2" stroke-linecap="round" d="M1292.948 450.817c1.258-4.119 2.98-7.607 4.613-9.346 1.75-1.862.973-2.67-.832-.865-.76.76-.976.208-.976-2.482 0-6.416 3.326-10.387 11.33-13.523 6.771-2.654 11.764-5.638 13.834-8.27l1.687-2.145v3.732c0 4.613-1.432 11.583-3.016 14.685-1.68 3.29-7.442 9.364-10.269 10.826-2.533 1.31-7.942 1.695-10.833.772-1.44-.46-1.898-.109-2.644 2.033-.497 1.424-.903 3.45-.903 4.501 0 1.195-.479 1.913-1.275 1.913-.946 0-1.131-.473-.716-1.83h0z" style="color:#007a01"/>
    <path fill="#e7e767" stroke="#000" stroke-width="2" stroke-linecap="round" d="M-39.53 355.648a.99.99 0 0 1 .18-.363c.067-.073.037-.104-.033-.034-.03.03-.038.008-.038-.096 0-.25.13-.404.44-.526.263-.103.457-.219.537-.32l.066-.084v.145c0 .18-.056.45-.117.57-.066.128-.29.364-.4.42a.694.694 0 0 1-.42.03c-.056-.017-.074-.004-.103.08a.66.66 0 0 0-.035.174c0 .047-.018.075-.05.075-.036 0-.043-.019-.027-.071h0zm344.515 17.691c.604-1.978 1.43-3.652 2.215-4.487.84-.894.467-1.281-.4-.415-.364.365-.468.1-.468-1.191 0-3.08 1.596-4.986 5.438-6.491 3.25-1.274 5.647-2.707 6.64-3.97l.81-1.03v1.792c0 2.214-.687 5.56-1.448 7.049-.806 1.579-3.572 4.494-4.929 5.196-1.215.629-3.812.814-5.2.37-.69-.22-.91-.052-1.269.976-.238.684-.433 1.656-.433 2.161 0 .573-.23.918-.612.918-.454 0-.543-.227-.344-.878h0zm116.397 25.564c.956-3.13 2.265-5.782 3.506-7.103 1.33-1.416.74-2.03-.632-.658-.577.577-.742.158-.742-1.886 0-4.876 2.528-7.894 8.61-10.278 5.147-2.017 8.941-4.285 10.515-6.285l1.282-1.63v2.836c0 3.506-1.088 8.804-2.292 11.161-1.278 2.5-5.656 7.116-7.805 8.227-1.925.996-6.036 1.289-8.233.587-1.095-.35-1.442-.082-2.01 1.545-.377 1.082-.685 2.622-.685 3.422 0 .907-.364 1.453-.97 1.453-.718 0-.859-.36-.544-1.391h0zm152.308 67.692c.956-3.13 2.264-5.781 3.506-7.103 1.33-1.415.74-2.03-.632-.658-.577.578-.742.159-.742-1.885 0-4.877 2.528-7.895 8.61-10.278 5.147-2.017 8.941-4.285 10.514-6.285l1.282-1.63v2.835c0 3.507-1.088 8.804-2.292 11.161-1.277 2.5-5.655 7.117-7.804 8.228-1.925.995-6.036 1.288-8.233.587-1.095-.35-1.442-.083-2.01 1.545-.377 1.082-.686 2.621-.686 3.42 0 .909-.364 1.455-.969 1.455-.719 0-.86-.36-.544-1.392h0z" style="color:#007a01"/>
    <path fill="#e8e841" stroke="#000" d="M1068.897 426.457c.956-3.13 2.265-5.782 3.506-7.103 1.33-1.416.74-2.03-.632-.658-.577.577-.742.158-.742-1.886 0-4.876 2.528-7.894 8.61-10.278 5.147-2.017 8.942-4.285 10.515-6.285l1.282-1.63v2.836c0 3.506-1.088 8.804-2.292 11.16-1.277 2.501-5.656 7.117-7.804 8.228-1.925.996-6.036 1.289-8.233.587-1.095-.35-1.443-.082-2.01 1.545-.377 1.082-.686 2.622-.686 3.421 0 .908-.364 1.454-.97 1.454-.718 0-.859-.36-.544-1.391z" style="color:#007a01"/>
    <path fill="#ebeb1a" stroke="#ebeb1a" stroke-width="2" stroke-linejoin="round" stroke-linecap="square" d="m1429.323 100.615-7.692 10.77m4.615-20h-6.154m21.538-21.539V66.77m15.385 9.23 9.231-9.23m-7.692 16.922h6.154"/>
    <path stroke="#ebeb1a" stroke-width="2" stroke-linejoin="round" stroke-linecap="square" d="M1443.17 102.154v4.615m13.665-11.962 14.35 9.92"/>
    <path fill="#009899" stroke="#ebeb1a" stroke-width="2" stroke-linejoin="round" stroke-linecap="square" d="m1415.477 69.846 12.308 7.692"/>
    <path stroke="#e8e841" stroke-width="2" stroke-linejoin="round" stroke-linecap="round" opacity=".97" d="m1293.829 189.571 5.714 28.572m2.857-30 2.857 27.143"/>
    <path d="M1167.92 113.123h-18.57l-21.28 23.46a.236.236 0 0 1-.16.097.257.257 0 0 1-.18-.042.236.236 0 0 1-.09-.156.229.229 0 0 1 .04-.179l12.38-23.18h-18.89v-36.51h46.75v36.51z" fill="#000" stroke="#000" stroke-width="2" stroke-miterlimit="10" filter="url(#e)"/>
    <path d="M1152.912 88.47c-6.37-2.836-13.879-1.916-17.088-.58-3.208 1.335-5.221 4.147-.123 6.138 5.098 1.991 16.917-.83 19.1 3.268 2.668 5.06-6.93 8.18-20.002 3.484" stroke="#e8e841" stroke-width="2" stroke-linecap="round" stroke-linejoin="round" filter="url(#k)" opacity=".97"/>
    <path stroke="#e8e841" stroke-width="2" stroke-linejoin="round" stroke-linecap="round" opacity=".97" d="m1148.312 79.47 2.857 28.572m-12.857-27.143 2.857 28.571"/>
    <path d="M1325.172 223.256h-20.014l-22.934 27.923a.252.252 0 0 1-.172.116.256.256 0 0 1-.194-.05.288.288 0 0 1-.097-.186.295.295 0 0 1 .043-.213l13.342-27.59h-20.358V179.8h50.384v43.456z" fill="#fff" stroke="#000" stroke-width="2" stroke-miterlimit="10" filter="url(#m)"/>
    <path fill="#fff" stroke="#000" stroke-width="2" d="M1466.547 262.607c-1.172-.529.358-1.586.937-2.053.39-.36-2.236.05-1.127-1.2 1.216-1.02.756-2.749-.46-3.552-1.673-1.13-3.82-2.096-4.438-4.206-.625-1.314.857-2.698-.096-3.885-.767-1.54.13-3.147.686-4.574.257-1.974-1.313-3.536-2.177-5.158a10.042 10.042 0 0 1-1.773-5.238c-.233-.803.024-2.05.953-.968 1.944 1.557 4.078 3.034 5.439 5.165.258.77 1.289 3 1.346.98.027-2.776.875-5.804 3.048-7.665 1.478-1.346 2.275 1.012 2.344 2.21.385 2.358-.253 4.696-.963 6.923-.261 1.035-.94 3.871.997 2.825 4.463-1.723 9.87.087 12.778 3.789 1.337 1.792 1.922 4.095 1.909 6.306-.689 1.299 1.868-.024.942 1.474-.546 1.66-2.087 2.561-3.166 3.814-1.098 1.004-.283 3.151-2.1 3.467-2.65.817-5.433 1.175-8.193 1.384-1.544.316-2.293-1.45-.813-2.184.71-1.093 2.74-1.17 3.342-1.343-1.44.14-3.218-.447-4.433.445-.735 1.194-1.324 2.766-2.866 3.106-.694.193-1.406.347-2.116.138zM833.225 380.693l-7.56-13.572 13.594 13.572-13.594 13.571 7.56-13.571z" style="color:#30db30"/>
    <path fill="#989900" stroke="#b8b804" d="M1434.014 313.5c.259-.003-.246-.015-.336-.021-.749-.019-1.37-.763-1.29-1.502.017-.74.73-1.389 1.47-1.314.193-.082.467.188.587.059.308-.543.606-1.091.926-1.627.272-.039.597-.069.862.005.123.193-.1.246-.239.216h-.466c-.112.205-.228.408-.342.612h1.957c.014-.07.18-.219.033-.203-.265-.033-.1-.34.097-.253.276.01.562-.027.83.029.142.286-.271.225-.448.228-.131-.043-.159.088-.21.178-.211.216-.08.443.061.653.052.096.09.229.215.14.258-.057.539-.06.795.007.536.159.965.655 1.001 1.218.032.345-.041.701-.256.98-.25.357-.655.553-1.08.593m-.334.003c-.389-.1-.747-.331-.954-.681-.136-.175-.154-.446-.226-.621l-.57-.008c-.386-.62-.726-1.269-1.098-1.898-.073.216-.485.509-.257.707.57.479.647 1.415.158 1.98a1.883 1.883 0 0 1-.853.521m.024-.341c.616-.134 1.01-.845.797-1.437-.066-.193-.247-.501-.407-.504-.17.294-.324.6-.511.884-.41.072-.035-.428.052-.598.093-.207.432-.542.006-.537-.3-.03-.617-.001-.86.197-.519.344-.617 1.13-.224 1.604.266.345.726.492 1.147.39zm4.31 0c.526-.124.905-.664.837-1.2-.036-.597-.63-1.079-1.222-.999-.443-.042-.019.365.045.563.06.21.392.467.206.672-.415.017-.84-.012-1.255.03.075.549.594 1.003 1.155.961a.938.938 0 0 0 .235-.027zm-1.697-1.228c.05-.43.294-.82.65-1.065.02-.106-.195-.592-.273-.253-.244.442-.488.883-.724 1.33.113.002.24.022.347-.012zm1.27-.021c-.14-.264-.284-.526-.43-.786-.294.155-.487.483-.533.81.32-.006.647.017.964-.017l-.001-.007zm-1.375-.95c.138-.256.28-.51.413-.767a32.125 32.125 0 0 0-1.749.002c.3.515.57 1.049.897 1.545.158-.244.292-.524.439-.78z" style="color:#30db30"/>
    <path fill="#e841e8" stroke="#000" d="M1365.154 323.894c3.272-.046-3.115-.213-4.248-.305-9.467-.257-17.324-10.78-16.301-21.223.207-10.45 9.21-19.63 18.58-18.579 2.438-1.158 5.9 2.665 7.415.839 3.89-7.671 7.659-15.423 11.705-22.992 3.447-.55 7.553-.975 10.906.067 1.55 2.73-1.268 3.474-3.027 3.052h-5.889c-1.42 2.899-2.879 5.774-4.33 8.653h24.74c.184-.98 2.268-3.094.42-2.864-3.355-.473-1.256-4.809 1.23-3.575 3.487.143 7.098-.385 10.481.397 1.807 4.055-3.418 3.185-5.658 3.228-1.658-.605-2.002 1.248-2.658 2.516-2.662 3.048-1.007 6.26.781 9.232.657 1.352 1.124 3.228 2.72 1.965 3.257-.8 6.807-.829 10.047.106 6.77 2.25 12.198 9.267 12.653 17.217.41 4.883-.524 9.916-3.243 13.855-3.153 5.05-8.27 7.815-13.653 8.375m-4.221.05c-4.908-1.408-9.433-4.684-12.056-9.63-1.717-2.472-1.94-6.3-2.853-8.779l-7.22-.106c-4.874-8.766-9.17-17.935-13.873-26.824-.916 3.043-6.127 7.183-3.25 9.984 7.22 6.774 8.182 20.004 2.006 27.98-2.83 3.546-6.756 5.99-10.792 7.372m.31-4.823c7.789-1.896 12.765-11.936 10.071-20.309-.832-2.727-3.123-7.083-5.146-7.128-2.156 4.163-4.097 8.475-6.46 12.499-5.19 1.02-.435-6.045.663-8.446 1.177-2.93 5.453-7.668.067-7.598-3.782-.42-7.8-.013-10.86 2.793-6.564 4.857-7.807 15.966-2.835 22.662 3.366 4.879 9.178 6.953 14.5 5.527zm54.49-.001c6.648-1.746 11.432-9.385 10.571-16.966-.455-8.425-7.97-15.238-15.441-14.106-5.599-.592-.239 5.154.561 7.948.762 2.966 4.956 6.61 2.614 9.502-5.252.246-10.632-.173-15.87.42.941 7.764 7.514 14.187 14.606 13.592.995-.009 1.995-.103 2.96-.39zm-21.454-17.352c.633-6.075 3.713-11.6 8.205-15.059.265-1.49-2.455-8.353-3.45-3.568-3.075 6.247-6.165 12.485-9.145 18.789 1.428.039 3.028.317 4.39-.162zm16.047-.301a544.512 544.512 0 0 0-5.436-11.102c-3.715 2.19-6.16 6.826-6.738 11.453 4.057-.096 8.182.237 12.184-.241l-.01-.11zm-17.38-13.434c1.748-3.607 3.529-7.194 5.223-10.832-7.365-.185-14.747-.225-22.109.039 3.782 7.266 7.198 14.814 11.333 21.825 2-3.439 3.697-7.397 5.553-11.032z" style="color:#30db30" transform="rotate(-.124 1389.664 292.485)"/>
    <path fill="#989900" stroke="#b8b804" d="M1424.847 231.378c.155-.002-.148-.01-.202-.013-.45-.011-.822-.458-.774-.901.01-.444.437-.834.882-.789.116-.05.28.113.352.036.185-.326.364-.655.556-.976.163-.024.358-.042.517.002.074.116-.06.148-.143.13h-.28c-.067.123-.136.245-.205.367h1.174c.009-.041.107-.131.02-.121-.16-.02-.06-.204.058-.152.166.006.337-.016.498.017.085.172-.163.135-.269.137-.079-.026-.095.053-.126.107-.126.13-.048.265.037.392.031.057.053.137.13.083.154-.034.322-.035.476.005a.846.846 0 0 1 .6.73.83.83 0 0 1-.153.589.876.876 0 0 1-.648.355m-.2.002a.925.925 0 0 1-.573-.409c-.081-.105-.092-.267-.135-.372l-.343-.005c-.231-.372-.435-.761-.658-1.139-.044.13-.291.305-.155.424a.86.86 0 0 1 .095 1.188 1.13 1.13 0 0 1-.512.313m.015-.205a.676.676 0 0 0 .478-.862c-.04-.116-.148-.3-.244-.302-.103.176-.195.36-.307.53-.246.044-.02-.256.032-.358.055-.125.258-.326.003-.323-.18-.018-.37 0-.516.119-.311.206-.37.677-.134.962.16.207.435.295.688.234zm2.586 0a.673.673 0 0 0 .502-.72.667.667 0 0 0-.733-.599c-.266-.025-.011.219.027.338.036.126.235.28.124.403-.25.01-.505-.007-.753.018.044.33.356.602.693.577a.563.563 0 0 0 .14-.017zm-1.018-.736a.912.912 0 0 1 .39-.64c.012-.063-.117-.354-.164-.151-.146.265-.293.53-.434.798.067.001.143.013.208-.007zm.762-.013c-.085-.158-.17-.315-.258-.471a.657.657 0 0 0-.32.486c.192-.004.388.01.578-.01v-.005zm-.825-.57c.083-.154.167-.306.248-.46-.35-.008-.7-.01-1.05.001.18.309.342.63.538.927.095-.146.176-.314.264-.468zm6.057-.256c.332-.004-.317-.02-.432-.027-.962-.024-1.761-.98-1.657-1.93.02-.95.936-1.785 1.889-1.69.248-.105.6.243.754.077.395-.698.778-1.403 1.19-2.09.35-.05.767-.09 1.108.005.158.249-.129.316-.308.278h-.598c-.145.263-.293.525-.44.787h2.515c.018-.09.23-.282.042-.26-.34-.044-.127-.438.125-.326.355.013.722-.035 1.066.036.184.369-.348.29-.575.294-.169-.055-.204.113-.27.228-.271.278-.103.57.079.84.067.123.114.293.276.179a2.233 2.233 0 0 1 1.022.01c.688.204 1.24.842 1.286 1.565.042.444-.053.901-.33 1.26-.32.459-.84.71-1.388.761m-.429.005c-.499-.128-.959-.426-1.225-.876-.175-.225-.198-.573-.29-.798l-.734-.01c-.496-.797-.933-1.63-1.41-2.439-.094.277-.624.653-.331.908.734.616.832 1.819.204 2.544-.288.322-.687.545-1.097.67m.031-.438c.792-.173 1.298-1.086 1.024-1.847-.085-.248-.317-.644-.523-.648-.22.379-.417.77-.657 1.136-.527.093-.044-.55.068-.767.12-.267.554-.698.006-.691-.384-.039-.793-.002-1.103.254-.668.441-.794 1.451-.289 2.06.342.444.933.632 1.474.503zm5.54 0c.675-.16 1.162-.854 1.074-1.543-.046-.766-.81-1.386-1.57-1.283-.569-.053-.024.469.058.723.077.27.503.601.265.864-.534.022-1.08-.016-1.613.038.096.706.764 1.29 1.485 1.236.1 0 .203-.01.3-.035zm-2.181-1.578a1.953 1.953 0 0 1 .834-1.37c.027-.135-.25-.759-.351-.324-.313.568-.627 1.135-.93 1.709.146.003.308.028.447-.015zm1.63-.028c-.18-.338-.363-.675-.552-1.009-.377.2-.626.62-.685 1.041.413-.008.832.022 1.239-.022l-.001-.01zm-1.766-1.221c.178-.328.359-.654.531-.985a41.055 41.055 0 0 0-2.247.004c.384.66.731 1.347 1.152 1.984.203-.313.375-.672.564-1.003z" style="color:#30db30"/>
    <path fill="#e8e841" stroke="#000" stroke-width="2" stroke-linejoin="round" stroke-linecap="round" d="m1461.443 85.607-7.495 2.563v-5.125l7.495 2.562zm-5.441-12.627-3.414 6.908-3.769-3.624 7.183-3.284zm-13.13-5.23 2.664 7.206h-5.33l2.665-7.206zm-13.133 5.23 7.184 3.284-3.769 3.624-3.415-6.908zm-5.44 12.627 7.495-2.562v5.125l-7.494-2.563zm5.44 12.626 3.415-6.907 3.77 3.624-7.185 3.283zm13.132 5.231-2.665-7.206h5.33l-2.665 7.206zm13.131-5.231-7.183-3.283 3.77-3.624 3.413 6.907zm-22.416-12.626h0c0-4.931 4.157-8.928 9.285-8.928 5.129 0 9.286 3.997 9.286 8.928 0 4.931-4.157 8.929-9.286 8.929-5.128 0-9.285-3.998-9.285-8.929zM44.915 437.99l-2.09.578a3.686 3.686 0 0 0-.83-1.301l1.106-1.951a.36.36 0 0 0-.624-.355l-1.05 1.852a2.894 2.894 0 0 0-.68-.322 1.282 1.282 0 0 0-1.098-.919v-.004a1.083 1.083 0 0 1-.036-.233.532.532 0 0 1 .061-.286.374.374 0 0 1 .207-.182c.009.1.051.173.127.215.055.032.12.042.195.031a.24.24 0 0 0 .178-.13.273.273 0 0 0 .023-.218.301.301 0 0 0-.148-.182.338.338 0 0 0-.173-.046.459.459 0 0 0-.327.139.699.699 0 0 0-.208.433 1.39 1.39 0 0 0-.003.302c.006.057.022.108.034.16a1.243 1.243 0 0 0-.409.04 1.28 1.28 0 0 0-.46.234c-.018-.062-.034-.124-.064-.186a1.402 1.402 0 0 0-.157-.257.7.7 0 0 0-.401-.264.476.476 0 0 0-.351.05.34.34 0 0 0-.125.127.305.305 0 0 0-.034.232c.02.08.065.138.132.176a.24.24 0 0 0 .219.02c.07-.03.12-.072.152-.128.043-.075.043-.158-.002-.249a.371.371 0 0 1 .271.05.51.51 0 0 1 .2.215c.033.06.064.132.09.218l.012.052a1.278 1.278 0 0 0-.394 1.204c-.208.21-.384.456-.522.73l-1.851-1.05a.36.36 0 0 0-.354.626l1.952 1.106a3.692 3.692 0 0 0-.042 1.541l-2.09.579a.358.358 0 1 0 .19.69l2.11-.583c.18.379.488.817.85 1.235L37.355 444a.358.358 0 1 0 .624.354l1.039-1.833c.968.931 2.039 1.48 2.073.378.573.918 1.237-.121 1.614-1.426l1.867 1.057a.357.357 0 0 0 .49-.135.358.358 0 0 0-.136-.489l-2.045-1.158c.105-.54.152-1.07.115-1.484l2.111-.584a.358.358 0 0 0 .25-.44.36.36 0 0 0-.442-.25zm1418.788-176.387-.29.08a.512.512 0 0 0-.116-.181l.154-.271a.05.05 0 0 0-.087-.05l-.146.258a.402.402 0 0 0-.094-.045.178.178 0 0 0-.153-.128.15.15 0 0 1-.005-.032c0-.01 0-.018.002-.024a.074.074 0 0 1 .007-.016.052.052 0 0 1 .028-.025c.002.014.007.024.018.03a.042.042 0 0 0 .027.004.033.033 0 0 0 .025-.018.038.038 0 0 0 .003-.03.042.042 0 0 0-.02-.026.047.047 0 0 0-.025-.006.064.064 0 0 0-.045.019.097.097 0 0 0-.029.06.193.193 0 0 0 0 .042c0 .008.003.015.004.023a.174.174 0 0 0-.12.037c-.003-.008-.005-.017-.01-.025a.195.195 0 0 0-.021-.036.097.097 0 0 0-.056-.037c-.009-.002-.017-.002-.026-.001s-.015.004-.023.008a.047.047 0 0 0-.017.018.042.042 0 0 0-.005.032.04.04 0 0 0 .019.025c.01.005.02.006.03.002a.042.042 0 0 0 .021-.017c.006-.01.006-.022 0-.035a.052.052 0 0 1 .038.007.071.071 0 0 1 .027.03.148.148 0 0 1 .013.03l.002.007a.178.178 0 0 0-.055.168.394.394 0 0 0-.073.101l-.257-.146a.05.05 0 0 0-.049.087l.271.154a.513.513 0 0 0-.006.214l-.29.08a.05.05 0 1 0 .026.096l.293-.081a.816.816 0 0 0 .119.172l-.16.28a.05.05 0 1 0 .087.05l.144-.255c.135.13.284.206.288.053.08.127.172-.017.225-.199l.259.147a.05.05 0 0 0 .068-.018.05.05 0 0 0-.019-.068l-.284-.161a.782.782 0 0 0 .016-.206l.293-.082a.05.05 0 0 0 .035-.06.05.05 0 0 0-.061-.035z" style="color:#085408"/>
    <path fill="#abecec" stroke="#abecab" d="M1338.283 96.378c.032-.326.05-.656.05-.988 0-5.77-4.677-10.448-10.447-10.448-4.479 0-8.288 2.823-9.774 6.785-.985-1.08-2.39-1.77-3.966-1.77a5.38 5.38 0 0 0-5.38 5.38c0 .352.038.695.103 1.026-3.965.653-7 4.072-7 8.22a8.358 8.358 0 0 0 8.36 8.359h26.536a8.357 8.357 0 0 0 8.359-8.358c.001-4.098-2.95-7.491-6.84-8.206zm129.343 27.86c.032-.326.05-.656.05-.988 0-5.77-4.677-10.448-10.447-10.448-4.479 0-8.288 2.823-9.774 6.785-.985-1.08-2.39-1.77-3.965-1.77a5.38 5.38 0 0 0-5.381 5.38c0 .352.038.695.103 1.026-3.965.653-6.999 4.072-6.999 8.22a8.358 8.358 0 0 0 8.358 8.359h26.538a8.357 8.357 0 0 0 8.358-8.358c.001-4.097-2.95-7.49-6.84-8.206z" style="color:#085408"/>
    <path fill="#000" stroke="#000" d="M1370.896 189.718c-.24.647-1.092.236-1.4.708.029.344-.47.442-.737.478-.481.218-1.291-.272-1.498.227.621.097 1.331.055 1.89.433.385.47 1.064.527 1.35 1.075.285.674.013 1.404-.345 1.99-.306.66-.806 1.248-.971 1.96.012.737.267 1.454.181 2.197.054.574.376 1.083.569 1.621.283.599.562 1.229.997 1.729.398.502 1.693.66 1.339 1.41-.228.63-.42 1.386-1.098 1.673-.538.34-1.211.506-1.645.984.218.02 1.594-.813 1.353.096-.54.637.959-.04 1.326-.124.268-.056.243.828.483.215.337-.57.352-1.208.637-1.727.14-.58.217.45.546.573.4.538.441-.796.636-1.115.148-.484.262-1.32.454-1.58.011-.161.373.222.284-.215.052-1.33-.104-2.766-.887-3.883-.544-.488-.748-1.221-1.21-1.782-.566-.272-.455-1.113-1.142-1.195-.156-.58.148-1.295.262-1.91.158-.573.48-1.17.2-1.764-.214-.615-.67-1.19-1.335-1.33-.295-.15-.56-.237-.164-.445.267-.438-.413.419-.09-.169l.015-.13zm-3.231 1.366c.724.018-.5.02 0 0zm5.234 12.38c.626.266.045 1.22-.31 1.528-.742-.182.136-1.088.31-1.527zm-.603 1.802c-.333.137-.874.234-.216.027l.111-.02.105-.007z" style="color:#085408"/>
    <path fill="#abecec" stroke="#abecab" d="M1366.795 199.005c-.056.153-.258.056-.331.168.007.081-.111.104-.175.113-.114.051-.305-.065-.354.054.147.022.315.013.447.102.092.111.252.125.32.255.067.16.003.332-.082.471-.072.156-.19.296-.23.464.003.175.064.345.043.52.013.136.09.257.135.385.067.141.133.29.236.409.094.119.4.156.317.334-.054.149-.1.328-.26.396-.127.08-.287.12-.39.233.052.005.378-.192.32.023-.127.15.228-.01.315-.03.064-.013.058.197.114.052.08-.136.084-.287.151-.41.033-.137.052.107.13.136.094.128.104-.188.15-.264.035-.114.062-.313.108-.374.002-.038.088.052.067-.051.012-.315-.025-.655-.21-.92-.129-.115-.177-.289-.286-.422-.135-.064-.108-.263-.271-.283-.037-.137.035-.306.062-.452.037-.136.114-.277.047-.418-.05-.146-.159-.282-.316-.315-.07-.035-.133-.056-.039-.105.064-.104-.097.099-.021-.04l.003-.031zm-.765.323c.172.005-.118.005 0 0zm1.24 2.933c.148.063.01.289-.073.361-.176-.043.032-.257.073-.361zm-.143.426c-.079.033-.207.056-.051.007l.026-.005.025-.002z" style="color:#085408"/>
    <path fill="#fff" stroke="#000" d="M1380.531 168.492c-.701 1.888-3.19.687-4.091 2.067.087 1.005-1.371 1.29-2.15 1.396-1.406.636-3.772-.794-4.375.663 1.813.282 3.887.161 5.52 1.264 1.125 1.373 3.108 1.541 3.946 3.142.829 1.968.035 4.099-1.01 5.814-.894 1.924-2.355 3.642-2.837 5.722.034 2.154.781 4.249.529 6.417.159 1.677 1.098 3.166 1.661 4.738.828 1.748 1.643 3.588 2.914 5.049 1.162 1.467 4.943 1.93 3.91 4.12-.665 1.836-1.224 4.048-3.207 4.886-1.573.99-3.538 1.478-4.806 2.872.637.06 4.657-2.375 3.952.281-1.575 1.86 2.802-.114 3.874-.36.784-.166.71 2.417 1.41.628.985-1.668 1.03-3.53 1.862-5.045.41-1.696.633 1.313 1.594 1.673 1.17 1.572 1.29-2.326 1.857-3.258.435-1.412.767-3.856 1.327-4.616.033-.469 1.09.65.831-.627.15-3.883-.303-8.08-2.591-11.341-1.589-1.426-2.187-3.567-3.533-5.205-1.657-.797-1.332-3.252-3.339-3.493-.456-1.692.434-3.78.766-5.578.46-1.674 1.401-3.416.582-5.151-.623-1.797-1.957-3.479-3.898-3.888-.861-.436-1.636-.69-.478-1.297.78-1.28-1.205 1.223-.262-.493l.042-.38zm-9.438 3.988c2.115.055-1.46.058 0 0zm15.29 36.165c1.828.776.132 3.564-.905 4.462-2.167-.531.397-3.178.905-4.462zm-1.76 5.262c-.973.399-2.554.684-.634.077l.326-.057.308-.02z" style="color:#085408"/>
    <path fill="#abecec" stroke="#000" d="M1381.139 195.025c-.304.816-1.38.297-1.77.894.038.435-.592.558-.93.603-.607.276-1.63-.343-1.891.287.784.122 1.68.07 2.387.547.487.594 1.344.666 1.706 1.358.359.852.015 1.773-.436 2.515-.387.832-1.019 1.575-1.227 2.474.015.932.338 1.837.229 2.775.068.725.474 1.37.718 2.049.358.756.71 1.551 1.26 2.183.502.635 2.138.835 1.69 1.782-.287.794-.529 1.75-1.386 2.113-.68.428-1.53.639-2.078 1.242.275.026 2.013-1.027 1.709.121-.682.805 1.211-.05 1.675-.156.339-.071.307 1.046.61.272.426-.721.445-1.526.805-2.182.177-.733.273.568.69.724.505.68.557-1.006.802-1.409.188-.61.332-1.667.574-1.996.014-.203.471.281.36-.271.064-1.68-.132-3.494-1.121-4.904-.687-.617-.946-1.543-1.528-2.251-.716-.345-.576-1.407-1.444-1.51-.197-.732.188-1.635.331-2.413.2-.724.606-1.477.252-2.227-.27-.777-.846-1.505-1.685-1.681-.373-.189-.708-.299-.207-.561.337-.554-.521.529-.114-.214l.019-.164zm-4.081 1.725c.914.023-.632.025 0 0zm6.611 15.639c.79.335.057 1.54-.391 1.929-.937-.23.171-1.374.391-1.93zm-.761 2.275c-.42.172-1.104.296-.274.033l.141-.024.133-.01z" style="color:#085408"/>
    <path fill="#1aeb1a" stroke="#000" stroke-width="2" stroke-linejoin="round" stroke-linecap="round" d="M307 161.5c0-4.144 1.79-7.5 4-7.5s4 3.356 4 7.5-1.79 7.5-4 7.5-4-3.356-4-7.5Zm-21.333-20c0-4.144 1.79-7.5 4-7.5s4 3.356 4 7.5-1.79 7.5-4 7.5-4-3.356-4-7.5z"/>
    <path fill="#41e841" stroke="#000" d="m378.503 126.976 1.7-3.333H387c.938 0 1.7 1.492 1.7 3.333 0 1.841-.762 3.334-1.7 3.334h-6.798l-1.699-3.334z" style="color:#085408"/>
  </g>
  <defs>
    <filter xmlns:inkscape="http://www.inkscape.org/namespaces/inkscape" id="c" inkscape:label="Specular light" inkscape:menu="ABCs" inkscape:menu-tooltip="Basic specular bevel to use for building textures" color-interpolation-filters="sRGB">
      <feGaussianBlur result="result0" in="SourceAlpha" stdDeviation="6"/>
      <feSpecularLighting specularExponent="25" surfaceScale="10" lighting-color="#fff" result="result1" in="result0">
        <feDistantLight azimuth="235" elevation="45"/>
      </feSpecularLighting>
      <feComposite k3="1" k2="1" operator="arithmetic" result="result4" in="SourceGraphic" in2="result91"/>
      <feComposite operator="in" result="result2" in="result4" in2="SourceAlpha"/>
    </filter>
    <filter xmlns:inkscape="http://www.inkscape.org/namespaces/inkscape" id="e" inkscape:label="Button" x="0" y="0" width="1" height="1" inkscape:menu="Bevels" inkscape:menu-tooltip="Soft bevel, slightly depressed middle" color-interpolation-filters="sRGB">
      <feGaussianBlur stdDeviation="2.3" in="SourceAlpha" result="result0"/>
      <feMorphology in="SourceAlpha" radius="6.6" result="result1"/>
      <feGaussianBlur stdDeviation="8.9" in="result1"/>
      <feColorMatrix values="1 0 0 0 0 0 1 0 0 0 0 0 1 0 0 0 0 0 0.3 0" result="result91"/>
      <feComposite in="result0" operator="out" result="result2" in2="result91"/>
      <feGaussianBlur stdDeviation="1.7" result="result4"/>
      <feDiffuseLighting surfaceScale="10">
        <feDistantLight azimuth="225" elevation="45"/>
      </feDiffuseLighting>
      <feBlend in2="SourceGraphic" mode="multiply"/>
      <feComposite in2="SourceAlpha" operator="in" result="result3"/>
      <feSpecularLighting in="result4" surfaceScale="5" specularExponent="17.9">
        <feDistantLight azimuth="225" elevation="45"/>
      </feSpecularLighting>
      <feComposite in2="result3" operator="atop"/>
    </filter>
    <filter xmlns:inkscape="http://www.inkscape.org/namespaces/inkscape" id="l" inkscape:label="In and Out" inkscape:menu="Shadows and Glows" inkscape:menu-tooltip="Inner colorized shadow, outer black shadow" color-interpolation-filters="sRGB">
      <feGaussianBlur result="result0" in="SourceAlpha" stdDeviation="4"/>
      <feOffset dx="5" dy="5" result="result4"/>
      <feComposite in="SourceGraphic" in2="result4" operator="xor" result="result3"/>
    </filter>
    <filter xmlns:inkscape="http://www.inkscape.org/namespaces/inkscape" id="j" inkscape:label="Inner Shadow" inkscape:menu="Shadows and Glows" inkscape:menu-tooltip="Adds a colorizable drop shadow inside" color-interpolation-filters="sRGB">
      <feGaussianBlur stdDeviation="4" result="result8"/>
      <feOffset dx="4" dy="4" result="result11"/>
      <feComposite result="result6" in="SourceGraphic" operator="in" in2="result11"/>
      <feFlood result="result10" flood-opacity="1" flood-color="#000"/>
      <feBlend in="result6" in2="result10"/>
      <feComposite result="result2" operator="in" in2="SourceGraphic"/>
    </filter>
    <filter xmlns:inkscape="http://www.inkscape.org/namespaces/inkscape" id="f" x="-.35" width="1.7" y="-.35" height="1.7" inkscape:menu-tooltip="Smooth rainbow colors warped along the edges and colorizable" inkscape:menu="Textures" inkscape:label="Warped rainbow" color-interpolation-filters="sRGB">
      <feGaussianBlur result="result8" stdDeviation="5"/>
      <feTurbulence baseFrequency=".015" numOctaves="2" type="fractalNoise" result="result7" seed="20"/>
      <feDisplacementMap scale="100" result="result10" in="result7" in2="result8"/>
      <feComposite in="result10" operator="atop" result="result2" in2="result8"/>
      <feComposite in2="result2" operator="arithmetic" in="result10" result="fbSourceGraphic" k1="2.5" k3=".5"/>
    </filter>
    <filter xmlns:inkscape="http://www.inkscape.org/namespaces/inkscape" id="d" inkscape:menu-tooltip="Pressed metal with a rolled edge" inkscape:menu="Bevels" inkscape:label="Pressed steel" color-interpolation-filters="sRGB">
      <feGaussianBlur result="result1" stdDeviation="3"/>
      <feBlend in2="result1" result="result5" mode="multiply" in="result1"/>
      <feGaussianBlur in="result5" result="result6" stdDeviation="1"/>
      <feComposite result="result8" in2="result5" in="result6" operator="xor"/>
      <feComposite in="result6" result="fbSourceGraphic" operator="xor" in2="result8"/>
      <feSpecularLighting in="fbSourceGraphic" result="result1" lighting-color="#fff" surfaceScale="2" specularConstant="2.2" specularExponent="55">
        <fePointLight x="-5000" y="-10000" z="20000"/>
      </feSpecularLighting>
      <feComposite in2="fbSourceGraphic" in="result1" result="result2" operator="in"/>
      <feComposite in="fbSourceGraphic" result="result4" operator="arithmetic" k2="2" k3="1" in2="result2"/>
      <feComposite in2="result4" in="result9" operator="in" result="result91"/>
      <feBlend mode="darken" in2="result91"/>
    </filter>
    <filter xmlns:inkscape="http://www.inkscape.org/namespaces/inkscape" id="g" inkscape:menu-tooltip="3D warped, fibered wood texture" inkscape:menu="Materials" inkscape:label="3D wood" height="1.5" y="-.25" width="1.5" x="-.25" color-interpolation-filters="sRGB">
      <feGaussianBlur result="result8" stdDeviation="4"/>
      <feTurbulence baseFrequency="0.025 0.2" numOctaves="3" type="fractalNoise" result="result7" seed="22"/>
      <feComposite in2="result8" operator="in" in="SourceGraphic" result="result6"/>
      <feDisplacementMap in2="result6" result="result4" scale="50" in="result7"/>
      <feFlood flood-color="#e6d38a" flood-opacity="1"/>
      <feComposite in2="result4" operator="atop" result="result2"/>
      <feComposite in2="SourceGraphic" operator="atop" in="result2" result="result9"/>
      <feGaussianBlur result="result0" in="result9" stdDeviation="8"/>
      <feSpecularLighting specularExponent="15" specularConstant=".7" surfaceScale="5" lighting-color="#fff" result="result1" in="result0">
        <feDistantLight azimuth="235" elevation="50"/>
      </feSpecularLighting>
      <feComposite operator="in" result="result2" in="result1" in2="result9"/>
      <feComposite k3=".5" k2=".5" operator="arithmetic" result="result4" in="result9" in2="result2"/>
      <feConvolveMatrix order="3 3" kernelMatrix="2 0 0 0 2 0 0 0 -2" targetX="2" targetY="2" result="result10"/>
      <feBlend mode="multiply" in="result10" in2="result10"/>
    </filter>
    <filter xmlns:inkscape="http://www.inkscape.org/namespaces/inkscape" id="h" y="-.2" height="1.4" inkscape:label="Rough and dilate" inkscape:menu="Distort" inkscape:menu-tooltip="Create a turbulent contour around" color-interpolation-filters="sRGB">
      <feMorphology radius="7" operator="dilate" result="result8" in="SourceGraphic"/>
      <feComposite in2="result8" result="result10" in="SourceGraphic" operator="arithmetic" k1=".5" k3=".5"/>
      <feTurbulence result="result11" type="fractalNoise" numOctaves="3" baseFrequency=".07"/>
      <feDisplacementMap result="result12" in2="result11" in="result10" xChannelSelector="R" scale="10"/>
      <feComposite operator="arithmetic" result="result13" in="SourceGraphic" in2="result12" k1=".25" k2=".25" k3=".75"/>
    </filter>
    <filter xmlns:inkscape="http://www.inkscape.org/namespaces/inkscape" id="i" x="-.25" width="1.5" y="-.25" height="1.5" inkscape:menu="Non realistic 3D shaders" inkscape:menu-tooltip="Non realistic chrome shader with strong speculars" inkscape:label="Chrome" color-interpolation-filters="sRGB">
      <feGaussianBlur result="result8" stdDeviation="4"/>
      <feComposite in="result8" operator="xor" result="result6" in2="result8"/>
      <feDisplacementMap result="result4" scale="80" in2="result6" in="result6"/>
      <feComposite k1="3" in="result8" operator="arithmetic" result="result2" in2="result4"/>
      <feComposite in2="result2" operator="in" in="result2" result="fbSourceGraphic"/>
    </filter>
    <filter xmlns:inkscape="http://www.inkscape.org/namespaces/inkscape" id="b" x="-.25" width="1.5" y="-.25" height="1.5" inkscape:menu-tooltip="Smooth rainbow colors melted along the edges and colorizable" inkscape:menu="Textures" inkscape:label="Tinted rainbow" color-interpolation-filters="sRGB">
      <feGaussianBlur result="result8" stdDeviation="5"/>
      <feTurbulence baseFrequency=".015" numOctaves="2" type="fractalNoise" result="result7" seed="20"/>
      <feComposite in="SourceGraphic" operator="in" result="result6" in2="result8"/>
      <feComposite in="result6" operator="arithmetic" result="result2" in2="result7" k3="1.7"/>
      <feComposite in2="result6" operator="in" in="result2" result="fbSourceGraphic"/>
      <feComposite in2="SourceGraphic" in="fbSourceGraphic" k3=".3" k2="1.5" operator="arithmetic" result="result9"/>
    </filter>
    <filter xmlns:inkscape="http://www.inkscape.org/namespaces/inkscape" id="k" inkscape:menu-tooltip="3D warped, iridescent pearly shell texture" inkscape:menu="Materials" inkscape:label="3D mother of pearl" width="1.5" x="-.25" height="1.5" y="-.25" color-interpolation-filters="sRGB">
      <feGaussianBlur result="result8" stdDeviation="3"/>
      <feTurbulence baseFrequency="0.03 0.03" numOctaves="8" type="fractalNoise" result="result7" seed="77"/>
      <feColorMatrix values="1 0 0 0 0 0 1 0 0 0 0 0 1 0 0 0 0 0 1.6 -0.6" result="result5"/>
      <feComposite in2="result8" operator="in" in="result7" result="result6"/>
      <feDisplacementMap in2="result6" result="result4" scale="60" in="result5"/>
      <feConvolveMatrix order="3 3" kernelMatrix="2 0 0 0 4 0 0 0 -2" targetX="2" targetY="2" divisor="2" result="result9"/>
      <feComposite in2="SourceGraphic" operator="atop" in="result9" result="result10"/>
      <feBlend in2="result10" mode="darken" result="fbSourceGraphic"/>
      <feGaussianBlur result="result0" in="fbSourceGraphic" stdDeviation="5"/>
      <feSpecularLighting specularExponent="25" surfaceScale="5" lighting-color="#f2d76c" result="result1" in="result0">
        <feDistantLight azimuth="235" elevation="60"/>
      </feSpecularLighting>
      <feComposite operator="in" result="result2" in="result1" in2="fbSourceGraphic"/>
      <feComposite k3="1" k2="1" operator="arithmetic" result="result4" in="fbSourceGraphic" in2="result2"/>
    </filter>
    <filter xmlns:inkscape="http://www.inkscape.org/namespaces/inkscape" id="m" inkscape:label="Liquid" inkscape:menu="Textures" inkscape:menu-tooltip="Colorizable filling with liquid transparency" height="2" y="-.5" width="1.5" x="-.25" color-interpolation-filters="sRGB">
      <feGaussianBlur stdDeviation="5" result="result8"/>
      <feTurbulence result="result7" baseFrequency=".02"/>
      <feColorMatrix result="result5" values="1 0 0 0 0 0 1 0 0 0 0 0 1 0 0 0 0 0 4 0"/>
      <feComposite in2="result8" result="result6" operator="in" in="result8"/>
      <feDisplacementMap in="result5" in2="result6" scale="120" result="result4"/>
      <feComposite in2="result4" result="result2" operator="in" in="result8"/>
      <feComposite result="fbSourceGraphic" in="SourceGraphic" operator="in" in2="result2"/>
    </filter>
    <filter xmlns:inkscape="http://www.inkscape.org/namespaces/inkscape" id="a" inkscape:label="Oil painting" inkscape:menu="Image effects" inkscape:menu-tooltip="Simulate oil painting style" color-interpolation-filters="sRGB">
      <feMorphology radius="2" in="SourceGraphic" result="result0"/>
      <feTurbulence baseFrequency=".078" result="result91"/>
      <feDisplacementMap in="result0" scale="6.3" xChannelSelector="R" yChannelSelector="G" in2="result91"/>
    </filter>
  </defs>
</svg>
