<svg xmlns:xlink="http://www.w3.org/1999/xlink" xmlns="http://www.w3.org/2000/svg" width="255" height="257" fill="none"><rect id="backgroundrect" width="100%" height="100%" x="0" y="0" fill="none" stroke="none"/>
<g class="currentLayer" style=""><title>Layer 1</title><path d="M196.443 230.926L167.4 247.47C156.141 252.44 144.055 255.281 131.758 255.848C69.9773 258.926 11.926 207.633 2.34868 141.517C-3.94818 98.0149 12.2494 58.8237 41.6414 36.1763L41.6018 36.1104L75.4293 15.4272L75.4953 15.5393C40.9022 36.8487 21.0016 79.2168 27.8727 126.634C37.45 192.757 95.5013 244.043 157.282 240.965C170.888 240.341 184.218 236.924 196.443 230.926V230.926Z" fill="#FF90E8" id="svg_1" class=""/><path d="M251.953 115.475C258.686 161.956 239.696 203.586 206.364 225.278L196.463 230.92C184.239 236.918 170.908 240.335 157.302 240.958C95.5219 244.036 37.4706 192.75 27.8933 126.627C21.0222 79.2104 40.9227 36.8421 75.5159 15.5328C89.7231 6.82848 105.913 1.87278 122.564 1.13106C184.325 -1.94044 242.376 49.3522 251.953 115.475ZM210.984 173.583L201.829 110.36L141.059 113.386L142.854 125.757L171.81 124.314C170.781 139.592 165.249 155.095 147.23 155.991C127.283 156.986 111.726 139.072 108.439 116.398C105.152 93.7241 115.337 74.524 135.29 73.5551C153.949 72.6257 163.764 86.6715 165.797 96.2617L196.041 94.7523C192.912 77.6152 174.378 48.0801 132.544 50.163C92.0039 52.1799 75.0473 82.7828 80.3211 119.206C85.3968 154.251 108.789 181.466 141.6 179.845C174.411 178.223 178.714 149.617 178.563 135.09L184.338 174.947L210.984 173.583Z" fill="#FF90E8" id="svg_2" class="" filter="url(#f108)"/><path d="M201.829,110.85261474609375 L210.984,174.07561474609375 L184.324,175.39361474609376 L178.549,135.53661474609376 C178.714,150.03761474609374 174.423,178.65661474609374 141.586,180.29161474609376 C108.748,181.92561474609374 85.3828,154.71061474609374 80.3071,119.65261474609375 C75.0267,83.22921474609375 91.9898,52.62631474609375 132.53,50.60941474609375 C174.364,48.52661474609375 192.898,78.05521474609375 196.027,95.19891474609375 L165.783,96.70831474609375 C163.75,87.11811474609375 153.936,73.07221474609375 135.276,74.00161474609375 C115.323,74.99681474609375 105.138,94.19041474609375 108.425,116.84461474609375 C111.712,139.49861474609375 127.269,157.43261474609375 147.216,156.43761474609374 C165.235,155.54161474609376 170.767,140.03861474609374 171.796,124.76061474609375 L142.84,126.20361474609375 L141.045,113.83261474609375 L201.829,110.85261474609375 z" fill="black" id="svg_3" class="" filter="url(#f108)"/><path d="M196.442 230.926L206.343 225.284C203.159 227.361 199.853 229.245 196.442 230.926Z" fill="#FF90E8" id="svg_4"/><path d="M208.33444372558597,225.278 C241.66644372558596,203.586 260.6564437255859,161.956 253.9234437255859,115.475 C244.3464437255859,49.3523 186.29544372558593,-1.940380000000001 124.51444372558592,1.1377099999999984 " stroke="black" stroke-width="2" stroke-miterlimit="10" id="svg_5" class="" filter="url(#f108)"/><path d="M126.48488554382322,0.15238481292725226 C109.83288554382324,0.894114812927242 93.64348554382326,5.849814812927249 79.43628554382326,14.554084812927243 C44.843085543823236,35.863484812927254 24.942585543823242,78.23158481292725 31.81368554382324,125.64878481292726 C41.390985543823234,191.77178481292725 99.44228554382323,243.05778481292725 161.22288554382325,239.97978481292728 C174.82888554382325,239.35578481292725 188.15988554382324,235.93878481292722 200.38388554382323,229.94078481292723 C203.79388554382325,228.25978481292725 207.09988554382323,226.37578481292724 210.2838855438232,224.29878481292724 " stroke="black" stroke-width="2" stroke-miterlimit="10" id="svg_6" class="" filter="url(#f108)"/><path d="M41.2988 36.295L41.5958 36.1105L75.4233 15.4273L80.2483 12.4745" stroke="black" stroke-width="2" stroke-miterlimit="10" id="svg_7" class="" filter="url(#f108)"/><path d="M42.13400723590851,35.68368516449928 C12.742007235908517,58.331085164499285 -3.4555727640914995,97.55528516449928 2.84128723590851,141.02438516449928 C12.418607235908496,207.14038516449932 70.46990723590851,258.43338516449927 132.25060723590852,255.3553851644993 C144.54760723590852,254.7883851644993 156.6336072359085,251.94738516449928 167.8926072359085,246.9773851644993 L196.93560723590852,230.43338516449927 L206.8356072359085,224.79138516449927 L207.4956072359085,224.40938516449927 " stroke="black" stroke-width="2" stroke-miterlimit="10" id="svg_8" class="" filter=""/></g><defs><filter xmlns:inkscape="http://www.inkscape.org/namespaces/inkscape" id="f049" inkscape:menu-tooltip="Pressed metal with a rolled edge" inkscape:menu="Bevels" inkscape:label="Pressed steel" color-interpolation-filters="sRGB">
            <feGaussianBlur result="result1" stdDeviation="3"/>
            <feBlend in2="result1" result="result5" mode="multiply" in="result1"/>
            <feGaussianBlur in="result5" result="result6" stdDeviation="1"/>
            <feComposite result="result8" in2="result5" in="result6" operator="xor"/>
            <feComposite in="result6" result="fbSourceGraphic" operator="xor" in2="result8"/>
            <feSpecularLighting in="fbSourceGraphic" result="result1" lighting-color="#fff" surfaceScale="2" specularConstant="2.2" specularExponent="55">
                <fePointLight x="-5000" y="-10000" z="20000"/>
            </feSpecularLighting>
            <feComposite in2="fbSourceGraphic" in="result1" result="result2" operator="in"/>
            <feComposite in="fbSourceGraphic" result="result4" operator="arithmetic" k2="2" k3="1" in2="result2"/>
            <feComposite in2="result4" in="result9" operator="in" result="result91"/>
            <feBlend mode="darken" in2="result91"/>
        </filter><filter xmlns:inkscape="http://www.inkscape.org/namespaces/inkscape" id="f108" inkscape:label="Specular light" inkscape:menu="ABCs" inkscape:menu-tooltip="Basic specular bevel to use for building textures" color-interpolation-filters="sRGB">
            <feGaussianBlur result="result0" in="SourceAlpha" stdDeviation="6"/>
            <feSpecularLighting specularExponent="25" specularConstant="1" surfaceScale="10" lighting-color="#fff" result="result1" in="result0">
                <feDistantLight azimuth="235" elevation="45"/>
            </feSpecularLighting>
            <feComposite k3="1" k2="1" operator="arithmetic" result="result4" in="SourceGraphic" in2="result91"/>
            <feComposite operator="in" result="result2" in="result4" in2="SourceAlpha"/>
        </filter></defs></svg>