<svg xmlns:xlink="http://www.w3.org/1999/xlink" xmlns="http://www.w3.org/2000/svg" width="277" height="185" fill="none"><rect id="backgroundrect" width="100%" height="100%" x="0" y="0" fill="none" stroke="none"/>



<g class="currentLayer" style=""><title>Layer 1</title><path d="M258.185 45.6572C231.675 25.4452 178.862 20.7156 123.068 36.4014C67.274 52.0871 24.6462 83.6157 12.5321 114.667L3.37891 117.249L10.4982 142.589C21.2241 180.742 89.0057 195.087 161.887 174.603C234.769 154.119 285.181 106.583 274.449 68.474L267.329 43.1338L258.185 45.6572Z" fill="#F1F333" stroke="black" stroke-width="2" stroke-miterlimit="10" id="svg_1" class="selected" filter="url(#f135)"/><path d="M154.755 149.265C227.644 128.786 278.04 81.2461 267.317 43.082C256.594 4.91784 188.813 -9.41873 115.924 11.0607C43.0349 31.5401 -7.36084 79.0803 3.36198 117.244C14.0848 155.409 81.8657 169.745 154.755 149.265Z" fill="#F1F333" stroke="black" stroke-width="2" stroke-miterlimit="10" id="svg_2" class="selected" filter="url(#f135)"/><path d="M148.483 126.902C205.952 110.755 246.355 75.6526 238.726 48.4982C231.096 21.3439 178.323 12.4205 120.854 28.5673C63.3851 44.7142 22.9821 79.8169 30.6116 106.971C38.241 134.126 91.0137 143.049 148.483 126.902Z" fill="#F1F333" stroke="black" stroke-width="2" stroke-miterlimit="10" id="svg_3" class="selected" filter="url(#f135)"/></g><defs><filter id="f066" xmlns:inkscape="http://www.inkscape.org/namespaces/inkscape" inkscape:label="Metallized paint" inkscape:menu="Materials" inkscape:menu-tooltip="Metallized effect with a soft lighting, slightly translucent at the edges" height="1.1" width="1.1" y="-.05" x="-.05" color-interpolation-filters="sRGB">
            <feGaussianBlur stdDeviation="1" result="result1"/>
            <feComposite in="result1" in2="result1" result="result4" operator="in"/>
            <feBlend in="result1" mode="screen" result="result5" in2="result4"/>
            <feGaussianBlur stdDeviation="8" result="result6" in="result5"/>
            <feComposite operator="atop" in="result6" in2="result5" result="result8"/>
            <feComposite operator="in" result="fbSourceGraphic" in="result6" in2="result8"/>
            <feGaussianBlur result="result0" in="fbSourceGraphic" stdDeviation="2.5"/>
            <feSpecularLighting specularExponent="45" specularConstant="1.5" surfaceScale="1" lighting-color="#fff" result="result1" in="result0">
                <fePointLight z="21000" y="-9000" x="-6000"/>
            </feSpecularLighting>
            <feComposite operator="in" result="result2" in="result1" in2="fbSourceGraphic"/>
            <feComposite k3="1" k2="1" operator="arithmetic" result="result4" in="fbSourceGraphic" in2="result2"/>
            <feComposite operator="in" in="result9" in2="result4" result="result91"/>
            <feBlend mode="multiply" in2="result91"/>
        </filter><filter id="f135" xmlns:inkscape="http://www.inkscape.org/namespaces/inkscape" inkscape:label="Flex metal" inkscape:menu="Materials" inkscape:menu-tooltip="Bright, polished uneven metal casting, colorizable" height="1.5" y="-.25" width="1.5" x="-.25" color-interpolation-filters="sRGB">
            <feGaussianBlur stdDeviation="5" result="result8"/>
            <feTurbulence seed="25" result="result7" type="turbulence" numOctaves="2" baseFrequency=".03"/>
            <feComposite in2="result8" result="result6" operator="in" in="result8"/>
            <feDisplacementMap in="result7" in2="result6" xChannelSelector="A" yChannelSelector="A" scale="120" result="result4"/>
            <feComposite in2="result4" result="result2" operator="arithmetic" in="SourceGraphic" k1="2" k3="2.5" k2=".25"/>
            <feComposite result="fbSourceGraphic" in="result2" operator="in" in2="SourceGraphic"/>
            <feBlend mode="screen" in2="fbSourceGraphic" result="result91"/>
            <feBlend mode="multiply" in2="result91"/>
        </filter></defs></svg>